STARTFONT 2.1
FONT -TakWolf-Fusion Pixel 10px Mono latin-Regular-R-Normal-Sans Serif-10-100-75-75-M-98-ISO10646-1
SIZE 10 75 75
FONTBOUNDINGBOX 10 10 0 -1
STARTPROPERTIES 24
FOUNDRY "TakWolf"
FAMILY_NAME "Fusion Pixel 10px Mono latin"
WEIGHT_NAME "Regular"
SLANT "R"
SETWIDTH_NAME "Normal"
ADD_STYLE_NAME "Sans Serif"
PIXEL_SIZE 10
POINT_SIZE 100
RESOLUTION_X 75
RESOLUTION_Y 75
SPACING "M"
AVERAGE_WIDTH 98
CHARSET_REGISTRY "ISO10646"
CHARSET_ENCODING "1"
DEFAULT_CHAR 65534
FONT_ASCENT 9
FONT_DESCENT 1
X_HEIGHT 5
CAP_HEIGHT 7
UNDERLINE_POSITION -1
UNDERLINE_THICKNESS 1
FONT_VERSION "2026.02.27"
COPYRIGHT "Copyright (c) 2022, TakWolf (https://takwolf.com), with Reserved Font Name ""Fusion Pixel"""
LICENSE "This Font Software is licensed under the SIL Open Font License, Version 1.1"
ENDPROPERTIES
CHARS 24710
STARTCHAR u0020
ENCODING 32
SWIDTH 500 0
DWIDTH 5 0
BBX 5 10 0 -1
BITMAP
00
00
00
00
00
00
00
00
00
00
ENDCHAR
STARTCHAR u0021
ENCODING 33
SWIDTH 500 0
DWIDTH 5 0
BBX 5 10 0 -1
BITMAP
00
00
20
20
20
20
20
00
20
00
ENDCHAR
STARTCHAR u0022
ENCODING 34
SWIDTH 500 0
DWIDTH 5 0
BBX 5 10 0 -1
BITMAP
00
00
50
50
00
00
00
00
00
00
ENDCHAR
STARTCHAR u0023
ENCODING 35
SWIDTH 500 0
DWIDTH 5 0
BBX 5 10 0 -1
BITMAP
00
00
50
F0
50
90
A0
F0
A0
00
ENDCHAR
STARTCHAR u0024
ENCODING 36
SWIDTH 500 0
DWIDTH 5 0
BBX 5 10 0 -1
BITMAP
00
20
70
A0
A0
60
30
30
E0
20
ENDCHAR
STARTCHAR u0025
ENCODING 37
SWIDTH 500 0
DWIDTH 5 0
BBX 5 10 0 -1
BITMAP
00
00
90
10
20
20
40
80
90
00
ENDCHAR
STARTCHAR u0026
ENCODING 38
SWIDTH 500 0
DWIDTH 5 0
BBX 5 10 0 -1
BITMAP
00
00
40
A0
A0
40
B0
A0
50
00
ENDCHAR
STARTCHAR u0027
ENCODING 39
SWIDTH 500 0
DWIDTH 5 0
BBX 5 10 0 -1
BITMAP
00
00
20
20
00
00
00
00
00
00
ENDCHAR
STARTCHAR u0028
ENCODING 40
SWIDTH 500 0
DWIDTH 5 0
BBX 5 10 0 -1
BITMAP
00
10
20
20
40
40
40
20
20
10
ENDCHAR
STARTCHAR u0029
ENCODING 41
SWIDTH 500 0
DWIDTH 5 0
BBX 5 10 0 -1
BITMAP
00
80
40
40
20
20
20
40
40
80
ENDCHAR
STARTCHAR u002A
ENCODING 42
SWIDTH 500 0
DWIDTH 5 0
BBX 5 10 0 -1
BITMAP
00
00
00
00
50
20
70
20
50
00
ENDCHAR
STARTCHAR u002B
ENCODING 43
SWIDTH 500 0
DWIDTH 5 0
BBX 5 10 0 -1
BITMAP
00
00
00
00
20
20
F0
20
20
00
ENDCHAR
STARTCHAR u002C
ENCODING 44
SWIDTH 500 0
DWIDTH 5 0
BBX 5 10 0 -1
BITMAP
00
00
00
00
00
00
00
00
20
40
ENDCHAR
STARTCHAR u002D
ENCODING 45
SWIDTH 500 0
DWIDTH 5 0
BBX 5 10 0 -1
BITMAP
00
00
00
00
00
00
F0
00
00
00
ENDCHAR
STARTCHAR u002E
ENCODING 46
SWIDTH 500 0
DWIDTH 5 0
BBX 5 10 0 -1
BITMAP
00
00
00
00
00
00
00
00
20
00
ENDCHAR
STARTCHAR u002F
ENCODING 47
SWIDTH 500 0
DWIDTH 5 0
BBX 5 10 0 -1
BITMAP
00
10
10
20
20
40
40
40
80
80
ENDCHAR
STARTCHAR u0030
ENCODING 48
SWIDTH 500 0
DWIDTH 5 0
BBX 5 10 0 -1
BITMAP
00
00
60
90
B0
D0
90
90
60
00
ENDCHAR
STARTCHAR u0031
ENCODING 49
SWIDTH 500 0
DWIDTH 5 0
BBX 5 10 0 -1
BITMAP
00
00
20
60
20
20
20
20
70
00
ENDCHAR
STARTCHAR u0032
ENCODING 50
SWIDTH 500 0
DWIDTH 5 0
BBX 5 10 0 -1
BITMAP
00
00
60
90
10
20
40
80
F0
00
ENDCHAR
STARTCHAR u0033
ENCODING 51
SWIDTH 500 0
DWIDTH 5 0
BBX 5 10 0 -1
BITMAP
00
00
60
90
10
20
10
90
60
00
ENDCHAR
STARTCHAR u0034
ENCODING 52
SWIDTH 500 0
DWIDTH 5 0
BBX 5 10 0 -1
BITMAP
00
00
30
50
50
90
90
F0
10
00
ENDCHAR
STARTCHAR u0035
ENCODING 53
SWIDTH 500 0
DWIDTH 5 0
BBX 5 10 0 -1
BITMAP
00
00
F0
80
80
E0
10
10
E0
00
ENDCHAR
STARTCHAR u0036
ENCODING 54
SWIDTH 500 0
DWIDTH 5 0
BBX 5 10 0 -1
BITMAP
00
00
60
90
80
E0
90
90
60
00
ENDCHAR
STARTCHAR u0037
ENCODING 55
SWIDTH 500 0
DWIDTH 5 0
BBX 5 10 0 -1
BITMAP
00
00
F0
10
10
20
20
20
20
00
ENDCHAR
STARTCHAR u0038
ENCODING 56
SWIDTH 500 0
DWIDTH 5 0
BBX 5 10 0 -1
BITMAP
00
00
60
90
90
60
90
90
60
00
ENDCHAR
STARTCHAR u0039
ENCODING 57
SWIDTH 500 0
DWIDTH 5 0
BBX 5 10 0 -1
BITMAP
00
00
60
90
90
70
10
90
60
00
ENDCHAR
STARTCHAR u003A
ENCODING 58
SWIDTH 500 0
DWIDTH 5 0
BBX 5 10 0 -1
BITMAP
00
00
00
00
20
00
00
00
20
00
ENDCHAR
STARTCHAR u003B
ENCODING 59
SWIDTH 500 0
DWIDTH 5 0
BBX 5 10 0 -1
BITMAP
00
00
00
00
20
00
00
00
20
40
ENDCHAR
STARTCHAR u003C
ENCODING 60
SWIDTH 500 0
DWIDTH 5 0
BBX 5 10 0 -1
BITMAP
00
00
00
00
10
20
40
20
10
00
ENDCHAR
STARTCHAR u003D
ENCODING 61
SWIDTH 500 0
DWIDTH 5 0
BBX 5 10 0 -1
BITMAP
00
00
00
00
00
F0
00
F0
00
00
ENDCHAR
STARTCHAR u003E
ENCODING 62
SWIDTH 500 0
DWIDTH 5 0
BBX 5 10 0 -1
BITMAP
00
00
00
00
40
20
10
20
40
00
ENDCHAR
STARTCHAR u003F
ENCODING 63
SWIDTH 500 0
DWIDTH 5 0
BBX 5 10 0 -1
BITMAP
00
00
60
90
10
20
20
00
20
00
ENDCHAR
STARTCHAR u0040
ENCODING 64
SWIDTH 500 0
DWIDTH 5 0
BBX 5 10 0 -1
BITMAP
00
00
60
90
B0
B0
B0
80
60
00
ENDCHAR
STARTCHAR u0041
ENCODING 65
SWIDTH 500 0
DWIDTH 5 0
BBX 5 10 0 -1
BITMAP
00
00
60
90
90
90
F0
90
90
00
ENDCHAR
STARTCHAR u0042
ENCODING 66
SWIDTH 500 0
DWIDTH 5 0
BBX 5 10 0 -1
BITMAP
00
00
E0
90
90
E0
90
90
E0
00
ENDCHAR
STARTCHAR u0043
ENCODING 67
SWIDTH 500 0
DWIDTH 5 0
BBX 5 10 0 -1
BITMAP
00
00
60
90
80
80
80
90
60
00
ENDCHAR
STARTCHAR u0044
ENCODING 68
SWIDTH 500 0
DWIDTH 5 0
BBX 5 10 0 -1
BITMAP
00
00
E0
90
90
90
90
90
E0
00
ENDCHAR
STARTCHAR u0045
ENCODING 69
SWIDTH 500 0
DWIDTH 5 0
BBX 5 10 0 -1
BITMAP
00
00
F0
80
80
E0
80
80
F0
00
ENDCHAR
STARTCHAR u0046
ENCODING 70
SWIDTH 500 0
DWIDTH 5 0
BBX 5 10 0 -1
BITMAP
00
00
F0
80
80
E0
80
80
80
00
ENDCHAR
STARTCHAR u0047
ENCODING 71
SWIDTH 500 0
DWIDTH 5 0
BBX 5 10 0 -1
BITMAP
00
00
60
90
80
80
B0
90
70
00
ENDCHAR
STARTCHAR u0048
ENCODING 72
SWIDTH 500 0
DWIDTH 5 0
BBX 5 10 0 -1
BITMAP
00
00
90
90
90
F0
90
90
90
00
ENDCHAR
STARTCHAR u0049
ENCODING 73
SWIDTH 500 0
DWIDTH 5 0
BBX 5 10 0 -1
BITMAP
00
00
F0
20
20
20
20
20
F0
00
ENDCHAR
STARTCHAR u004A
ENCODING 74
SWIDTH 500 0
DWIDTH 5 0
BBX 5 10 0 -1
BITMAP
00
00
10
10
10
10
90
90
60
00
ENDCHAR
STARTCHAR u004B
ENCODING 75
SWIDTH 500 0
DWIDTH 5 0
BBX 5 10 0 -1
BITMAP
00
00
90
90
A0
C0
A0
90
90
00
ENDCHAR
STARTCHAR u004C
ENCODING 76
SWIDTH 500 0
DWIDTH 5 0
BBX 5 10 0 -1
BITMAP
00
00
80
80
80
80
80
80
F0
00
ENDCHAR
STARTCHAR u004D
ENCODING 77
SWIDTH 500 0
DWIDTH 5 0
BBX 5 10 0 -1
BITMAP
00
00
90
F0
F0
90
90
90
90
00
ENDCHAR
STARTCHAR u004E
ENCODING 78
SWIDTH 500 0
DWIDTH 5 0
BBX 5 10 0 -1
BITMAP
00
00
90
D0
D0
B0
B0
90
90
00
ENDCHAR
STARTCHAR u004F
ENCODING 79
SWIDTH 500 0
DWIDTH 5 0
BBX 5 10 0 -1
BITMAP
00
00
60
90
90
90
90
90
60
00
ENDCHAR
STARTCHAR u0050
ENCODING 80
SWIDTH 500 0
DWIDTH 5 0
BBX 5 10 0 -1
BITMAP
00
00
E0
90
90
E0
80
80
80
00
ENDCHAR
STARTCHAR u0051
ENCODING 81
SWIDTH 500 0
DWIDTH 5 0
BBX 5 10 0 -1
BITMAP
00
00
60
90
90
90
90
A0
50
00
ENDCHAR
STARTCHAR u0052
ENCODING 82
SWIDTH 500 0
DWIDTH 5 0
BBX 5 10 0 -1
BITMAP
00
00
E0
90
90
E0
A0
90
90
00
ENDCHAR
STARTCHAR u0053
ENCODING 83
SWIDTH 500 0
DWIDTH 5 0
BBX 5 10 0 -1
BITMAP
00
00
60
90
80
60
10
90
60
00
ENDCHAR
STARTCHAR u0054
ENCODING 84
SWIDTH 500 0
DWIDTH 5 0
BBX 5 10 0 -1
BITMAP
00
00
F0
20
20
20
20
20
20
00
ENDCHAR
STARTCHAR u0055
ENCODING 85
SWIDTH 500 0
DWIDTH 5 0
BBX 5 10 0 -1
BITMAP
00
00
90
90
90
90
90
90
60
00
ENDCHAR
STARTCHAR u0056
ENCODING 86
SWIDTH 500 0
DWIDTH 5 0
BBX 5 10 0 -1
BITMAP
00
00
90
90
90
A0
A0
A0
C0
00
ENDCHAR
STARTCHAR u0057
ENCODING 87
SWIDTH 500 0
DWIDTH 5 0
BBX 5 10 0 -1
BITMAP
00
00
90
90
90
90
F0
F0
90
00
ENDCHAR
STARTCHAR u0058
ENCODING 88
SWIDTH 500 0
DWIDTH 5 0
BBX 5 10 0 -1
BITMAP
00
00
90
90
90
60
90
90
90
00
ENDCHAR
STARTCHAR u0059
ENCODING 89
SWIDTH 500 0
DWIDTH 5 0
BBX 5 10 0 -1
BITMAP
00
00
90
90
50
50
20
20
20
00
ENDCHAR
STARTCHAR u005A
ENCODING 90
SWIDTH 500 0
DWIDTH 5 0
BBX 5 10 0 -1
BITMAP
00
00
F0
10
20
40
40
80
F0
00
ENDCHAR
STARTCHAR u005B
ENCODING 91
SWIDTH 500 0
DWIDTH 5 0
BBX 5 10 0 -1
BITMAP
00
70
40
40
40
40
40
40
40
70
ENDCHAR
STARTCHAR u005C
ENCODING 92
SWIDTH 500 0
DWIDTH 5 0
BBX 5 10 0 -1
BITMAP
00
80
80
40
40
20
20
20
10
10
ENDCHAR
STARTCHAR u005D
ENCODING 93
SWIDTH 500 0
DWIDTH 5 0
BBX 5 10 0 -1
BITMAP
00
E0
20
20
20
20
20
20
20
E0
ENDCHAR
STARTCHAR u005E
ENCODING 94
SWIDTH 500 0
DWIDTH 5 0
BBX 5 10 0 -1
BITMAP
00
00
20
50
00
00
00
00
00
00
ENDCHAR
STARTCHAR u005F
ENCODING 95
SWIDTH 500 0
DWIDTH 5 0
BBX 5 10 0 -1
BITMAP
00
00
00
00
00
00
00
00
00
F0
ENDCHAR
STARTCHAR u0060
ENCODING 96
SWIDTH 500 0
DWIDTH 5 0
BBX 5 10 0 -1
BITMAP
00
00
40
20
00
00
00
00
00
00
ENDCHAR
STARTCHAR u0061
ENCODING 97
SWIDTH 500 0
DWIDTH 5 0
BBX 5 10 0 -1
BITMAP
00
00
00
00
60
10
70
90
70
00
ENDCHAR
STARTCHAR u0062
ENCODING 98
SWIDTH 500 0
DWIDTH 5 0
BBX 5 10 0 -1
BITMAP
00
00
80
80
E0
90
90
90
E0
00
ENDCHAR
STARTCHAR u0063
ENCODING 99
SWIDTH 500 0
DWIDTH 5 0
BBX 5 10 0 -1
BITMAP
00
00
00
00
60
90
80
90
60
00
ENDCHAR
STARTCHAR u0064
ENCODING 100
SWIDTH 500 0
DWIDTH 5 0
BBX 5 10 0 -1
BITMAP
00
00
10
10
70
90
90
90
70
00
ENDCHAR
STARTCHAR u0065
ENCODING 101
SWIDTH 500 0
DWIDTH 5 0
BBX 5 10 0 -1
BITMAP
00
00
00
00
60
90
F0
80
60
00
ENDCHAR
STARTCHAR u0066
ENCODING 102
SWIDTH 500 0
DWIDTH 5 0
BBX 5 10 0 -1
BITMAP
00
00
30
40
F0
40
40
40
40
00
ENDCHAR
STARTCHAR u0067
ENCODING 103
SWIDTH 500 0
DWIDTH 5 0
BBX 5 10 0 -1
BITMAP
00
00
00
00
70
90
90
70
10
60
ENDCHAR
STARTCHAR u0068
ENCODING 104
SWIDTH 500 0
DWIDTH 5 0
BBX 5 10 0 -1
BITMAP
00
00
80
80
E0
90
90
90
90
00
ENDCHAR
STARTCHAR u0069
ENCODING 105
SWIDTH 500 0
DWIDTH 5 0
BBX 5 10 0 -1
BITMAP
00
00
20
00
E0
20
20
20
F0
00
ENDCHAR
STARTCHAR u006A
ENCODING 106
SWIDTH 500 0
DWIDTH 5 0
BBX 5 10 0 -1
BITMAP
00
00
20
00
E0
20
20
20
20
C0
ENDCHAR
STARTCHAR u006B
ENCODING 107
SWIDTH 500 0
DWIDTH 5 0
BBX 5 10 0 -1
BITMAP
00
00
80
80
90
A0
C0
A0
90
00
ENDCHAR
STARTCHAR u006C
ENCODING 108
SWIDTH 500 0
DWIDTH 5 0
BBX 5 10 0 -1
BITMAP
00
00
C0
40
40
40
40
40
30
00
ENDCHAR
STARTCHAR u006D
ENCODING 109
SWIDTH 500 0
DWIDTH 5 0
BBX 5 10 0 -1
BITMAP
00
00
00
00
90
F0
F0
90
90
00
ENDCHAR
STARTCHAR u006E
ENCODING 110
SWIDTH 500 0
DWIDTH 5 0
BBX 5 10 0 -1
BITMAP
00
00
00
00
E0
90
90
90
90
00
ENDCHAR
STARTCHAR u006F
ENCODING 111
SWIDTH 500 0
DWIDTH 5 0
BBX 5 10 0 -1
BITMAP
00
00
00
00
60
90
90
90
60
00
ENDCHAR
STARTCHAR u0070
ENCODING 112
SWIDTH 500 0
DWIDTH 5 0
BBX 5 10 0 -1
BITMAP
00
00
00
00
E0
90
90
E0
80
80
ENDCHAR
STARTCHAR u0071
ENCODING 113
SWIDTH 500 0
DWIDTH 5 0
BBX 5 10 0 -1
BITMAP
00
00
00
00
70
90
90
70
10
10
ENDCHAR
STARTCHAR u0072
ENCODING 114
SWIDTH 500 0
DWIDTH 5 0
BBX 5 10 0 -1
BITMAP
00
00
00
00
B0
C0
80
80
80
00
ENDCHAR
STARTCHAR u0073
ENCODING 115
SWIDTH 500 0
DWIDTH 5 0
BBX 5 10 0 -1
BITMAP
00
00
00
00
70
80
60
10
E0
00
ENDCHAR
STARTCHAR u0074
ENCODING 116
SWIDTH 500 0
DWIDTH 5 0
BBX 5 10 0 -1
BITMAP
00
00
40
40
F0
40
40
40
30
00
ENDCHAR
STARTCHAR u0075
ENCODING 117
SWIDTH 500 0
DWIDTH 5 0
BBX 5 10 0 -1
BITMAP
00
00
00
00
90
90
90
90
70
00
ENDCHAR
STARTCHAR u0076
ENCODING 118
SWIDTH 500 0
DWIDTH 5 0
BBX 5 10 0 -1
BITMAP
00
00
00
00
90
90
A0
A0
C0
00
ENDCHAR
STARTCHAR u0077
ENCODING 119
SWIDTH 500 0
DWIDTH 5 0
BBX 5 10 0 -1
BITMAP
00
00
00
00
90
90
F0
F0
90
00
ENDCHAR
STARTCHAR u0078
ENCODING 120
SWIDTH 500 0
DWIDTH 5 0
BBX 5 10 0 -1
BITMAP
00
00
00
00
90
90
60
90
90
00
ENDCHAR
STARTCHAR u0079
ENCODING 121
SWIDTH 500 0
DWIDTH 5 0
BBX 5 10 0 -1
BITMAP
00
00
00
00
90
90
50
50
20
C0
ENDCHAR
STARTCHAR u007A
ENCODING 122
SWIDTH 500 0
DWIDTH 5 0
BBX 5 10 0 -1
BITMAP
00
00
00
00
F0
20
40
80
F0
00
ENDCHAR
STARTCHAR u007B
ENCODING 123
SWIDTH 500 0
DWIDTH 5 0
BBX 5 10 0 -1
BITMAP
00
30
40
40
40
80
40
40
40
30
ENDCHAR
STARTCHAR u007C
ENCODING 124
SWIDTH 500 0
DWIDTH 5 0
BBX 5 10 0 -1
BITMAP
00
20
20
20
20
20
20
20
20
20
ENDCHAR
STARTCHAR u007D
ENCODING 125
SWIDTH 500 0
DWIDTH 5 0
BBX 5 10 0 -1
BITMAP
00
C0
20
20
20
10
20
20
20
C0
ENDCHAR
STARTCHAR u007E
ENCODING 126
SWIDTH 500 0
DWIDTH 5 0
BBX 5 10 0 -1
BITMAP
00
00
00
00
50
A0
00
00
00
00
ENDCHAR
STARTCHAR u00A1
ENCODING 161
SWIDTH 500 0
DWIDTH 5 0
BBX 5 10 0 -1
BITMAP
00
00
00
20
00
20
20
20
20
20
ENDCHAR
STARTCHAR u00A2
ENCODING 162
SWIDTH 500 0
DWIDTH 5 0
BBX 5 10 0 -1
BITMAP
00
00
00
20
70
A0
A0
A0
70
20
ENDCHAR
STARTCHAR u00A3
ENCODING 163
SWIDTH 500 0
DWIDTH 5 0
BBX 5 10 0 -1
BITMAP
00
00
30
40
40
F0
40
80
F0
00
ENDCHAR
STARTCHAR u00A4
ENCODING 164
SWIDTH 500 0
DWIDTH 5 0
BBX 5 10 0 -1
BITMAP
00
00
00
90
60
60
60
90
00
00
ENDCHAR
STARTCHAR u00A5
ENCODING 165
SWIDTH 500 0
DWIDTH 5 0
BBX 5 10 0 -1
BITMAP
00
00
90
90
50
F0
20
F0
20
00
ENDCHAR
STARTCHAR u00A6
ENCODING 166
SWIDTH 500 0
DWIDTH 5 0
BBX 5 10 0 -1
BITMAP
00
20
20
20
20
00
20
20
20
20
ENDCHAR
STARTCHAR u00A7
ENCODING 167
SWIDTH 500 0
DWIDTH 5 0
BBX 5 10 0 -1
BITMAP
00
00
60
90
40
A0
50
20
90
60
ENDCHAR
STARTCHAR u00A8
ENCODING 168
SWIDTH 500 0
DWIDTH 5 0
BBX 5 10 0 -1
BITMAP
00
00
50
00
00
00
00
00
00
00
ENDCHAR
STARTCHAR u00A9
ENCODING 169
SWIDTH 1000 0
DWIDTH 10 0
BBX 10 10 0 -1
BITMAP
0000
3E00
4100
9C80
A280
A080
A280
9C80
4100
3E00
ENDCHAR
STARTCHAR u00AA
ENCODING 170
SWIDTH 500 0
DWIDTH 5 0
BBX 5 10 0 -1
BITMAP
00
00
70
90
90
70
00
00
00
00
ENDCHAR
STARTCHAR u00AB
ENCODING 171
SWIDTH 500 0
DWIDTH 5 0
BBX 5 10 0 -1
BITMAP
00
00
00
00
00
50
A0
50
00
00
ENDCHAR
STARTCHAR u00AC
ENCODING 172
SWIDTH 500 0
DWIDTH 5 0
BBX 5 10 0 -1
BITMAP
00
00
00
00
F0
10
10
00
00
00
ENDCHAR
STARTCHAR u00AE
ENCODING 174
SWIDTH 1000 0
DWIDTH 10 0
BBX 10 10 0 -1
BITMAP
0000
3C00
4200
B900
A500
B900
A500
4200
3C00
0000
ENDCHAR
STARTCHAR u00AF
ENCODING 175
SWIDTH 500 0
DWIDTH 5 0
BBX 5 10 0 -1
BITMAP
00
00
F0
00
00
00
00
00
00
00
ENDCHAR
STARTCHAR u00B0
ENCODING 176
SWIDTH 500 0
DWIDTH 5 0
BBX 5 10 0 -1
BITMAP
00
20
50
20
00
00
00
00
00
00
ENDCHAR
STARTCHAR u00B1
ENCODING 177
SWIDTH 500 0
DWIDTH 5 0
BBX 5 10 0 -1
BITMAP
00
00
00
00
20
20
F0
20
F0
00
ENDCHAR
STARTCHAR u00B2
ENCODING 178
SWIDTH 500 0
DWIDTH 5 0
BBX 5 10 0 -1
BITMAP
00
C0
20
40
80
E0
00
00
00
00
ENDCHAR
STARTCHAR u00B3
ENCODING 179
SWIDTH 500 0
DWIDTH 5 0
BBX 5 10 0 -1
BITMAP
00
C0
20
40
20
C0
00
00
00
00
ENDCHAR
STARTCHAR u00B4
ENCODING 180
SWIDTH 500 0
DWIDTH 5 0
BBX 5 10 0 -1
BITMAP
00
00
20
40
00
00
00
00
00
00
ENDCHAR
STARTCHAR u00B5
ENCODING 181
SWIDTH 500 0
DWIDTH 5 0
BBX 5 10 0 -1
BITMAP
00
00
00
00
90
90
90
B0
D0
80
ENDCHAR
STARTCHAR u00B6
ENCODING 182
SWIDTH 500 0
DWIDTH 5 0
BBX 5 10 0 -1
BITMAP
00
00
70
D0
D0
D0
50
50
50
50
ENDCHAR
STARTCHAR u00B7
ENCODING 183
SWIDTH 500 0
DWIDTH 5 0
BBX 5 10 0 -1
BITMAP
00
00
00
00
00
20
00
00
00
00
ENDCHAR
STARTCHAR u00B8
ENCODING 184
SWIDTH 500 0
DWIDTH 5 0
BBX 5 10 0 -1
BITMAP
00
00
00
00
00
00
00
00
20
C0
ENDCHAR
STARTCHAR u00B9
ENCODING 185
SWIDTH 500 0
DWIDTH 5 0
BBX 5 10 0 -1
BITMAP
00
40
C0
40
40
E0
00
00
00
00
ENDCHAR
STARTCHAR u00BA
ENCODING 186
SWIDTH 500 0
DWIDTH 5 0
BBX 5 10 0 -1
BITMAP
00
00
60
90
90
60
00
00
00
00
ENDCHAR
STARTCHAR u00BB
ENCODING 187
SWIDTH 500 0
DWIDTH 5 0
BBX 5 10 0 -1
BITMAP
00
00
00
00
00
A0
50
A0
00
00
ENDCHAR
STARTCHAR u00BC
ENCODING 188
SWIDTH 1000 0
DWIDTH 10 0
BBX 10 10 0 -1
BITMAP
0000
4080
C100
4200
4400
E980
1280
2280
4380
8080
ENDCHAR
STARTCHAR u00BD
ENCODING 189
SWIDTH 1000 0
DWIDTH 10 0
BBX 10 10 0 -1
BITMAP
0000
4080
C100
4200
4400
EB00
1080
2100
4200
8380
ENDCHAR
STARTCHAR u00BE
ENCODING 190
SWIDTH 1000 0
DWIDTH 10 0
BBX 10 10 0 -1
BITMAP
0000
C080
2100
4200
2400
C980
1280
2280
4380
8080
ENDCHAR
STARTCHAR u00BF
ENCODING 191
SWIDTH 500 0
DWIDTH 5 0
BBX 5 10 0 -1
BITMAP
00
00
00
40
00
40
40
80
90
60
ENDCHAR
STARTCHAR u00C0
ENCODING 192
SWIDTH 500 0
DWIDTH 5 0
BBX 5 10 0 -1
BITMAP
40
20
00
60
90
90
F0
90
90
00
ENDCHAR
STARTCHAR u00C1
ENCODING 193
SWIDTH 500 0
DWIDTH 5 0
BBX 5 10 0 -1
BITMAP
20
40
00
60
90
90
F0
90
90
00
ENDCHAR
STARTCHAR u00C2
ENCODING 194
SWIDTH 500 0
DWIDTH 5 0
BBX 5 10 0 -1
BITMAP
20
50
00
60
90
90
F0
90
90
00
ENDCHAR
STARTCHAR u00C3
ENCODING 195
SWIDTH 500 0
DWIDTH 5 0
BBX 5 10 0 -1
BITMAP
68
90
00
60
90
90
F0
90
90
00
ENDCHAR
STARTCHAR u00C4
ENCODING 196
SWIDTH 500 0
DWIDTH 5 0
BBX 5 10 0 -1
BITMAP
00
50
00
60
90
90
F0
90
90
00
ENDCHAR
STARTCHAR u00C5
ENCODING 197
SWIDTH 500 0
DWIDTH 5 0
BBX 5 10 0 -1
BITMAP
20
50
20
00
60
90
F0
90
90
00
ENDCHAR
STARTCHAR u00C6
ENCODING 198
SWIDTH 500 0
DWIDTH 5 0
BBX 5 10 0 -1
BITMAP
00
00
70
A0
A0
B0
E0
A0
B0
00
ENDCHAR
STARTCHAR u00C7
ENCODING 199
SWIDTH 500 0
DWIDTH 5 0
BBX 5 10 0 -1
BITMAP
00
00
60
90
80
80
80
90
60
C0
ENDCHAR
STARTCHAR u00C8
ENCODING 200
SWIDTH 500 0
DWIDTH 5 0
BBX 5 10 0 -1
BITMAP
40
20
00
F0
80
E0
80
80
F0
00
ENDCHAR
STARTCHAR u00C9
ENCODING 201
SWIDTH 500 0
DWIDTH 5 0
BBX 5 10 0 -1
BITMAP
20
40
00
F0
80
E0
80
80
F0
00
ENDCHAR
STARTCHAR u00CA
ENCODING 202
SWIDTH 500 0
DWIDTH 5 0
BBX 5 10 0 -1
BITMAP
20
50
00
F0
80
E0
80
80
F0
00
ENDCHAR
STARTCHAR u00CB
ENCODING 203
SWIDTH 500 0
DWIDTH 5 0
BBX 5 10 0 -1
BITMAP
00
50
00
F0
80
E0
80
80
F0
00
ENDCHAR
STARTCHAR u00CC
ENCODING 204
SWIDTH 500 0
DWIDTH 5 0
BBX 5 10 0 -1
BITMAP
40
20
00
F0
20
20
20
20
F0
00
ENDCHAR
STARTCHAR u00CD
ENCODING 205
SWIDTH 500 0
DWIDTH 5 0
BBX 5 10 0 -1
BITMAP
20
40
00
F0
20
20
20
20
F0
00
ENDCHAR
STARTCHAR u00CE
ENCODING 206
SWIDTH 500 0
DWIDTH 5 0
BBX 5 10 0 -1
BITMAP
20
50
00
F0
20
20
20
20
F0
00
ENDCHAR
STARTCHAR u00CF
ENCODING 207
SWIDTH 500 0
DWIDTH 5 0
BBX 5 10 0 -1
BITMAP
00
50
00
F0
20
20
20
20
F0
00
ENDCHAR
STARTCHAR u00D0
ENCODING 208
SWIDTH 500 0
DWIDTH 5 0
BBX 5 10 0 -1
BITMAP
00
00
60
50
50
F0
50
50
60
00
ENDCHAR
STARTCHAR u00D1
ENCODING 209
SWIDTH 500 0
DWIDTH 5 0
BBX 5 10 0 -1
BITMAP
68
90
00
90
D0
D0
B0
B0
90
00
ENDCHAR
STARTCHAR u00D2
ENCODING 210
SWIDTH 500 0
DWIDTH 5 0
BBX 5 10 0 -1
BITMAP
40
20
00
60
90
90
90
90
60
00
ENDCHAR
STARTCHAR u00D3
ENCODING 211
SWIDTH 500 0
DWIDTH 5 0
BBX 5 10 0 -1
BITMAP
20
40
00
60
90
90
90
90
60
00
ENDCHAR
STARTCHAR u00D4
ENCODING 212
SWIDTH 500 0
DWIDTH 5 0
BBX 5 10 0 -1
BITMAP
20
50
00
60
90
90
90
90
60
00
ENDCHAR
STARTCHAR u00D5
ENCODING 213
SWIDTH 500 0
DWIDTH 5 0
BBX 5 10 0 -1
BITMAP
68
90
00
60
90
90
90
90
60
00
ENDCHAR
STARTCHAR u00D6
ENCODING 214
SWIDTH 500 0
DWIDTH 5 0
BBX 5 10 0 -1
BITMAP
00
50
00
60
90
90
90
90
60
00
ENDCHAR
STARTCHAR u00D7
ENCODING 215
SWIDTH 500 0
DWIDTH 5 0
BBX 5 10 0 -1
BITMAP
00
00
00
00
90
50
20
50
90
00
ENDCHAR
STARTCHAR u00D8
ENCODING 216
SWIDTH 500 0
DWIDTH 5 0
BBX 5 10 0 -1
BITMAP
00
10
60
90
B0
D0
90
90
60
80
ENDCHAR
STARTCHAR u00D9
ENCODING 217
SWIDTH 500 0
DWIDTH 5 0
BBX 5 10 0 -1
BITMAP
40
20
00
90
90
90
90
90
60
00
ENDCHAR
STARTCHAR u00DA
ENCODING 218
SWIDTH 500 0
DWIDTH 5 0
BBX 5 10 0 -1
BITMAP
20
40
00
90
90
90
90
90
60
00
ENDCHAR
STARTCHAR u00DB
ENCODING 219
SWIDTH 500 0
DWIDTH 5 0
BBX 5 10 0 -1
BITMAP
20
50
00
90
90
90
90
90
60
00
ENDCHAR
STARTCHAR u00DC
ENCODING 220
SWIDTH 500 0
DWIDTH 5 0
BBX 5 10 0 -1
BITMAP
00
50
00
90
90
90
90
90
60
00
ENDCHAR
STARTCHAR u00DD
ENCODING 221
SWIDTH 500 0
DWIDTH 5 0
BBX 5 10 0 -1
BITMAP
10
20
00
90
50
50
20
20
20
00
ENDCHAR
STARTCHAR u00DE
ENCODING 222
SWIDTH 500 0
DWIDTH 5 0
BBX 5 10 0 -1
BITMAP
00
00
80
E0
90
90
90
E0
80
00
ENDCHAR
STARTCHAR u00DF
ENCODING 223
SWIDTH 500 0
DWIDTH 5 0
BBX 5 10 0 -1
BITMAP
00
00
40
A0
A0
A0
90
90
A0
00
ENDCHAR
STARTCHAR u00E0
ENCODING 224
SWIDTH 500 0
DWIDTH 5 0
BBX 5 10 0 -1
BITMAP
00
40
20
00
60
10
70
90
70
00
ENDCHAR
STARTCHAR u00E1
ENCODING 225
SWIDTH 500 0
DWIDTH 5 0
BBX 5 10 0 -1
BITMAP
00
20
40
00
60
10
70
90
70
00
ENDCHAR
STARTCHAR u00E2
ENCODING 226
SWIDTH 500 0
DWIDTH 5 0
BBX 5 10 0 -1
BITMAP
00
20
50
00
60
10
70
90
70
00
ENDCHAR
STARTCHAR u00E3
ENCODING 227
SWIDTH 500 0
DWIDTH 5 0
BBX 5 10 0 -1
BITMAP
00
68
90
00
60
10
70
90
70
00
ENDCHAR
STARTCHAR u00E4
ENCODING 228
SWIDTH 500 0
DWIDTH 5 0
BBX 5 10 0 -1
BITMAP
00
00
50
00
60
10
70
90
70
00
ENDCHAR
STARTCHAR u00E5
ENCODING 229
SWIDTH 500 0
DWIDTH 5 0
BBX 5 10 0 -1
BITMAP
20
50
20
00
60
10
70
90
70
00
ENDCHAR
STARTCHAR u00E6
ENCODING 230
SWIDTH 500 0
DWIDTH 5 0
BBX 5 10 0 -1
BITMAP
00
00
00
00
A0
50
F0
A0
70
00
ENDCHAR
STARTCHAR u00E7
ENCODING 231
SWIDTH 500 0
DWIDTH 5 0
BBX 5 10 0 -1
BITMAP
00
00
00
00
60
90
80
90
60
C0
ENDCHAR
STARTCHAR u00E8
ENCODING 232
SWIDTH 500 0
DWIDTH 5 0
BBX 5 10 0 -1
BITMAP
00
40
20
00
60
90
F0
80
60
00
ENDCHAR
STARTCHAR u00E9
ENCODING 233
SWIDTH 500 0
DWIDTH 5 0
BBX 5 10 0 -1
BITMAP
00
20
40
00
60
90
F0
80
60
00
ENDCHAR
STARTCHAR u00EA
ENCODING 234
SWIDTH 500 0
DWIDTH 5 0
BBX 5 10 0 -1
BITMAP
00
20
50
00
60
90
F0
80
60
00
ENDCHAR
STARTCHAR u00EB
ENCODING 235
SWIDTH 500 0
DWIDTH 5 0
BBX 5 10 0 -1
BITMAP
00
00
50
00
60
90
F0
80
60
00
ENDCHAR
STARTCHAR u00EC
ENCODING 236
SWIDTH 500 0
DWIDTH 5 0
BBX 5 10 0 -1
BITMAP
00
40
20
00
E0
20
20
20
F0
00
ENDCHAR
STARTCHAR u00ED
ENCODING 237
SWIDTH 500 0
DWIDTH 5 0
BBX 5 10 0 -1
BITMAP
00
10
20
00
E0
20
20
20
F0
00
ENDCHAR
STARTCHAR u00EE
ENCODING 238
SWIDTH 500 0
DWIDTH 5 0
BBX 5 10 0 -1
BITMAP
00
20
50
00
E0
20
20
20
F0
00
ENDCHAR
STARTCHAR u00EF
ENCODING 239
SWIDTH 500 0
DWIDTH 5 0
BBX 5 10 0 -1
BITMAP
00
00
50
00
E0
20
20
20
F0
00
ENDCHAR
STARTCHAR u00F0
ENCODING 240
SWIDTH 500 0
DWIDTH 5 0
BBX 5 10 0 -1
BITMAP
00
40
30
E0
10
70
90
90
60
00
ENDCHAR
STARTCHAR u00F1
ENCODING 241
SWIDTH 500 0
DWIDTH 5 0
BBX 5 10 0 -1
BITMAP
00
68
90
00
E0
90
90
90
90
00
ENDCHAR
STARTCHAR u00F2
ENCODING 242
SWIDTH 500 0
DWIDTH 5 0
BBX 5 10 0 -1
BITMAP
00
40
20
00
60
90
90
90
60
00
ENDCHAR
STARTCHAR u00F3
ENCODING 243
SWIDTH 500 0
DWIDTH 5 0
BBX 5 10 0 -1
BITMAP
00
20
40
00
60
90
90
90
60
00
ENDCHAR
STARTCHAR u00F4
ENCODING 244
SWIDTH 500 0
DWIDTH 5 0
BBX 5 10 0 -1
BITMAP
00
20
50
00
60
90
90
90
60
00
ENDCHAR
STARTCHAR u00F5
ENCODING 245
SWIDTH 500 0
DWIDTH 5 0
BBX 5 10 0 -1
BITMAP
00
68
90
00
60
90
90
90
60
00
ENDCHAR
STARTCHAR u00F6
ENCODING 246
SWIDTH 500 0
DWIDTH 5 0
BBX 5 10 0 -1
BITMAP
00
00
50
00
60
90
90
90
60
00
ENDCHAR
STARTCHAR u00F7
ENCODING 247
SWIDTH 500 0
DWIDTH 5 0
BBX 5 10 0 -1
BITMAP
00
00
00
00
20
00
F0
00
20
00
ENDCHAR
STARTCHAR u00F8
ENCODING 248
SWIDTH 500 0
DWIDTH 5 0
BBX 5 10 0 -1
BITMAP
00
00
00
10
60
90
F0
90
60
80
ENDCHAR
STARTCHAR u00F9
ENCODING 249
SWIDTH 500 0
DWIDTH 5 0
BBX 5 10 0 -1
BITMAP
00
40
20
00
90
90
90
90
70
00
ENDCHAR
STARTCHAR u00FA
ENCODING 250
SWIDTH 500 0
DWIDTH 5 0
BBX 5 10 0 -1
BITMAP
00
20
40
00
90
90
90
90
70
00
ENDCHAR
STARTCHAR u00FB
ENCODING 251
SWIDTH 500 0
DWIDTH 5 0
BBX 5 10 0 -1
BITMAP
00
20
50
00
90
90
90
90
70
00
ENDCHAR
STARTCHAR u00FC
ENCODING 252
SWIDTH 500 0
DWIDTH 5 0
BBX 5 10 0 -1
BITMAP
00
00
50
00
90
90
90
90
70
00
ENDCHAR
STARTCHAR u00FD
ENCODING 253
SWIDTH 500 0
DWIDTH 5 0
BBX 5 10 0 -1
BITMAP
00
20
40
00
90
90
50
50
20
C0
ENDCHAR
STARTCHAR u00FE
ENCODING 254
SWIDTH 500 0
DWIDTH 5 0
BBX 5 10 0 -1
BITMAP
00
00
80
80
E0
90
90
E0
80
80
ENDCHAR
STARTCHAR u00FF
ENCODING 255
SWIDTH 500 0
DWIDTH 5 0
BBX 5 10 0 -1
BITMAP
00
00
50
00
90
90
50
50
20
C0
ENDCHAR
STARTCHAR u0100
ENCODING 256
SWIDTH 500 0
DWIDTH 5 0
BBX 5 10 0 -1
BITMAP
00
70
00
60
90
90
F0
90
90
00
ENDCHAR
STARTCHAR u0101
ENCODING 257
SWIDTH 500 0
DWIDTH 5 0
BBX 5 10 0 -1
BITMAP
00
00
70
00
60
10
70
90
70
00
ENDCHAR
STARTCHAR u0102
ENCODING 258
SWIDTH 500 0
DWIDTH 5 0
BBX 5 10 0 -1
BITMAP
90
60
00
60
90
90
F0
90
90
00
ENDCHAR
STARTCHAR u0103
ENCODING 259
SWIDTH 500 0
DWIDTH 5 0
BBX 5 10 0 -1
BITMAP
00
90
60
00
60
10
70
90
70
00
ENDCHAR
STARTCHAR u0104
ENCODING 260
SWIDTH 500 0
DWIDTH 5 0
BBX 5 10 0 -1
BITMAP
00
00
60
90
90
90
F0
90
A0
10
ENDCHAR
STARTCHAR u0105
ENCODING 261
SWIDTH 500 0
DWIDTH 5 0
BBX 5 10 0 -1
BITMAP
00
00
00
00
60
10
70
90
60
10
ENDCHAR
STARTCHAR u0106
ENCODING 262
SWIDTH 500 0
DWIDTH 5 0
BBX 5 10 0 -1
BITMAP
20
40
00
60
90
80
80
90
60
00
ENDCHAR
STARTCHAR u0107
ENCODING 263
SWIDTH 500 0
DWIDTH 5 0
BBX 5 10 0 -1
BITMAP
00
20
40
00
60
90
80
90
60
00
ENDCHAR
STARTCHAR u0108
ENCODING 264
SWIDTH 500 0
DWIDTH 5 0
BBX 5 10 0 -1
BITMAP
20
50
00
60
90
80
80
90
60
00
ENDCHAR
STARTCHAR u0109
ENCODING 265
SWIDTH 500 0
DWIDTH 5 0
BBX 5 10 0 -1
BITMAP
00
20
50
00
60
90
80
90
60
00
ENDCHAR
STARTCHAR u010A
ENCODING 266
SWIDTH 500 0
DWIDTH 5 0
BBX 5 10 0 -1
BITMAP
00
20
00
60
90
80
80
90
60
00
ENDCHAR
STARTCHAR u010B
ENCODING 267
SWIDTH 500 0
DWIDTH 5 0
BBX 5 10 0 -1
BITMAP
00
00
20
00
60
90
80
90
60
00
ENDCHAR
STARTCHAR u010C
ENCODING 268
SWIDTH 500 0
DWIDTH 5 0
BBX 5 10 0 -1
BITMAP
50
20
00
60
90
80
80
90
60
00
ENDCHAR
STARTCHAR u010D
ENCODING 269
SWIDTH 500 0
DWIDTH 5 0
BBX 5 10 0 -1
BITMAP
00
50
20
00
60
90
80
90
60
00
ENDCHAR
STARTCHAR u010E
ENCODING 270
SWIDTH 500 0
DWIDTH 5 0
BBX 5 10 0 -1
BITMAP
50
20
00
E0
90
90
90
90
E0
00
ENDCHAR
STARTCHAR u010F
ENCODING 271
SWIDTH 500 0
DWIDTH 5 0
BBX 5 10 0 -1
BITMAP
00
00
28
28
20
60
A0
A0
60
00
ENDCHAR
STARTCHAR u0110
ENCODING 272
SWIDTH 500 0
DWIDTH 5 0
BBX 5 10 0 -1
BITMAP
00
00
60
50
50
F0
50
50
60
00
ENDCHAR
STARTCHAR u0111
ENCODING 273
SWIDTH 500 0
DWIDTH 5 0
BBX 5 10 0 -1
BITMAP
00
00
20
70
20
60
A0
A0
60
00
ENDCHAR
STARTCHAR u0112
ENCODING 274
SWIDTH 500 0
DWIDTH 5 0
BBX 5 10 0 -1
BITMAP
00
70
00
F0
80
E0
80
80
F0
00
ENDCHAR
STARTCHAR u0113
ENCODING 275
SWIDTH 500 0
DWIDTH 5 0
BBX 5 10 0 -1
BITMAP
00
00
70
00
60
90
F0
80
60
00
ENDCHAR
STARTCHAR u0114
ENCODING 276
SWIDTH 500 0
DWIDTH 5 0
BBX 5 10 0 -1
BITMAP
90
60
00
F0
80
E0
80
80
F0
00
ENDCHAR
STARTCHAR u0115
ENCODING 277
SWIDTH 500 0
DWIDTH 5 0
BBX 5 10 0 -1
BITMAP
00
90
60
00
60
90
F0
80
60
00
ENDCHAR
STARTCHAR u0116
ENCODING 278
SWIDTH 500 0
DWIDTH 5 0
BBX 5 10 0 -1
BITMAP
00
20
00
F0
80
E0
80
80
F0
00
ENDCHAR
STARTCHAR u0117
ENCODING 279
SWIDTH 500 0
DWIDTH 5 0
BBX 5 10 0 -1
BITMAP
00
00
20
00
60
90
F0
80
60
00
ENDCHAR
STARTCHAR u0118
ENCODING 280
SWIDTH 500 0
DWIDTH 5 0
BBX 5 10 0 -1
BITMAP
00
00
F0
80
80
E0
80
80
F0
18
ENDCHAR
STARTCHAR u0119
ENCODING 281
SWIDTH 500 0
DWIDTH 5 0
BBX 5 10 0 -1
BITMAP
00
00
00
00
60
90
F0
80
60
10
ENDCHAR
STARTCHAR u011A
ENCODING 282
SWIDTH 500 0
DWIDTH 5 0
BBX 5 10 0 -1
BITMAP
50
20
00
F0
80
E0
80
80
F0
00
ENDCHAR
STARTCHAR u011B
ENCODING 283
SWIDTH 500 0
DWIDTH 5 0
BBX 5 10 0 -1
BITMAP
00
50
20
00
60
90
F0
80
60
00
ENDCHAR
STARTCHAR u011C
ENCODING 284
SWIDTH 500 0
DWIDTH 5 0
BBX 5 10 0 -1
BITMAP
20
50
00
60
90
80
B0
90
70
00
ENDCHAR
STARTCHAR u011D
ENCODING 285
SWIDTH 500 0
DWIDTH 5 0
BBX 5 10 0 -1
BITMAP
00
20
50
00
70
90
90
70
10
60
ENDCHAR
STARTCHAR u011E
ENCODING 286
SWIDTH 500 0
DWIDTH 5 0
BBX 5 10 0 -1
BITMAP
90
60
00
60
90
80
B0
90
70
00
ENDCHAR
STARTCHAR u011F
ENCODING 287
SWIDTH 500 0
DWIDTH 5 0
BBX 5 10 0 -1
BITMAP
00
90
60
00
70
90
90
70
10
60
ENDCHAR
STARTCHAR u0120
ENCODING 288
SWIDTH 500 0
DWIDTH 5 0
BBX 5 10 0 -1
BITMAP
00
20
00
60
90
80
B0
90
70
00
ENDCHAR
STARTCHAR u0121
ENCODING 289
SWIDTH 500 0
DWIDTH 5 0
BBX 5 10 0 -1
BITMAP
00
00
20
00
70
90
90
70
10
60
ENDCHAR
STARTCHAR u0122
ENCODING 290
SWIDTH 500 0
DWIDTH 5 0
BBX 5 10 0 -1
BITMAP
00
00
60
90
80
B0
90
70
20
40
ENDCHAR
STARTCHAR u0123
ENCODING 291
SWIDTH 500 0
DWIDTH 5 0
BBX 5 10 0 -1
BITMAP
00
20
40
00
70
90
90
70
10
60
ENDCHAR
STARTCHAR u0124
ENCODING 292
SWIDTH 500 0
DWIDTH 5 0
BBX 5 10 0 -1
BITMAP
20
50
00
90
90
F0
90
90
90
00
ENDCHAR
STARTCHAR u0125
ENCODING 293
SWIDTH 500 0
DWIDTH 5 0
BBX 5 10 0 -1
BITMAP
20
50
00
80
80
E0
90
90
90
00
ENDCHAR
STARTCHAR u0126
ENCODING 294
SWIDTH 500 0
DWIDTH 5 0
BBX 5 10 0 -1
BITMAP
00
00
50
F8
50
70
50
50
50
00
ENDCHAR
STARTCHAR u0127
ENCODING 295
SWIDTH 500 0
DWIDTH 5 0
BBX 5 10 0 -1
BITMAP
00
00
40
E0
40
60
50
50
50
00
ENDCHAR
STARTCHAR u0128
ENCODING 296
SWIDTH 500 0
DWIDTH 5 0
BBX 5 10 0 -1
BITMAP
68
90
00
F0
20
20
20
20
F0
00
ENDCHAR
STARTCHAR u0129
ENCODING 297
SWIDTH 500 0
DWIDTH 5 0
BBX 5 10 0 -1
BITMAP
00
68
90
00
E0
20
20
20
F0
00
ENDCHAR
STARTCHAR u012A
ENCODING 298
SWIDTH 500 0
DWIDTH 5 0
BBX 5 10 0 -1
BITMAP
00
70
00
F0
20
20
20
20
F0
00
ENDCHAR
STARTCHAR u012B
ENCODING 299
SWIDTH 500 0
DWIDTH 5 0
BBX 5 10 0 -1
BITMAP
00
00
70
00
E0
20
20
20
F0
00
ENDCHAR
STARTCHAR u012C
ENCODING 300
SWIDTH 500 0
DWIDTH 5 0
BBX 5 10 0 -1
BITMAP
90
60
00
F0
20
20
20
20
F0
00
ENDCHAR
STARTCHAR u012D
ENCODING 301
SWIDTH 500 0
DWIDTH 5 0
BBX 5 10 0 -1
BITMAP
00
90
60
00
E0
20
20
20
F0
00
ENDCHAR
STARTCHAR u012E
ENCODING 302
SWIDTH 500 0
DWIDTH 5 0
BBX 5 10 0 -1
BITMAP
00
00
F0
20
20
20
20
F0
20
10
ENDCHAR
STARTCHAR u012F
ENCODING 303
SWIDTH 500 0
DWIDTH 5 0
BBX 5 10 0 -1
BITMAP
00
00
20
00
E0
20
20
F0
20
10
ENDCHAR
STARTCHAR u0130
ENCODING 304
SWIDTH 500 0
DWIDTH 5 0
BBX 5 10 0 -1
BITMAP
00
20
00
F0
20
20
20
20
F0
00
ENDCHAR
STARTCHAR u0131
ENCODING 305
SWIDTH 500 0
DWIDTH 5 0
BBX 5 10 0 -1
BITMAP
00
00
00
00
E0
20
20
20
F0
00
ENDCHAR
STARTCHAR u0134
ENCODING 308
SWIDTH 500 0
DWIDTH 5 0
BBX 5 10 0 -1
BITMAP
20
50
00
10
10
10
90
90
60
00
ENDCHAR
STARTCHAR u0135
ENCODING 309
SWIDTH 500 0
DWIDTH 5 0
BBX 5 10 0 -1
BITMAP
00
20
50
00
E0
20
20
20
20
C0
ENDCHAR
STARTCHAR u0136
ENCODING 310
SWIDTH 500 0
DWIDTH 5 0
BBX 5 10 0 -1
BITMAP
00
00
90
A0
C0
A0
90
90
40
80
ENDCHAR
STARTCHAR u0137
ENCODING 311
SWIDTH 500 0
DWIDTH 5 0
BBX 5 10 0 -1
BITMAP
00
00
80
90
A0
C0
A0
90
40
80
ENDCHAR
STARTCHAR u0138
ENCODING 312
SWIDTH 500 0
DWIDTH 5 0
BBX 5 10 0 -1
BITMAP
00
00
00
00
90
A0
C0
A0
90
00
ENDCHAR
STARTCHAR u0139
ENCODING 313
SWIDTH 500 0
DWIDTH 5 0
BBX 5 10 0 -1
BITMAP
40
80
00
80
80
80
80
80
F0
00
ENDCHAR
STARTCHAR u013A
ENCODING 314
SWIDTH 500 0
DWIDTH 5 0
BBX 5 10 0 -1
BITMAP
20
40
00
C0
40
40
40
40
30
00
ENDCHAR
STARTCHAR u013B
ENCODING 315
SWIDTH 500 0
DWIDTH 5 0
BBX 5 10 0 -1
BITMAP
00
00
80
80
80
80
80
F0
20
40
ENDCHAR
STARTCHAR u013C
ENCODING 316
SWIDTH 500 0
DWIDTH 5 0
BBX 5 10 0 -1
BITMAP
00
00
C0
40
40
40
40
30
40
80
ENDCHAR
STARTCHAR u013D
ENCODING 317
SWIDTH 500 0
DWIDTH 5 0
BBX 5 10 0 -1
BITMAP
00
00
A0
A0
80
80
80
80
F0
00
ENDCHAR
STARTCHAR u013E
ENCODING 318
SWIDTH 500 0
DWIDTH 5 0
BBX 5 10 0 -1
BITMAP
00
00
D0
50
40
40
40
40
30
00
ENDCHAR
STARTCHAR u013F
ENCODING 319
SWIDTH 500 0
DWIDTH 5 0
BBX 5 10 0 -1
BITMAP
00
00
80
80
80
A0
80
80
F0
00
ENDCHAR
STARTCHAR u0140
ENCODING 320
SWIDTH 500 0
DWIDTH 5 0
BBX 5 10 0 -1
BITMAP
00
00
C0
40
40
50
40
40
30
00
ENDCHAR
STARTCHAR u0141
ENCODING 321
SWIDTH 500 0
DWIDTH 5 0
BBX 5 10 0 -1
BITMAP
00
00
40
40
50
60
C0
40
70
00
ENDCHAR
STARTCHAR u0142
ENCODING 322
SWIDTH 500 0
DWIDTH 5 0
BBX 5 10 0 -1
BITMAP
00
00
C0
40
50
60
C0
40
30
00
ENDCHAR
STARTCHAR u0143
ENCODING 323
SWIDTH 500 0
DWIDTH 5 0
BBX 5 10 0 -1
BITMAP
20
40
00
90
D0
D0
B0
B0
90
00
ENDCHAR
STARTCHAR u0144
ENCODING 324
SWIDTH 500 0
DWIDTH 5 0
BBX 5 10 0 -1
BITMAP
00
20
40
00
E0
90
90
90
90
00
ENDCHAR
STARTCHAR u0145
ENCODING 325
SWIDTH 500 0
DWIDTH 5 0
BBX 5 10 0 -1
BITMAP
00
00
90
D0
D0
B0
B0
90
40
80
ENDCHAR
STARTCHAR u0146
ENCODING 326
SWIDTH 500 0
DWIDTH 5 0
BBX 5 10 0 -1
BITMAP
00
00
00
00
E0
90
90
90
40
80
ENDCHAR
STARTCHAR u0147
ENCODING 327
SWIDTH 500 0
DWIDTH 5 0
BBX 5 10 0 -1
BITMAP
50
20
00
90
D0
D0
B0
B0
90
00
ENDCHAR
STARTCHAR u0148
ENCODING 328
SWIDTH 500 0
DWIDTH 5 0
BBX 5 10 0 -1
BITMAP
00
50
20
00
E0
90
90
90
90
00
ENDCHAR
STARTCHAR u0149
ENCODING 329
SWIDTH 500 0
DWIDTH 5 0
BBX 5 10 0 -1
BITMAP
00
40
80
00
E0
90
90
90
90
00
ENDCHAR
STARTCHAR u014A
ENCODING 330
SWIDTH 500 0
DWIDTH 5 0
BBX 5 10 0 -1
BITMAP
00
00
90
D0
D0
B0
B0
90
10
60
ENDCHAR
STARTCHAR u014B
ENCODING 331
SWIDTH 500 0
DWIDTH 5 0
BBX 5 10 0 -1
BITMAP
00
00
00
00
E0
90
90
90
10
60
ENDCHAR
STARTCHAR u014C
ENCODING 332
SWIDTH 500 0
DWIDTH 5 0
BBX 5 10 0 -1
BITMAP
00
70
00
60
90
90
90
90
60
00
ENDCHAR
STARTCHAR u014D
ENCODING 333
SWIDTH 500 0
DWIDTH 5 0
BBX 5 10 0 -1
BITMAP
00
00
70
00
60
90
90
90
60
00
ENDCHAR
STARTCHAR u014E
ENCODING 334
SWIDTH 500 0
DWIDTH 5 0
BBX 5 10 0 -1
BITMAP
90
60
00
60
90
90
90
90
60
00
ENDCHAR
STARTCHAR u014F
ENCODING 335
SWIDTH 500 0
DWIDTH 5 0
BBX 5 10 0 -1
BITMAP
00
90
60
00
60
90
90
90
60
00
ENDCHAR
STARTCHAR u0150
ENCODING 336
SWIDTH 500 0
DWIDTH 5 0
BBX 5 10 0 -1
BITMAP
50
A0
00
60
90
90
90
90
60
00
ENDCHAR
STARTCHAR u0151
ENCODING 337
SWIDTH 500 0
DWIDTH 5 0
BBX 5 10 0 -1
BITMAP
00
50
A0
00
60
90
90
90
60
00
ENDCHAR
STARTCHAR u0152
ENCODING 338
SWIDTH 500 0
DWIDTH 5 0
BBX 5 10 0 -1
BITMAP
00
00
70
A0
A0
B0
A0
A0
70
00
ENDCHAR
STARTCHAR u0153
ENCODING 339
SWIDTH 500 0
DWIDTH 5 0
BBX 5 10 0 -1
BITMAP
00
00
00
00
60
D0
B0
A0
50
00
ENDCHAR
STARTCHAR u0154
ENCODING 340
SWIDTH 500 0
DWIDTH 5 0
BBX 5 10 0 -1
BITMAP
20
40
00
E0
90
90
E0
A0
90
00
ENDCHAR
STARTCHAR u0155
ENCODING 341
SWIDTH 500 0
DWIDTH 5 0
BBX 5 10 0 -1
BITMAP
00
20
40
00
B0
C0
80
80
80
00
ENDCHAR
STARTCHAR u0156
ENCODING 342
SWIDTH 500 0
DWIDTH 5 0
BBX 5 10 0 -1
BITMAP
00
00
E0
90
90
E0
A0
90
40
80
ENDCHAR
STARTCHAR u0157
ENCODING 343
SWIDTH 500 0
DWIDTH 5 0
BBX 5 10 0 -1
BITMAP
00
00
00
00
B0
C0
80
80
20
40
ENDCHAR
STARTCHAR u0158
ENCODING 344
SWIDTH 500 0
DWIDTH 5 0
BBX 5 10 0 -1
BITMAP
50
20
00
E0
90
90
E0
A0
90
00
ENDCHAR
STARTCHAR u0159
ENCODING 345
SWIDTH 500 0
DWIDTH 5 0
BBX 5 10 0 -1
BITMAP
00
50
20
00
B0
C0
80
80
80
00
ENDCHAR
STARTCHAR u015A
ENCODING 346
SWIDTH 500 0
DWIDTH 5 0
BBX 5 10 0 -1
BITMAP
10
20
00
70
80
60
10
90
60
00
ENDCHAR
STARTCHAR u015B
ENCODING 347
SWIDTH 500 0
DWIDTH 5 0
BBX 5 10 0 -1
BITMAP
00
20
40
00
70
80
60
10
E0
00
ENDCHAR
STARTCHAR u015C
ENCODING 348
SWIDTH 500 0
DWIDTH 5 0
BBX 5 10 0 -1
BITMAP
20
50
00
70
80
60
10
90
60
00
ENDCHAR
STARTCHAR u015D
ENCODING 349
SWIDTH 500 0
DWIDTH 5 0
BBX 5 10 0 -1
BITMAP
00
20
50
00
70
80
60
10
E0
00
ENDCHAR
STARTCHAR u015E
ENCODING 350
SWIDTH 500 0
DWIDTH 5 0
BBX 5 10 0 -1
BITMAP
00
00
70
80
60
10
90
60
20
40
ENDCHAR
STARTCHAR u015F
ENCODING 351
SWIDTH 500 0
DWIDTH 5 0
BBX 5 10 0 -1
BITMAP
00
00
00
00
70
80
60
10
E0
40
ENDCHAR
STARTCHAR u0160
ENCODING 352
SWIDTH 500 0
DWIDTH 5 0
BBX 5 10 0 -1
BITMAP
50
20
00
70
80
60
10
90
60
00
ENDCHAR
STARTCHAR u0161
ENCODING 353
SWIDTH 500 0
DWIDTH 5 0
BBX 5 10 0 -1
BITMAP
00
50
20
00
70
80
60
10
E0
00
ENDCHAR
STARTCHAR u0162
ENCODING 354
SWIDTH 500 0
DWIDTH 5 0
BBX 5 10 0 -1
BITMAP
00
00
F0
20
20
20
20
20
10
20
ENDCHAR
STARTCHAR u0163
ENCODING 355
SWIDTH 500 0
DWIDTH 5 0
BBX 5 10 0 -1
BITMAP
00
00
40
40
F0
40
40
40
30
60
ENDCHAR
STARTCHAR u0164
ENCODING 356
SWIDTH 500 0
DWIDTH 5 0
BBX 5 10 0 -1
BITMAP
50
20
00
F0
20
20
20
20
20
00
ENDCHAR
STARTCHAR u0165
ENCODING 357
SWIDTH 500 0
DWIDTH 5 0
BBX 5 10 0 -1
BITMAP
00
10
50
40
F0
40
40
40
30
00
ENDCHAR
STARTCHAR u0166
ENCODING 358
SWIDTH 500 0
DWIDTH 5 0
BBX 5 10 0 -1
BITMAP
00
00
F0
20
20
70
20
20
20
00
ENDCHAR
STARTCHAR u0167
ENCODING 359
SWIDTH 500 0
DWIDTH 5 0
BBX 5 10 0 -1
BITMAP
00
00
40
40
F0
40
F0
40
30
00
ENDCHAR
STARTCHAR u0168
ENCODING 360
SWIDTH 500 0
DWIDTH 5 0
BBX 5 10 0 -1
BITMAP
68
90
00
90
90
90
90
90
60
00
ENDCHAR
STARTCHAR u0169
ENCODING 361
SWIDTH 500 0
DWIDTH 5 0
BBX 5 10 0 -1
BITMAP
00
68
90
00
90
90
90
90
70
00
ENDCHAR
STARTCHAR u016A
ENCODING 362
SWIDTH 500 0
DWIDTH 5 0
BBX 5 10 0 -1
BITMAP
00
70
00
90
90
90
90
90
60
00
ENDCHAR
STARTCHAR u016B
ENCODING 363
SWIDTH 500 0
DWIDTH 5 0
BBX 5 10 0 -1
BITMAP
00
00
70
00
90
90
90
90
70
00
ENDCHAR
STARTCHAR u016C
ENCODING 364
SWIDTH 500 0
DWIDTH 5 0
BBX 5 10 0 -1
BITMAP
90
60
00
90
90
90
90
90
60
00
ENDCHAR
STARTCHAR u016D
ENCODING 365
SWIDTH 500 0
DWIDTH 5 0
BBX 5 10 0 -1
BITMAP
00
90
60
00
90
90
90
90
70
00
ENDCHAR
STARTCHAR u016E
ENCODING 366
SWIDTH 500 0
DWIDTH 5 0
BBX 5 10 0 -1
BITMAP
20
50
20
90
90
90
90
90
60
00
ENDCHAR
STARTCHAR u016F
ENCODING 367
SWIDTH 500 0
DWIDTH 5 0
BBX 5 10 0 -1
BITMAP
20
50
20
00
90
90
90
90
70
00
ENDCHAR
STARTCHAR u0170
ENCODING 368
SWIDTH 500 0
DWIDTH 5 0
BBX 5 10 0 -1
BITMAP
50
A0
00
90
90
90
90
90
60
00
ENDCHAR
STARTCHAR u0171
ENCODING 369
SWIDTH 500 0
DWIDTH 5 0
BBX 5 10 0 -1
BITMAP
00
50
A0
00
90
90
90
90
70
00
ENDCHAR
STARTCHAR u0172
ENCODING 370
SWIDTH 500 0
DWIDTH 5 0
BBX 5 10 0 -1
BITMAP
00
00
90
90
90
90
90
60
20
10
ENDCHAR
STARTCHAR u0173
ENCODING 371
SWIDTH 500 0
DWIDTH 5 0
BBX 5 10 0 -1
BITMAP
00
00
00
00
90
90
90
90
60
10
ENDCHAR
STARTCHAR u0174
ENCODING 372
SWIDTH 500 0
DWIDTH 5 0
BBX 5 10 0 -1
BITMAP
20
50
00
90
90
90
F0
F0
90
00
ENDCHAR
STARTCHAR u0175
ENCODING 373
SWIDTH 500 0
DWIDTH 5 0
BBX 5 10 0 -1
BITMAP
00
20
50
00
90
90
F0
F0
90
00
ENDCHAR
STARTCHAR u0176
ENCODING 374
SWIDTH 500 0
DWIDTH 5 0
BBX 5 10 0 -1
BITMAP
20
50
00
90
50
50
20
20
20
00
ENDCHAR
STARTCHAR u0177
ENCODING 375
SWIDTH 500 0
DWIDTH 5 0
BBX 5 10 0 -1
BITMAP
00
20
50
00
90
90
50
50
20
C0
ENDCHAR
STARTCHAR u0178
ENCODING 376
SWIDTH 500 0
DWIDTH 5 0
BBX 5 10 0 -1
BITMAP
00
50
00
90
50
50
20
20
20
00
ENDCHAR
STARTCHAR u0179
ENCODING 377
SWIDTH 500 0
DWIDTH 5 0
BBX 5 10 0 -1
BITMAP
20
40
00
F0
10
20
40
80
F0
00
ENDCHAR
STARTCHAR u017A
ENCODING 378
SWIDTH 500 0
DWIDTH 5 0
BBX 5 10 0 -1
BITMAP
00
20
40
00
F0
20
40
80
F0
00
ENDCHAR
STARTCHAR u017B
ENCODING 379
SWIDTH 500 0
DWIDTH 5 0
BBX 5 10 0 -1
BITMAP
00
20
00
F0
10
20
40
80
F0
00
ENDCHAR
STARTCHAR u017C
ENCODING 380
SWIDTH 500 0
DWIDTH 5 0
BBX 5 10 0 -1
BITMAP
00
00
20
00
F0
20
40
80
F0
00
ENDCHAR
STARTCHAR u017D
ENCODING 381
SWIDTH 500 0
DWIDTH 5 0
BBX 5 10 0 -1
BITMAP
50
20
00
F0
10
20
40
80
F0
00
ENDCHAR
STARTCHAR u017E
ENCODING 382
SWIDTH 500 0
DWIDTH 5 0
BBX 5 10 0 -1
BITMAP
00
50
20
00
F0
20
40
80
F0
00
ENDCHAR
STARTCHAR u017F
ENCODING 383
SWIDTH 500 0
DWIDTH 5 0
BBX 5 10 0 -1
BITMAP
00
00
30
40
C0
40
40
40
40
00
ENDCHAR
STARTCHAR u0180
ENCODING 384
SWIDTH 500 0
DWIDTH 5 0
BBX 5 10 0 -1
BITMAP
00
00
40
E0
40
60
50
50
60
00
ENDCHAR
STARTCHAR u0182
ENCODING 386
SWIDTH 500 0
DWIDTH 5 0
BBX 5 10 0 -1
BITMAP
00
00
E0
80
80
E0
90
90
E0
00
ENDCHAR
STARTCHAR u0183
ENCODING 387
SWIDTH 500 0
DWIDTH 5 0
BBX 5 10 0 -1
BITMAP
00
00
E0
80
E0
90
90
90
E0
00
ENDCHAR
STARTCHAR u0186
ENCODING 390
SWIDTH 500 0
DWIDTH 5 0
BBX 5 10 0 -1
BITMAP
00
00
60
90
10
10
10
90
60
00
ENDCHAR
STARTCHAR u0189
ENCODING 393
SWIDTH 500 0
DWIDTH 5 0
BBX 5 10 0 -1
BITMAP
00
00
60
50
50
F0
50
50
60
00
ENDCHAR
STARTCHAR u018B
ENCODING 395
SWIDTH 500 0
DWIDTH 5 0
BBX 5 10 0 -1
BITMAP
00
00
70
10
10
70
90
90
70
00
ENDCHAR
STARTCHAR u018C
ENCODING 396
SWIDTH 500 0
DWIDTH 5 0
BBX 5 10 0 -1
BITMAP
00
00
70
10
70
90
90
90
70
00
ENDCHAR
STARTCHAR u018E
ENCODING 398
SWIDTH 500 0
DWIDTH 5 0
BBX 5 10 0 -1
BITMAP
00
00
F0
10
10
70
10
10
F0
00
ENDCHAR
STARTCHAR u018F
ENCODING 399
SWIDTH 500 0
DWIDTH 5 0
BBX 5 10 0 -1
BITMAP
00
00
60
90
10
F0
90
90
60
00
ENDCHAR
STARTCHAR u0191
ENCODING 401
SWIDTH 500 0
DWIDTH 5 0
BBX 5 10 0 -1
BITMAP
00
00
70
40
40
70
40
40
40
80
ENDCHAR
STARTCHAR u0192
ENCODING 402
SWIDTH 500 0
DWIDTH 5 0
BBX 5 10 0 -1
BITMAP
00
00
30
40
F0
40
40
40
40
80
ENDCHAR
STARTCHAR u019A
ENCODING 410
SWIDTH 500 0
DWIDTH 5 0
BBX 5 10 0 -1
BITMAP
00
00
C0
40
40
F0
40
40
30
00
ENDCHAR
STARTCHAR u019E
ENCODING 414
SWIDTH 500 0
DWIDTH 5 0
BBX 5 10 0 -1
BITMAP
00
00
00
00
E0
90
90
90
10
10
ENDCHAR
STARTCHAR u019F
ENCODING 415
SWIDTH 500 0
DWIDTH 5 0
BBX 5 10 0 -1
BITMAP
00
00
60
90
90
F0
90
90
60
00
ENDCHAR
STARTCHAR u01A0
ENCODING 416
SWIDTH 500 0
DWIDTH 5 0
BBX 5 10 0 -1
BITMAP
00
08
68
90
90
90
90
90
60
00
ENDCHAR
STARTCHAR u01A1
ENCODING 417
SWIDTH 500 0
DWIDTH 5 0
BBX 5 10 0 -1
BITMAP
00
00
00
08
68
90
90
90
60
00
ENDCHAR
STARTCHAR u01A7
ENCODING 423
SWIDTH 500 0
DWIDTH 5 0
BBX 5 10 0 -1
BITMAP
00
00
60
90
10
60
80
90
60
00
ENDCHAR
STARTCHAR u01A8
ENCODING 424
SWIDTH 500 0
DWIDTH 5 0
BBX 5 10 0 -1
BITMAP
00
00
00
00
E0
10
60
80
70
00
ENDCHAR
STARTCHAR u01A9
ENCODING 425
SWIDTH 500 0
DWIDTH 5 0
BBX 5 10 0 -1
BITMAP
00
00
F0
80
40
20
40
80
F0
00
ENDCHAR
STARTCHAR u01AF
ENCODING 431
SWIDTH 500 0
DWIDTH 5 0
BBX 5 10 0 -1
BITMAP
00
08
88
90
90
90
90
90
60
00
ENDCHAR
STARTCHAR u01B0
ENCODING 432
SWIDTH 500 0
DWIDTH 5 0
BBX 5 10 0 -1
BITMAP
00
00
08
08
90
90
90
90
70
00
ENDCHAR
STARTCHAR u01B1
ENCODING 433
SWIDTH 500 0
DWIDTH 5 0
BBX 5 10 0 -1
BITMAP
00
00
F0
60
90
90
90
90
60
00
ENDCHAR
STARTCHAR u01CD
ENCODING 461
SWIDTH 500 0
DWIDTH 5 0
BBX 5 10 0 -1
BITMAP
50
20
00
60
90
90
F0
90
90
00
ENDCHAR
STARTCHAR u01CE
ENCODING 462
SWIDTH 500 0
DWIDTH 5 0
BBX 5 10 0 -1
BITMAP
00
50
20
00
60
10
70
90
70
00
ENDCHAR
STARTCHAR u01CF
ENCODING 463
SWIDTH 500 0
DWIDTH 5 0
BBX 5 10 0 -1
BITMAP
50
20
00
F0
20
20
20
20
F0
00
ENDCHAR
STARTCHAR u01D0
ENCODING 464
SWIDTH 500 0
DWIDTH 5 0
BBX 5 10 0 -1
BITMAP
00
50
20
00
E0
20
20
20
F0
00
ENDCHAR
STARTCHAR u01D1
ENCODING 465
SWIDTH 500 0
DWIDTH 5 0
BBX 5 10 0 -1
BITMAP
50
20
00
60
90
90
90
90
60
00
ENDCHAR
STARTCHAR u01D2
ENCODING 466
SWIDTH 500 0
DWIDTH 5 0
BBX 5 10 0 -1
BITMAP
00
50
20
00
60
90
90
90
60
00
ENDCHAR
STARTCHAR u01D3
ENCODING 467
SWIDTH 500 0
DWIDTH 5 0
BBX 5 10 0 -1
BITMAP
50
20
00
90
90
90
90
90
60
00
ENDCHAR
STARTCHAR u01D4
ENCODING 468
SWIDTH 500 0
DWIDTH 5 0
BBX 5 10 0 -1
BITMAP
00
50
20
00
90
90
90
90
70
00
ENDCHAR
STARTCHAR u01D5
ENCODING 469
SWIDTH 500 0
DWIDTH 5 0
BBX 5 10 0 -1
BITMAP
70
00
90
00
90
90
90
90
60
00
ENDCHAR
STARTCHAR u01D6
ENCODING 470
SWIDTH 500 0
DWIDTH 5 0
BBX 5 10 0 -1
BITMAP
00
70
00
90
00
90
90
90
70
00
ENDCHAR
STARTCHAR u01D7
ENCODING 471
SWIDTH 500 0
DWIDTH 5 0
BBX 5 10 0 -1
BITMAP
20
40
90
00
90
90
90
90
60
00
ENDCHAR
STARTCHAR u01D8
ENCODING 472
SWIDTH 500 0
DWIDTH 5 0
BBX 5 10 0 -1
BITMAP
10
20
00
90
00
90
90
90
70
00
ENDCHAR
STARTCHAR u01D9
ENCODING 473
SWIDTH 500 0
DWIDTH 5 0
BBX 5 10 0 -1
BITMAP
50
20
90
00
90
90
90
90
60
00
ENDCHAR
STARTCHAR u01DA
ENCODING 474
SWIDTH 500 0
DWIDTH 5 0
BBX 5 10 0 -1
BITMAP
50
20
00
90
00
90
90
90
70
00
ENDCHAR
STARTCHAR u01DB
ENCODING 475
SWIDTH 500 0
DWIDTH 5 0
BBX 5 10 0 -1
BITMAP
40
20
90
00
90
90
90
90
60
00
ENDCHAR
STARTCHAR u01DC
ENCODING 476
SWIDTH 500 0
DWIDTH 5 0
BBX 5 10 0 -1
BITMAP
40
20
00
90
00
90
90
90
70
00
ENDCHAR
STARTCHAR u01DD
ENCODING 477
SWIDTH 500 0
DWIDTH 5 0
BBX 5 10 0 -1
BITMAP
00
00
00
00
60
10
F0
90
60
00
ENDCHAR
STARTCHAR u01DE
ENCODING 478
SWIDTH 500 0
DWIDTH 5 0
BBX 5 10 0 -1
BITMAP
70
00
50
00
60
90
F0
90
90
00
ENDCHAR
STARTCHAR u01DF
ENCODING 479
SWIDTH 500 0
DWIDTH 5 0
BBX 5 10 0 -1
BITMAP
70
00
50
00
60
10
70
90
70
00
ENDCHAR
STARTCHAR u01E0
ENCODING 480
SWIDTH 500 0
DWIDTH 5 0
BBX 5 10 0 -1
BITMAP
70
00
20
00
60
90
F0
90
90
00
ENDCHAR
STARTCHAR u01E1
ENCODING 481
SWIDTH 500 0
DWIDTH 5 0
BBX 5 10 0 -1
BITMAP
70
00
20
00
60
10
70
90
70
00
ENDCHAR
STARTCHAR u01E2
ENCODING 482
SWIDTH 500 0
DWIDTH 5 0
BBX 5 10 0 -1
BITMAP
00
70
00
70
A0
B0
E0
A0
B0
00
ENDCHAR
STARTCHAR u01E3
ENCODING 483
SWIDTH 500 0
DWIDTH 5 0
BBX 5 10 0 -1
BITMAP
00
00
70
00
A0
50
F0
A0
70
00
ENDCHAR
STARTCHAR u01E6
ENCODING 486
SWIDTH 500 0
DWIDTH 5 0
BBX 5 10 0 -1
BITMAP
50
20
00
60
90
80
B0
90
70
00
ENDCHAR
STARTCHAR u01E7
ENCODING 487
SWIDTH 500 0
DWIDTH 5 0
BBX 5 10 0 -1
BITMAP
00
50
20
00
70
90
90
70
10
60
ENDCHAR
STARTCHAR u01E8
ENCODING 488
SWIDTH 500 0
DWIDTH 5 0
BBX 5 10 0 -1
BITMAP
50
20
00
90
A0
C0
A0
90
90
00
ENDCHAR
STARTCHAR u01E9
ENCODING 489
SWIDTH 500 0
DWIDTH 5 0
BBX 5 10 0 -1
BITMAP
50
20
80
80
90
A0
C0
A0
90
00
ENDCHAR
STARTCHAR u01EA
ENCODING 490
SWIDTH 500 0
DWIDTH 5 0
BBX 5 10 0 -1
BITMAP
00
00
60
90
90
90
90
60
20
10
ENDCHAR
STARTCHAR u01EB
ENCODING 491
SWIDTH 500 0
DWIDTH 5 0
BBX 5 10 0 -1
BITMAP
00
00
00
00
60
90
90
90
60
30
ENDCHAR
STARTCHAR u01EC
ENCODING 492
SWIDTH 500 0
DWIDTH 5 0
BBX 5 10 0 -1
BITMAP
00
70
00
60
90
90
90
60
20
10
ENDCHAR
STARTCHAR u01ED
ENCODING 493
SWIDTH 500 0
DWIDTH 5 0
BBX 5 10 0 -1
BITMAP
00
00
70
00
60
90
90
90
60
30
ENDCHAR
STARTCHAR u01F0
ENCODING 496
SWIDTH 500 0
DWIDTH 5 0
BBX 5 10 0 -1
BITMAP
00
50
20
00
E0
20
20
20
20
C0
ENDCHAR
STARTCHAR u01F4
ENCODING 500
SWIDTH 500 0
DWIDTH 5 0
BBX 5 10 0 -1
BITMAP
20
40
00
60
90
80
B0
90
70
00
ENDCHAR
STARTCHAR u01F5
ENCODING 501
SWIDTH 500 0
DWIDTH 5 0
BBX 5 10 0 -1
BITMAP
00
20
40
00
70
90
90
70
10
60
ENDCHAR
STARTCHAR u01F8
ENCODING 504
SWIDTH 500 0
DWIDTH 5 0
BBX 5 10 0 -1
BITMAP
40
20
00
90
D0
D0
B0
B0
90
00
ENDCHAR
STARTCHAR u01F9
ENCODING 505
SWIDTH 500 0
DWIDTH 5 0
BBX 5 10 0 -1
BITMAP
00
40
20
00
E0
90
90
90
90
00
ENDCHAR
STARTCHAR u01FA
ENCODING 506
SWIDTH 500 0
DWIDTH 5 0
BBX 5 10 0 -1
BITMAP
10
20
50
20
60
90
F0
90
90
00
ENDCHAR
STARTCHAR u01FB
ENCODING 507
SWIDTH 500 0
DWIDTH 5 0
BBX 5 10 0 -1
BITMAP
10
20
50
20
60
10
70
90
70
00
ENDCHAR
STARTCHAR u01FC
ENCODING 508
SWIDTH 500 0
DWIDTH 5 0
BBX 5 10 0 -1
BITMAP
20
40
00
70
A0
B0
E0
A0
B0
00
ENDCHAR
STARTCHAR u01FD
ENCODING 509
SWIDTH 500 0
DWIDTH 5 0
BBX 5 10 0 -1
BITMAP
00
20
40
00
A0
50
F0
A0
70
00
ENDCHAR
STARTCHAR u01FE
ENCODING 510
SWIDTH 500 0
DWIDTH 5 0
BBX 5 10 0 -1
BITMAP
20
40
10
60
90
B0
D0
90
60
80
ENDCHAR
STARTCHAR u01FF
ENCODING 511
SWIDTH 500 0
DWIDTH 5 0
BBX 5 10 0 -1
BITMAP
00
20
40
10
60
90
F0
90
60
80
ENDCHAR
STARTCHAR u0200
ENCODING 512
SWIDTH 500 0
DWIDTH 5 0
BBX 5 10 0 -1
BITMAP
A0
50
00
60
90
90
F0
90
90
00
ENDCHAR
STARTCHAR u0201
ENCODING 513
SWIDTH 500 0
DWIDTH 5 0
BBX 5 10 0 -1
BITMAP
00
A0
50
00
60
10
70
90
70
00
ENDCHAR
STARTCHAR u0202
ENCODING 514
SWIDTH 500 0
DWIDTH 5 0
BBX 5 10 0 -1
BITMAP
60
90
00
60
90
90
F0
90
90
00
ENDCHAR
STARTCHAR u0203
ENCODING 515
SWIDTH 500 0
DWIDTH 5 0
BBX 5 10 0 -1
BITMAP
00
60
90
00
60
10
70
90
70
00
ENDCHAR
STARTCHAR u0204
ENCODING 516
SWIDTH 500 0
DWIDTH 5 0
BBX 5 10 0 -1
BITMAP
A0
50
00
F0
80
E0
80
80
F0
00
ENDCHAR
STARTCHAR u0205
ENCODING 517
SWIDTH 500 0
DWIDTH 5 0
BBX 5 10 0 -1
BITMAP
00
A0
50
00
60
90
F0
80
60
00
ENDCHAR
STARTCHAR u0206
ENCODING 518
SWIDTH 500 0
DWIDTH 5 0
BBX 5 10 0 -1
BITMAP
60
90
00
F0
80
E0
80
80
F0
00
ENDCHAR
STARTCHAR u0207
ENCODING 519
SWIDTH 500 0
DWIDTH 5 0
BBX 5 10 0 -1
BITMAP
00
60
90
00
60
90
F0
80
60
00
ENDCHAR
STARTCHAR u0208
ENCODING 520
SWIDTH 500 0
DWIDTH 5 0
BBX 5 10 0 -1
BITMAP
A0
50
00
F0
20
20
20
20
F0
00
ENDCHAR
STARTCHAR u0209
ENCODING 521
SWIDTH 500 0
DWIDTH 5 0
BBX 5 10 0 -1
BITMAP
00
A0
50
00
E0
20
20
20
F0
00
ENDCHAR
STARTCHAR u020A
ENCODING 522
SWIDTH 500 0
DWIDTH 5 0
BBX 5 10 0 -1
BITMAP
60
90
00
F0
20
20
20
20
F0
00
ENDCHAR
STARTCHAR u020B
ENCODING 523
SWIDTH 500 0
DWIDTH 5 0
BBX 5 10 0 -1
BITMAP
00
60
90
00
E0
20
20
20
F0
00
ENDCHAR
STARTCHAR u020C
ENCODING 524
SWIDTH 500 0
DWIDTH 5 0
BBX 5 10 0 -1
BITMAP
A0
50
00
60
90
90
90
90
60
00
ENDCHAR
STARTCHAR u020D
ENCODING 525
SWIDTH 500 0
DWIDTH 5 0
BBX 5 10 0 -1
BITMAP
00
A0
50
00
60
90
90
90
60
00
ENDCHAR
STARTCHAR u020E
ENCODING 526
SWIDTH 500 0
DWIDTH 5 0
BBX 5 10 0 -1
BITMAP
60
90
00
60
90
90
90
90
60
00
ENDCHAR
STARTCHAR u020F
ENCODING 527
SWIDTH 500 0
DWIDTH 5 0
BBX 5 10 0 -1
BITMAP
00
60
90
00
60
90
90
90
60
00
ENDCHAR
STARTCHAR u0210
ENCODING 528
SWIDTH 500 0
DWIDTH 5 0
BBX 5 10 0 -1
BITMAP
A0
50
00
E0
90
90
E0
A0
90
00
ENDCHAR
STARTCHAR u0211
ENCODING 529
SWIDTH 500 0
DWIDTH 5 0
BBX 5 10 0 -1
BITMAP
00
A0
50
00
B0
C0
80
80
80
00
ENDCHAR
STARTCHAR u0212
ENCODING 530
SWIDTH 500 0
DWIDTH 5 0
BBX 5 10 0 -1
BITMAP
60
90
00
E0
90
90
E0
A0
90
00
ENDCHAR
STARTCHAR u0213
ENCODING 531
SWIDTH 500 0
DWIDTH 5 0
BBX 5 10 0 -1
BITMAP
00
60
90
00
B0
C0
80
80
80
00
ENDCHAR
STARTCHAR u0214
ENCODING 532
SWIDTH 500 0
DWIDTH 5 0
BBX 5 10 0 -1
BITMAP
A0
50
00
90
90
90
90
90
60
00
ENDCHAR
STARTCHAR u0215
ENCODING 533
SWIDTH 500 0
DWIDTH 5 0
BBX 5 10 0 -1
BITMAP
00
A0
50
00
90
90
90
90
70
00
ENDCHAR
STARTCHAR u0216
ENCODING 534
SWIDTH 500 0
DWIDTH 5 0
BBX 5 10 0 -1
BITMAP
60
90
00
90
90
90
90
90
60
00
ENDCHAR
STARTCHAR u0217
ENCODING 535
SWIDTH 500 0
DWIDTH 5 0
BBX 5 10 0 -1
BITMAP
00
60
90
00
90
90
90
90
70
00
ENDCHAR
STARTCHAR u0218
ENCODING 536
SWIDTH 500 0
DWIDTH 5 0
BBX 5 10 0 -1
BITMAP
00
00
70
80
60
10
90
60
20
40
ENDCHAR
STARTCHAR u0219
ENCODING 537
SWIDTH 500 0
DWIDTH 5 0
BBX 5 10 0 -1
BITMAP
00
00
00
00
70
80
60
10
E0
40
ENDCHAR
STARTCHAR u021A
ENCODING 538
SWIDTH 500 0
DWIDTH 5 0
BBX 5 10 0 -1
BITMAP
00
00
F0
20
20
20
20
00
20
40
ENDCHAR
STARTCHAR u021B
ENCODING 539
SWIDTH 500 0
DWIDTH 5 0
BBX 5 10 0 -1
BITMAP
00
00
40
40
F0
40
40
40
30
40
ENDCHAR
STARTCHAR u021E
ENCODING 542
SWIDTH 500 0
DWIDTH 5 0
BBX 5 10 0 -1
BITMAP
50
20
00
90
90
F0
90
90
90
00
ENDCHAR
STARTCHAR u021F
ENCODING 543
SWIDTH 500 0
DWIDTH 5 0
BBX 5 10 0 -1
BITMAP
50
20
00
80
80
E0
90
90
90
00
ENDCHAR
STARTCHAR u0220
ENCODING 544
SWIDTH 500 0
DWIDTH 5 0
BBX 5 10 0 -1
BITMAP
00
00
E0
90
90
90
90
90
10
10
ENDCHAR
STARTCHAR u0226
ENCODING 550
SWIDTH 500 0
DWIDTH 5 0
BBX 5 10 0 -1
BITMAP
00
20
00
60
90
90
F0
90
90
00
ENDCHAR
STARTCHAR u0227
ENCODING 551
SWIDTH 500 0
DWIDTH 5 0
BBX 5 10 0 -1
BITMAP
00
00
20
00
60
10
70
90
70
00
ENDCHAR
STARTCHAR u0228
ENCODING 552
SWIDTH 500 0
DWIDTH 5 0
BBX 5 10 0 -1
BITMAP
00
00
F0
80
E0
80
80
F0
20
40
ENDCHAR
STARTCHAR u0229
ENCODING 553
SWIDTH 500 0
DWIDTH 5 0
BBX 5 10 0 -1
BITMAP
00
00
00
00
60
90
F0
80
60
C0
ENDCHAR
STARTCHAR u022A
ENCODING 554
SWIDTH 500 0
DWIDTH 5 0
BBX 5 10 0 -1
BITMAP
70
00
50
00
60
90
90
90
60
00
ENDCHAR
STARTCHAR u022B
ENCODING 555
SWIDTH 500 0
DWIDTH 5 0
BBX 5 10 0 -1
BITMAP
70
00
50
00
60
90
90
90
60
00
ENDCHAR
STARTCHAR u022C
ENCODING 556
SWIDTH 500 0
DWIDTH 5 0
BBX 5 10 0 -1
BITMAP
70
00
68
90
60
90
90
90
60
00
ENDCHAR
STARTCHAR u022D
ENCODING 557
SWIDTH 500 0
DWIDTH 5 0
BBX 5 10 0 -1
BITMAP
70
00
68
90
00
60
90
90
60
00
ENDCHAR
STARTCHAR u022E
ENCODING 558
SWIDTH 500 0
DWIDTH 5 0
BBX 5 10 0 -1
BITMAP
00
20
00
60
90
90
90
90
60
00
ENDCHAR
STARTCHAR u022F
ENCODING 559
SWIDTH 500 0
DWIDTH 5 0
BBX 5 10 0 -1
BITMAP
00
00
20
00
60
90
90
90
60
00
ENDCHAR
STARTCHAR u0230
ENCODING 560
SWIDTH 500 0
DWIDTH 5 0
BBX 5 10 0 -1
BITMAP
70
00
20
00
60
90
90
90
60
00
ENDCHAR
STARTCHAR u0231
ENCODING 561
SWIDTH 500 0
DWIDTH 5 0
BBX 5 10 0 -1
BITMAP
70
00
20
00
60
90
90
90
60
00
ENDCHAR
STARTCHAR u0232
ENCODING 562
SWIDTH 500 0
DWIDTH 5 0
BBX 5 10 0 -1
BITMAP
00
70
00
90
50
50
20
20
20
00
ENDCHAR
STARTCHAR u0233
ENCODING 563
SWIDTH 500 0
DWIDTH 5 0
BBX 5 10 0 -1
BITMAP
00
00
70
00
90
90
50
50
20
C0
ENDCHAR
STARTCHAR u0237
ENCODING 567
SWIDTH 500 0
DWIDTH 5 0
BBX 5 10 0 -1
BITMAP
00
00
00
00
E0
20
20
20
20
C0
ENDCHAR
STARTCHAR u023D
ENCODING 573
SWIDTH 500 0
DWIDTH 5 0
BBX 5 10 0 -1
BITMAP
00
00
40
40
40
F0
40
40
70
00
ENDCHAR
STARTCHAR u0244
ENCODING 580
SWIDTH 500 0
DWIDTH 5 0
BBX 5 10 0 -1
BITMAP
00
00
90
90
90
F8
90
90
60
00
ENDCHAR
STARTCHAR u0245
ENCODING 581
SWIDTH 500 0
DWIDTH 5 0
BBX 5 10 0 -1
BITMAP
00
00
C0
A0
A0
A0
90
90
90
00
ENDCHAR
STARTCHAR u0248
ENCODING 584
SWIDTH 500 0
DWIDTH 5 0
BBX 5 10 0 -1
BITMAP
00
00
10
10
78
10
90
90
60
00
ENDCHAR
STARTCHAR u0249
ENCODING 585
SWIDTH 500 0
DWIDTH 5 0
BBX 5 10 0 -1
BITMAP
00
00
20
00
E0
20
F0
20
20
C0
ENDCHAR
STARTCHAR u2010
ENCODING 8208
SWIDTH 1000 0
DWIDTH 10 0
BBX 10 10 0 -1
BITMAP
0000
0000
0000
0000
0000
3E00
0000
0000
0000
0000
ENDCHAR
STARTCHAR u2011
ENCODING 8209
SWIDTH 500 0
DWIDTH 5 0
BBX 5 10 0 -1
BITMAP
00
00
00
00
00
F0
00
00
00
00
ENDCHAR
STARTCHAR u2012
ENCODING 8210
SWIDTH 500 0
DWIDTH 5 0
BBX 5 10 0 -1
BITMAP
00
00
00
00
00
F0
00
00
00
00
ENDCHAR
STARTCHAR u2013
ENCODING 8211
SWIDTH 500 0
DWIDTH 5 0
BBX 5 10 0 -1
BITMAP
00
00
00
00
00
F8
00
00
00
00
ENDCHAR
STARTCHAR u2014
ENCODING 8212
SWIDTH 1000 0
DWIDTH 10 0
BBX 10 10 0 -1
BITMAP
0000
0000
0000
0000
0000
FF80
0000
0000
0000
0000
ENDCHAR
STARTCHAR u2015
ENCODING 8213
SWIDTH 1000 0
DWIDTH 10 0
BBX 10 10 0 -1
BITMAP
0000
0000
0000
0000
0000
FFC0
0000
0000
0000
0000
ENDCHAR
STARTCHAR u2016
ENCODING 8214
SWIDTH 1000 0
DWIDTH 10 0
BBX 10 10 0 -1
BITMAP
0000
1400
1400
1400
1400
1400
1400
1400
1400
1400
ENDCHAR
STARTCHAR u2017
ENCODING 8215
SWIDTH 1000 0
DWIDTH 10 0
BBX 10 10 0 -1
BITMAP
0000
0000
0000
0000
0000
0000
0000
FF80
0000
FF80
ENDCHAR
STARTCHAR u2018
ENCODING 8216
SWIDTH 500 0
DWIDTH 5 0
BBX 5 10 0 -1
BITMAP
00
00
20
40
40
00
00
00
00
00
ENDCHAR
STARTCHAR u2019
ENCODING 8217
SWIDTH 500 0
DWIDTH 5 0
BBX 5 10 0 -1
BITMAP
00
00
20
20
40
00
00
00
00
00
ENDCHAR
STARTCHAR u201A
ENCODING 8218
SWIDTH 500 0
DWIDTH 5 0
BBX 5 10 0 -1
BITMAP
00
00
00
00
00
00
00
20
20
40
ENDCHAR
STARTCHAR u201B
ENCODING 8219
SWIDTH 500 0
DWIDTH 5 0
BBX 5 10 0 -1
BITMAP
00
00
40
40
20
00
00
00
00
00
ENDCHAR
STARTCHAR u201C
ENCODING 8220
SWIDTH 500 0
DWIDTH 5 0
BBX 5 10 0 -1
BITMAP
00
00
50
A0
A0
00
00
00
00
00
ENDCHAR
STARTCHAR u201D
ENCODING 8221
SWIDTH 500 0
DWIDTH 5 0
BBX 5 10 0 -1
BITMAP
00
00
50
50
A0
00
00
00
00
00
ENDCHAR
STARTCHAR u201E
ENCODING 8222
SWIDTH 500 0
DWIDTH 5 0
BBX 5 10 0 -1
BITMAP
00
00
00
00
00
00
00
50
50
A0
ENDCHAR
STARTCHAR u201F
ENCODING 8223
SWIDTH 500 0
DWIDTH 5 0
BBX 5 10 0 -1
BITMAP
00
00
A0
A0
50
00
00
00
00
00
ENDCHAR
STARTCHAR u2020
ENCODING 8224
SWIDTH 1000 0
DWIDTH 10 0
BBX 10 10 0 -1
BITMAP
0000
0800
0800
0800
3E00
0800
0800
0800
0800
0800
ENDCHAR
STARTCHAR u2021
ENCODING 8225
SWIDTH 1000 0
DWIDTH 10 0
BBX 10 10 0 -1
BITMAP
0000
0800
0800
3E00
0800
0800
0800
3E00
0800
0800
ENDCHAR
STARTCHAR u2022
ENCODING 8226
SWIDTH 1000 0
DWIDTH 10 0
BBX 10 10 0 -1
BITMAP
0000
0000
0000
0C00
1E00
1E00
0C00
0000
0000
0000
ENDCHAR
STARTCHAR u2023
ENCODING 8227
SWIDTH 1000 0
DWIDTH 10 0
BBX 10 10 0 -1
BITMAP
0000
0000
0000
1800
1C00
1E00
1C00
1800
0000
0000
ENDCHAR
STARTCHAR u2024
ENCODING 8228
SWIDTH 500 0
DWIDTH 5 0
BBX 5 10 0 -1
BITMAP
00
00
00
00
00
00
00
00
20
00
ENDCHAR
STARTCHAR u2025
ENCODING 8229
SWIDTH 500 0
DWIDTH 5 0
BBX 5 10 0 -1
BITMAP
00
00
00
00
00
00
00
00
50
00
ENDCHAR
STARTCHAR u2026
ENCODING 8230
SWIDTH 500 0
DWIDTH 5 0
BBX 5 10 0 -1
BITMAP
00
00
00
00
00
00
00
00
A8
00
ENDCHAR
STARTCHAR u2027
ENCODING 8231
SWIDTH 500 0
DWIDTH 5 0
BBX 5 10 0 -1
BITMAP
00
00
00
00
00
20
00
00
00
00
ENDCHAR
STARTCHAR u2030
ENCODING 8240
SWIDTH 1000 0
DWIDTH 10 0
BBX 10 10 0 -1
BITMAP
0000
0000
4400
A800
4800
1000
2500
2A80
4500
0000
ENDCHAR
STARTCHAR u2031
ENCODING 8241
SWIDTH 1000 0
DWIDTH 10 0
BBX 10 10 0 -1
BITMAP
0000
0000
4800
A800
5000
2000
5500
AA80
9500
0000
ENDCHAR
STARTCHAR u2032
ENCODING 8242
SWIDTH 500 0
DWIDTH 5 0
BBX 5 10 0 -1
BITMAP
00
00
20
20
40
00
00
00
00
00
ENDCHAR
STARTCHAR u2033
ENCODING 8243
SWIDTH 500 0
DWIDTH 5 0
BBX 5 10 0 -1
BITMAP
00
00
50
50
A0
00
00
00
00
00
ENDCHAR
STARTCHAR u2035
ENCODING 8245
SWIDTH 500 0
DWIDTH 5 0
BBX 5 10 0 -1
BITMAP
00
00
40
40
20
00
00
00
00
00
ENDCHAR
STARTCHAR u2036
ENCODING 8246
SWIDTH 500 0
DWIDTH 5 0
BBX 5 10 0 -1
BITMAP
00
00
A0
A0
50
00
00
00
00
00
ENDCHAR
STARTCHAR u203B
ENCODING 8251
SWIDTH 1000 0
DWIDTH 10 0
BBX 10 10 0 -1
BITMAP
0000
0000
4900
2200
1400
4900
1400
2200
4900
0000
ENDCHAR
STARTCHAR u203E
ENCODING 8254
SWIDTH 500 0
DWIDTH 5 0
BBX 5 10 0 -1
BITMAP
00
F0
00
00
00
00
00
00
00
00
ENDCHAR
STARTCHAR u2043
ENCODING 8259
SWIDTH 1000 0
DWIDTH 10 0
BBX 10 10 0 -1
BITMAP
0000
0000
0000
0000
1E00
1E00
0000
0000
0000
0000
ENDCHAR
STARTCHAR u204B
ENCODING 8267
SWIDTH 500 0
DWIDTH 5 0
BBX 5 10 0 -1
BITMAP
00
00
E0
B0
B0
B0
A0
A0
A0
A0
ENDCHAR
STARTCHAR u204C
ENCODING 8268
SWIDTH 500 0
DWIDTH 5 0
BBX 5 10 0 -1
BITMAP
00
00
00
00
70
D0
D0
70
00
00
ENDCHAR
STARTCHAR u204D
ENCODING 8269
SWIDTH 500 0
DWIDTH 5 0
BBX 5 10 0 -1
BITMAP
00
00
00
00
E0
B0
B0
E0
00
00
ENDCHAR
STARTCHAR u2070
ENCODING 8304
SWIDTH 500 0
DWIDTH 5 0
BBX 5 10 0 -1
BITMAP
00
60
A0
A0
A0
C0
00
00
00
00
ENDCHAR
STARTCHAR u2071
ENCODING 8305
SWIDTH 500 0
DWIDTH 5 0
BBX 5 10 0 -1
BITMAP
00
20
00
60
20
70
00
00
00
00
ENDCHAR
STARTCHAR u2074
ENCODING 8308
SWIDTH 500 0
DWIDTH 5 0
BBX 5 10 0 -1
BITMAP
00
60
A0
A0
F0
20
00
00
00
00
ENDCHAR
STARTCHAR u2075
ENCODING 8309
SWIDTH 500 0
DWIDTH 5 0
BBX 5 10 0 -1
BITMAP
00
E0
80
C0
20
C0
00
00
00
00
ENDCHAR
STARTCHAR u2076
ENCODING 8310
SWIDTH 500 0
DWIDTH 5 0
BBX 5 10 0 -1
BITMAP
00
60
80
E0
A0
E0
00
00
00
00
ENDCHAR
STARTCHAR u2077
ENCODING 8311
SWIDTH 500 0
DWIDTH 5 0
BBX 5 10 0 -1
BITMAP
00
E0
20
40
40
40
00
00
00
00
ENDCHAR
STARTCHAR u2078
ENCODING 8312
SWIDTH 500 0
DWIDTH 5 0
BBX 5 10 0 -1
BITMAP
00
E0
A0
E0
A0
E0
00
00
00
00
ENDCHAR
STARTCHAR u2079
ENCODING 8313
SWIDTH 500 0
DWIDTH 5 0
BBX 5 10 0 -1
BITMAP
00
E0
A0
E0
20
C0
00
00
00
00
ENDCHAR
STARTCHAR u207A
ENCODING 8314
SWIDTH 500 0
DWIDTH 5 0
BBX 5 10 0 -1
BITMAP
00
00
40
E0
40
00
00
00
00
00
ENDCHAR
STARTCHAR u207B
ENCODING 8315
SWIDTH 500 0
DWIDTH 5 0
BBX 5 10 0 -1
BITMAP
00
00
00
E0
00
00
00
00
00
00
ENDCHAR
STARTCHAR u207C
ENCODING 8316
SWIDTH 500 0
DWIDTH 5 0
BBX 5 10 0 -1
BITMAP
00
00
E0
00
E0
00
00
00
00
00
ENDCHAR
STARTCHAR u207D
ENCODING 8317
SWIDTH 500 0
DWIDTH 5 0
BBX 5 10 0 -1
BITMAP
00
20
40
40
40
20
00
00
00
00
ENDCHAR
STARTCHAR u207E
ENCODING 8318
SWIDTH 500 0
DWIDTH 5 0
BBX 5 10 0 -1
BITMAP
00
80
40
40
40
80
00
00
00
00
ENDCHAR
STARTCHAR u207F
ENCODING 8319
SWIDTH 500 0
DWIDTH 5 0
BBX 5 10 0 -1
BITMAP
00
00
E0
90
90
90
00
00
00
00
ENDCHAR
STARTCHAR u2080
ENCODING 8320
SWIDTH 500 0
DWIDTH 5 0
BBX 5 10 0 -1
BITMAP
00
00
00
00
00
60
A0
A0
A0
C0
ENDCHAR
STARTCHAR u2081
ENCODING 8321
SWIDTH 500 0
DWIDTH 5 0
BBX 5 10 0 -1
BITMAP
00
00
00
00
00
40
C0
40
40
E0
ENDCHAR
STARTCHAR u2082
ENCODING 8322
SWIDTH 500 0
DWIDTH 5 0
BBX 5 10 0 -1
BITMAP
00
00
00
00
00
C0
20
40
80
E0
ENDCHAR
STARTCHAR u2083
ENCODING 8323
SWIDTH 500 0
DWIDTH 5 0
BBX 5 10 0 -1
BITMAP
00
00
00
00
00
C0
20
40
20
C0
ENDCHAR
STARTCHAR u2084
ENCODING 8324
SWIDTH 500 0
DWIDTH 5 0
BBX 5 10 0 -1
BITMAP
00
00
00
00
00
60
A0
A0
F0
20
ENDCHAR
STARTCHAR u2085
ENCODING 8325
SWIDTH 500 0
DWIDTH 5 0
BBX 5 10 0 -1
BITMAP
00
00
00
00
00
E0
80
C0
20
C0
ENDCHAR
STARTCHAR u2086
ENCODING 8326
SWIDTH 500 0
DWIDTH 5 0
BBX 5 10 0 -1
BITMAP
00
00
00
00
00
60
80
E0
A0
E0
ENDCHAR
STARTCHAR u2087
ENCODING 8327
SWIDTH 500 0
DWIDTH 5 0
BBX 5 10 0 -1
BITMAP
00
00
00
00
00
E0
20
40
40
40
ENDCHAR
STARTCHAR u2088
ENCODING 8328
SWIDTH 500 0
DWIDTH 5 0
BBX 5 10 0 -1
BITMAP
00
00
00
00
00
E0
A0
E0
A0
E0
ENDCHAR
STARTCHAR u2089
ENCODING 8329
SWIDTH 500 0
DWIDTH 5 0
BBX 5 10 0 -1
BITMAP
00
00
00
00
00
E0
A0
E0
20
C0
ENDCHAR
STARTCHAR u208A
ENCODING 8330
SWIDTH 500 0
DWIDTH 5 0
BBX 5 10 0 -1
BITMAP
00
00
00
00
00
00
40
E0
40
00
ENDCHAR
STARTCHAR u208B
ENCODING 8331
SWIDTH 500 0
DWIDTH 5 0
BBX 5 10 0 -1
BITMAP
00
00
00
00
00
00
00
E0
00
00
ENDCHAR
STARTCHAR u208C
ENCODING 8332
SWIDTH 500 0
DWIDTH 5 0
BBX 5 10 0 -1
BITMAP
00
00
00
00
00
00
E0
00
E0
00
ENDCHAR
STARTCHAR u208D
ENCODING 8333
SWIDTH 500 0
DWIDTH 5 0
BBX 5 10 0 -1
BITMAP
00
00
00
00
00
20
40
40
40
20
ENDCHAR
STARTCHAR u208E
ENCODING 8334
SWIDTH 500 0
DWIDTH 5 0
BBX 5 10 0 -1
BITMAP
00
00
00
00
00
80
40
40
40
80
ENDCHAR
STARTCHAR u2090
ENCODING 8336
SWIDTH 500 0
DWIDTH 5 0
BBX 5 10 0 -1
BITMAP
00
00
00
00
00
00
70
90
90
70
ENDCHAR
STARTCHAR u2091
ENCODING 8337
SWIDTH 500 0
DWIDTH 5 0
BBX 5 10 0 -1
BITMAP
00
00
00
00
00
00
60
B0
C0
60
ENDCHAR
STARTCHAR u2092
ENCODING 8338
SWIDTH 500 0
DWIDTH 5 0
BBX 5 10 0 -1
BITMAP
00
00
00
00
00
00
60
90
90
60
ENDCHAR
STARTCHAR u2093
ENCODING 8339
SWIDTH 500 0
DWIDTH 5 0
BBX 5 10 0 -1
BITMAP
00
00
00
00
00
00
90
60
90
90
ENDCHAR
STARTCHAR u2094
ENCODING 8340
SWIDTH 500 0
DWIDTH 5 0
BBX 5 10 0 -1
BITMAP
00
00
00
00
00
00
60
30
D0
60
ENDCHAR
STARTCHAR u2095
ENCODING 8341
SWIDTH 500 0
DWIDTH 5 0
BBX 5 10 0 -1
BITMAP
00
00
00
00
00
80
E0
90
90
90
ENDCHAR
STARTCHAR u2096
ENCODING 8342
SWIDTH 500 0
DWIDTH 5 0
BBX 5 10 0 -1
BITMAP
00
00
00
00
00
80
B0
C0
A0
90
ENDCHAR
STARTCHAR u2097
ENCODING 8343
SWIDTH 500 0
DWIDTH 5 0
BBX 5 10 0 -1
BITMAP
00
00
00
00
00
60
20
20
20
30
ENDCHAR
STARTCHAR u2098
ENCODING 8344
SWIDTH 500 0
DWIDTH 5 0
BBX 5 10 0 -1
BITMAP
00
00
00
00
00
00
90
F0
90
90
ENDCHAR
STARTCHAR u2099
ENCODING 8345
SWIDTH 500 0
DWIDTH 5 0
BBX 5 10 0 -1
BITMAP
00
00
00
00
00
00
E0
90
90
90
ENDCHAR
STARTCHAR u209A
ENCODING 8346
SWIDTH 500 0
DWIDTH 5 0
BBX 5 10 0 -1
BITMAP
00
00
00
00
00
00
E0
90
E0
80
ENDCHAR
STARTCHAR u209B
ENCODING 8347
SWIDTH 500 0
DWIDTH 5 0
BBX 5 10 0 -1
BITMAP
00
00
00
00
00
00
70
C0
30
E0
ENDCHAR
STARTCHAR u209C
ENCODING 8348
SWIDTH 500 0
DWIDTH 5 0
BBX 5 10 0 -1
BITMAP
00
00
00
00
00
40
F0
40
40
30
ENDCHAR
STARTCHAR u2103
ENCODING 8451
SWIDTH 1000 0
DWIDTH 10 0
BBX 10 10 0 -1
BITMAP
0000
2000
5300
2480
0400
0400
0400
0480
0300
0000
ENDCHAR
STARTCHAR u2109
ENCODING 8457
SWIDTH 1000 0
DWIDTH 10 0
BBX 10 10 0 -1
BITMAP
0000
2000
5780
2400
0400
0700
0400
0400
0400
0000
ENDCHAR
STARTCHAR u2116
ENCODING 8470
SWIDTH 1000 0
DWIDTH 10 0
BBX 10 10 0 -1
BITMAP
0000
0000
8800
C800
A900
AA80
A900
9800
8B80
0000
ENDCHAR
STARTCHAR u2122
ENCODING 8482
SWIDTH 1000 0
DWIDTH 10 0
BBX 10 10 0 -1
BITMAP
0000
E880
4D80
4A80
4880
0000
0000
0000
0000
0000
ENDCHAR
STARTCHAR u2126
ENCODING 8486
SWIDTH 1000 0
DWIDTH 10 0
BBX 10 10 0 -1
BITMAP
0000
1C00
2200
4100
4100
4100
2200
1400
1400
7700
ENDCHAR
STARTCHAR u2127
ENCODING 8487
SWIDTH 1000 0
DWIDTH 10 0
BBX 10 10 0 -1
BITMAP
0000
7700
1400
1400
2200
4100
4100
4100
2200
1C00
ENDCHAR
STARTCHAR u212A
ENCODING 8490
SWIDTH 1000 0
DWIDTH 10 0
BBX 10 10 0 -1
BITMAP
0000
0000
2200
2400
2800
3000
2800
2400
2200
0000
ENDCHAR
STARTCHAR u212B
ENCODING 8491
SWIDTH 1000 0
DWIDTH 10 0
BBX 10 10 0 -1
BITMAP
0800
1400
0800
0000
0800
1400
1C00
2200
2200
0000
ENDCHAR
STARTCHAR u212E
ENCODING 8494
SWIDTH 1000 0
DWIDTH 10 0
BBX 10 10 0 -1
BITMAP
0000
0000
1C00
2200
6300
7F00
6000
2200
1C00
0000
ENDCHAR
STARTCHAR u2150
ENCODING 8528
SWIDTH 1000 0
DWIDTH 10 0
BBX 10 10 0 -1
BITMAP
0000
4080
C100
4200
4400
EB80
1080
2100
4100
8100
ENDCHAR
STARTCHAR u2151
ENCODING 8529
SWIDTH 1000 0
DWIDTH 10 0
BBX 10 10 0 -1
BITMAP
0000
4080
C100
4200
4400
EB80
1280
2380
4080
8300
ENDCHAR
STARTCHAR u2152
ENCODING 8530
SWIDTH 1000 0
DWIDTH 10 0
BBX 10 10 0 -1
BITMAP
0000
4080
C100
4200
4400
E980
1A80
2A80
4A80
8B00
ENDCHAR
STARTCHAR u2153
ENCODING 8531
SWIDTH 1000 0
DWIDTH 10 0
BBX 10 10 0 -1
BITMAP
0000
4080
C100
4200
4400
EB00
1080
2100
4080
8300
ENDCHAR
STARTCHAR u2154
ENCODING 8532
SWIDTH 1000 0
DWIDTH 10 0
BBX 10 10 0 -1
BITMAP
0000
C080
2100
4200
8400
EB00
1080
2100
4080
8300
ENDCHAR
STARTCHAR u2155
ENCODING 8533
SWIDTH 1000 0
DWIDTH 10 0
BBX 10 10 0 -1
BITMAP
0000
4080
C100
4200
4400
EB80
1200
2300
4080
8300
ENDCHAR
STARTCHAR u2156
ENCODING 8534
SWIDTH 1000 0
DWIDTH 10 0
BBX 10 10 0 -1
BITMAP
0000
C080
2100
4200
8400
EB80
1200
2300
4080
8300
ENDCHAR
STARTCHAR u2157
ENCODING 8535
SWIDTH 1000 0
DWIDTH 10 0
BBX 10 10 0 -1
BITMAP
0000
C080
2100
4200
2400
CB80
1200
2300
4080
8300
ENDCHAR
STARTCHAR u2158
ENCODING 8536
SWIDTH 1000 0
DWIDTH 10 0
BBX 10 10 0 -1
BITMAP
0000
6080
A100
A200
F400
2B80
1200
2300
4080
8300
ENDCHAR
STARTCHAR u2159
ENCODING 8537
SWIDTH 1000 0
DWIDTH 10 0
BBX 10 10 0 -1
BITMAP
0000
4080
C100
4200
4400
E980
1200
2380
4280
8380
ENDCHAR
STARTCHAR u215A
ENCODING 8538
SWIDTH 1000 0
DWIDTH 10 0
BBX 10 10 0 -1
BITMAP
0000
E080
8100
C200
2400
C980
1200
2380
4280
8380
ENDCHAR
STARTCHAR u215B
ENCODING 8539
SWIDTH 1000 0
DWIDTH 10 0
BBX 10 10 0 -1
BITMAP
0000
4080
C100
4200
4400
EB80
1280
2380
4280
8380
ENDCHAR
STARTCHAR u215C
ENCODING 8540
SWIDTH 1000 0
DWIDTH 10 0
BBX 10 10 0 -1
BITMAP
0000
C080
2100
4200
2400
CB80
1280
2380
4280
8380
ENDCHAR
STARTCHAR u215D
ENCODING 8541
SWIDTH 1000 0
DWIDTH 10 0
BBX 10 10 0 -1
BITMAP
0000
E080
8100
C200
2400
CB80
1280
2380
4280
8380
ENDCHAR
STARTCHAR u215E
ENCODING 8542
SWIDTH 1000 0
DWIDTH 10 0
BBX 10 10 0 -1
BITMAP
0000
E080
2100
4200
4400
4B80
1280
2380
4280
8380
ENDCHAR
STARTCHAR u215F
ENCODING 8543
SWIDTH 1000 0
DWIDTH 10 0
BBX 10 10 0 -1
BITMAP
0000
4080
C100
4200
4400
E800
1000
2000
4000
8000
ENDCHAR
STARTCHAR u2160
ENCODING 8544
SWIDTH 1000 0
DWIDTH 10 0
BBX 10 10 0 -1
BITMAP
0000
0000
1C00
0800
0800
0800
0800
0800
1C00
0000
ENDCHAR
STARTCHAR u2161
ENCODING 8545
SWIDTH 1000 0
DWIDTH 10 0
BBX 10 10 0 -1
BITMAP
0000
0000
3F00
1200
1200
1200
1200
1200
3F00
0000
ENDCHAR
STARTCHAR u2162
ENCODING 8546
SWIDTH 1000 0
DWIDTH 10 0
BBX 10 10 0 -1
BITMAP
0000
0000
7F00
2A00
2A00
2A00
2A00
2A00
7F00
0000
ENDCHAR
STARTCHAR u2163
ENCODING 8547
SWIDTH 1000 0
DWIDTH 10 0
BBX 10 10 0 -1
BITMAP
0000
0000
FB80
5100
5100
4A00
4A00
4400
E400
0000
ENDCHAR
STARTCHAR u2164
ENCODING 8548
SWIDTH 1000 0
DWIDTH 10 0
BBX 10 10 0 -1
BITMAP
0000
0000
7700
2200
2200
1400
1400
0800
0800
0000
ENDCHAR
STARTCHAR u2165
ENCODING 8549
SWIDTH 1000 0
DWIDTH 10 0
BBX 10 10 0 -1
BITMAP
0000
0000
EF80
4500
4500
2900
2900
1100
1380
0000
ENDCHAR
STARTCHAR u2166
ENCODING 8550
SWIDTH 1000 0
DWIDTH 10 0
BBX 10 10 0 -1
BITMAP
0000
0000
DF80
8A80
8A80
5280
5280
2280
2780
0000
ENDCHAR
STARTCHAR u2167
ENCODING 8551
SWIDTH 1000 0
DWIDTH 10 0
BBX 10 10 0 -1
BITMAP
0000
0000
BF80
AA80
AA80
AA80
4A80
4A80
5F80
0000
ENDCHAR
STARTCHAR u2168
ENCODING 8552
SWIDTH 1000 0
DWIDTH 10 0
BBX 10 10 0 -1
BITMAP
0000
0000
FB80
5100
4A00
4400
4A00
5100
FB80
0000
ENDCHAR
STARTCHAR u2169
ENCODING 8553
SWIDTH 1000 0
DWIDTH 10 0
BBX 10 10 0 -1
BITMAP
0000
0000
7700
2200
1400
0800
1400
2200
7700
0000
ENDCHAR
STARTCHAR u216A
ENCODING 8554
SWIDTH 1000 0
DWIDTH 10 0
BBX 10 10 0 -1
BITMAP
0000
0000
EF80
4500
2900
1100
2900
4500
EF80
0000
ENDCHAR
STARTCHAR u216B
ENCODING 8555
SWIDTH 1000 0
DWIDTH 10 0
BBX 10 10 0 -1
BITMAP
0000
0000
DF80
8A80
5280
2280
5280
8A80
DF80
0000
ENDCHAR
STARTCHAR u216C
ENCODING 8556
SWIDTH 1000 0
DWIDTH 10 0
BBX 10 10 0 -1
BITMAP
0000
0000
2000
2000
2000
2000
2000
2000
3E00
0000
ENDCHAR
STARTCHAR u216D
ENCODING 8557
SWIDTH 1000 0
DWIDTH 10 0
BBX 10 10 0 -1
BITMAP
0000
0000
1C00
2200
2000
2000
2000
2200
1C00
0000
ENDCHAR
STARTCHAR u216E
ENCODING 8558
SWIDTH 1000 0
DWIDTH 10 0
BBX 10 10 0 -1
BITMAP
0000
0000
3C00
2200
2200
2200
2200
2200
3C00
0000
ENDCHAR
STARTCHAR u216F
ENCODING 8559
SWIDTH 1000 0
DWIDTH 10 0
BBX 10 10 0 -1
BITMAP
0000
0000
4100
6300
6300
5500
5500
4900
4900
0000
ENDCHAR
STARTCHAR u2170
ENCODING 8560
SWIDTH 1000 0
DWIDTH 10 0
BBX 10 10 0 -1
BITMAP
0000
0000
0800
0000
1800
0800
0800
0800
1C00
0000
ENDCHAR
STARTCHAR u2171
ENCODING 8561
SWIDTH 1000 0
DWIDTH 10 0
BBX 10 10 0 -1
BITMAP
0000
0000
1200
0000
3600
1200
1200
1200
3F00
0000
ENDCHAR
STARTCHAR u2172
ENCODING 8562
SWIDTH 1000 0
DWIDTH 10 0
BBX 10 10 0 -1
BITMAP
0000
0000
2A00
0000
7E00
2A00
2A00
2A00
7F00
0000
ENDCHAR
STARTCHAR u2173
ENCODING 8563
SWIDTH 1000 0
DWIDTH 10 0
BBX 10 10 0 -1
BITMAP
0000
0000
4000
0000
FB80
5100
4A00
4A00
E400
0000
ENDCHAR
STARTCHAR u2174
ENCODING 8564
SWIDTH 1000 0
DWIDTH 10 0
BBX 10 10 0 -1
BITMAP
0000
0000
0000
0000
7700
2200
1400
1400
0800
0000
ENDCHAR
STARTCHAR u2175
ENCODING 8565
SWIDTH 1000 0
DWIDTH 10 0
BBX 10 10 0 -1
BITMAP
0000
0000
0100
0000
EF00
4500
2900
2900
1380
0000
ENDCHAR
STARTCHAR u2176
ENCODING 8566
SWIDTH 1000 0
DWIDTH 10 0
BBX 10 10 0 -1
BITMAP
0000
0000
0280
0000
DF80
8A80
5280
5280
2780
0000
ENDCHAR
STARTCHAR u2177
ENCODING 8567
SWIDTH 1000 0
DWIDTH 10 0
BBX 10 10 0 -1
BITMAP
0000
0000
0A80
0000
BF80
AA80
AA80
4A80
5F80
0000
ENDCHAR
STARTCHAR u2178
ENCODING 8568
SWIDTH 1000 0
DWIDTH 10 0
BBX 10 10 0 -1
BITMAP
0000
0000
4000
0000
C880
4500
4200
4500
E880
0000
ENDCHAR
STARTCHAR u2179
ENCODING 8569
SWIDTH 1000 0
DWIDTH 10 0
BBX 10 10 0 -1
BITMAP
0000
0000
0000
0000
2200
1400
0800
1400
2200
0000
ENDCHAR
STARTCHAR u217A
ENCODING 8570
SWIDTH 1000 0
DWIDTH 10 0
BBX 10 10 0 -1
BITMAP
0000
0000
0100
0000
8B00
5100
2100
5100
8B80
0000
ENDCHAR
STARTCHAR u217B
ENCODING 8571
SWIDTH 1000 0
DWIDTH 10 0
BBX 10 10 0 -1
BITMAP
0000
0000
0280
0000
8F80
5280
2280
5280
8F80
0000
ENDCHAR
STARTCHAR u217C
ENCODING 8572
SWIDTH 1000 0
DWIDTH 10 0
BBX 10 10 0 -1
BITMAP
0000
0000
1800
0800
0800
0800
0800
0800
0C00
0000
ENDCHAR
STARTCHAR u217D
ENCODING 8573
SWIDTH 1000 0
DWIDTH 10 0
BBX 10 10 0 -1
BITMAP
0000
0000
0000
0000
1C00
2200
2000
2200
1C00
0000
ENDCHAR
STARTCHAR u217E
ENCODING 8574
SWIDTH 1000 0
DWIDTH 10 0
BBX 10 10 0 -1
BITMAP
0000
0000
0200
0200
1E00
2200
2200
2200
1E00
0000
ENDCHAR
STARTCHAR u217F
ENCODING 8575
SWIDTH 1000 0
DWIDTH 10 0
BBX 10 10 0 -1
BITMAP
0000
0000
0000
0000
3400
2A00
2A00
2A00
2A00
0000
ENDCHAR
STARTCHAR u2180
ENCODING 8576
SWIDTH 1000 0
DWIDTH 10 0
BBX 10 10 0 -1
BITMAP
0000
0000
3E00
4900
8880
8880
8880
4900
3E00
0000
ENDCHAR
STARTCHAR u2181
ENCODING 8577
SWIDTH 1000 0
DWIDTH 10 0
BBX 10 10 0 -1
BITMAP
0000
0000
3800
2400
3200
2A00
3200
2400
3800
0000
ENDCHAR
STARTCHAR u2182
ENCODING 8578
SWIDTH 1000 0
DWIDTH 10 0
BBX 10 10 0 -1
BITMAP
0000
0000
3E00
4900
9C80
AA80
9C80
4900
3E00
0000
ENDCHAR
STARTCHAR u2183
ENCODING 8579
SWIDTH 1000 0
DWIDTH 10 0
BBX 10 10 0 -1
BITMAP
0000
0000
1C00
2200
0200
0200
0200
2200
1C00
0000
ENDCHAR
STARTCHAR u2184
ENCODING 8580
SWIDTH 1000 0
DWIDTH 10 0
BBX 10 10 0 -1
BITMAP
0000
0000
0000
0000
1C00
2200
0200
2200
1C00
0000
ENDCHAR
STARTCHAR u2185
ENCODING 8581
SWIDTH 1000 0
DWIDTH 10 0
BBX 10 10 0 -1
BITMAP
0000
0000
1C00
2200
2000
2000
2000
2600
1A00
0200
ENDCHAR
STARTCHAR u2186
ENCODING 8582
SWIDTH 1000 0
DWIDTH 10 0
BBX 10 10 0 -1
BITMAP
0000
0000
0800
0800
0800
0800
2A00
1C00
0800
0000
ENDCHAR
STARTCHAR u2187
ENCODING 8583
SWIDTH 1000 0
DWIDTH 10 0
BBX 10 10 0 -1
BITMAP
0000
0000
3C00
3200
2A00
3600
2A00
3200
3C00
0000
ENDCHAR
STARTCHAR u2188
ENCODING 8584
SWIDTH 1000 0
DWIDTH 10 0
BBX 10 10 0 -1
BITMAP
0000
0000
7F00
9C80
AA80
DD80
AA80
9C80
7F00
0000
ENDCHAR
STARTCHAR u2189
ENCODING 8585
SWIDTH 1000 0
DWIDTH 10 0
BBX 10 10 0 -1
BITMAP
0000
6080
A100
A200
A400
CB00
1080
2100
4080
8300
ENDCHAR
STARTCHAR u218A
ENCODING 8586
SWIDTH 1000 0
DWIDTH 10 0
BBX 10 10 0 -1
BITMAP
0000
0000
3E00
0400
0800
1000
2000
2200
1C00
0000
ENDCHAR
STARTCHAR u218B
ENCODING 8587
SWIDTH 1000 0
DWIDTH 10 0
BBX 10 10 0 -1
BITMAP
0000
0000
1C00
2200
2000
1800
2000
2200
1C00
0000
ENDCHAR
STARTCHAR u2190
ENCODING 8592
SWIDTH 1000 0
DWIDTH 10 0
BBX 10 10 0 -1
BITMAP
0000
0000
0000
2000
4000
FF80
4000
2000
0000
0000
ENDCHAR
STARTCHAR u2191
ENCODING 8593
SWIDTH 1000 0
DWIDTH 10 0
BBX 10 10 0 -1
BITMAP
0000
0800
1C00
2A00
0800
0800
0800
0800
0800
0800
ENDCHAR
STARTCHAR u2192
ENCODING 8594
SWIDTH 1000 0
DWIDTH 10 0
BBX 10 10 0 -1
BITMAP
0000
0000
0000
0200
0100
FF80
0100
0200
0000
0000
ENDCHAR
STARTCHAR u2193
ENCODING 8595
SWIDTH 1000 0
DWIDTH 10 0
BBX 10 10 0 -1
BITMAP
0000
0800
0800
0800
0800
0800
0800
2A00
1C00
0800
ENDCHAR
STARTCHAR u2194
ENCODING 8596
SWIDTH 1000 0
DWIDTH 10 0
BBX 10 10 0 -1
BITMAP
0000
0000
0000
2200
4100
FF80
4100
2200
0000
0000
ENDCHAR
STARTCHAR u2195
ENCODING 8597
SWIDTH 1000 0
DWIDTH 10 0
BBX 10 10 0 -1
BITMAP
0000
0800
1C00
2A00
0800
0800
0800
2A00
1C00
0800
ENDCHAR
STARTCHAR u2196
ENCODING 8598
SWIDTH 1000 0
DWIDTH 10 0
BBX 10 10 0 -1
BITMAP
0000
0000
7800
6000
5000
4800
0400
0200
0100
0000
ENDCHAR
STARTCHAR u2197
ENCODING 8599
SWIDTH 1000 0
DWIDTH 10 0
BBX 10 10 0 -1
BITMAP
0000
0000
0F00
0300
0500
0900
1000
2000
4000
0000
ENDCHAR
STARTCHAR u2198
ENCODING 8600
SWIDTH 1000 0
DWIDTH 10 0
BBX 10 10 0 -1
BITMAP
0000
0000
4000
2000
1000
0900
0500
0300
0F00
0000
ENDCHAR
STARTCHAR u2199
ENCODING 8601
SWIDTH 1000 0
DWIDTH 10 0
BBX 10 10 0 -1
BITMAP
0000
0000
0100
0200
0400
4800
5000
6000
7800
0000
ENDCHAR
STARTCHAR u219A
ENCODING 8602
SWIDTH 1000 0
DWIDTH 10 0
BBX 10 10 0 -1
BITMAP
0000
0000
0000
2200
4200
FF80
4400
2400
0000
0000
ENDCHAR
STARTCHAR u219B
ENCODING 8603
SWIDTH 1000 0
DWIDTH 10 0
BBX 10 10 0 -1
BITMAP
0000
0000
0000
1200
1100
FF80
2100
2200
0000
0000
ENDCHAR
STARTCHAR u219C
ENCODING 8604
SWIDTH 1000 0
DWIDTH 10 0
BBX 10 10 0 -1
BITMAP
0000
0000
0000
F000
C300
A480
9800
0000
0000
0000
ENDCHAR
STARTCHAR u219D
ENCODING 8605
SWIDTH 1000 0
DWIDTH 10 0
BBX 10 10 0 -1
BITMAP
0000
0000
0000
0780
6180
9280
0C80
0000
0000
0000
ENDCHAR
STARTCHAR u219E
ENCODING 8606
SWIDTH 1000 0
DWIDTH 10 0
BBX 10 10 0 -1
BITMAP
0000
0000
0000
2400
4800
FF80
4800
2400
0000
0000
ENDCHAR
STARTCHAR u219F
ENCODING 8607
SWIDTH 1000 0
DWIDTH 10 0
BBX 10 10 0 -1
BITMAP
0000
0800
1C00
2A00
0800
1C00
2A00
0800
0800
0800
ENDCHAR
STARTCHAR u21A0
ENCODING 8608
SWIDTH 1000 0
DWIDTH 10 0
BBX 10 10 0 -1
BITMAP
0000
0000
0000
1200
0900
FF80
0900
1200
0000
0000
ENDCHAR
STARTCHAR u21A1
ENCODING 8609
SWIDTH 1000 0
DWIDTH 10 0
BBX 10 10 0 -1
BITMAP
0000
0800
0800
0800
2A00
1C00
0800
2A00
1C00
0800
ENDCHAR
STARTCHAR u21A2
ENCODING 8610
SWIDTH 1000 0
DWIDTH 10 0
BBX 10 10 0 -1
BITMAP
0000
0000
0000
2080
4100
FE00
4100
2080
0000
0000
ENDCHAR
STARTCHAR u21A3
ENCODING 8611
SWIDTH 1000 0
DWIDTH 10 0
BBX 10 10 0 -1
BITMAP
0000
0000
0000
8200
4100
3F80
4100
8200
0000
0000
ENDCHAR
STARTCHAR u21A4
ENCODING 8612
SWIDTH 1000 0
DWIDTH 10 0
BBX 10 10 0 -1
BITMAP
0000
0000
0000
2080
4080
FF80
4080
2080
0000
0000
ENDCHAR
STARTCHAR u21A5
ENCODING 8613
SWIDTH 1000 0
DWIDTH 10 0
BBX 10 10 0 -1
BITMAP
0000
0800
1C00
2A00
0800
0800
0800
0800
0800
3E00
ENDCHAR
STARTCHAR u21A6
ENCODING 8614
SWIDTH 1000 0
DWIDTH 10 0
BBX 10 10 0 -1
BITMAP
0000
0000
0000
8200
8100
FF80
8100
8200
0000
0000
ENDCHAR
STARTCHAR u21A7
ENCODING 8615
SWIDTH 1000 0
DWIDTH 10 0
BBX 10 10 0 -1
BITMAP
0000
3E00
0800
0800
0800
0800
0800
2A00
1C00
0800
ENDCHAR
STARTCHAR u21A8
ENCODING 8616
SWIDTH 1000 0
DWIDTH 10 0
BBX 10 10 0 -1
BITMAP
0000
0800
1C00
2A00
0800
0800
2A00
1C00
0800
3E00
ENDCHAR
STARTCHAR u21A9
ENCODING 8617
SWIDTH 1000 0
DWIDTH 10 0
BBX 10 10 0 -1
BITMAP
0000
3C00
0200
0100
0100
1100
2200
7C00
2000
1000
ENDCHAR
STARTCHAR u21AA
ENCODING 8618
SWIDTH 1000 0
DWIDTH 10 0
BBX 10 10 0 -1
BITMAP
0000
1E00
2000
4000
4000
4400
2200
1F00
0200
0400
ENDCHAR
STARTCHAR u21AB
ENCODING 8619
SWIDTH 1000 0
DWIDTH 10 0
BBX 10 10 0 -1
BITMAP
0000
0000
0300
2480
4480
FF00
4400
2400
0000
0000
ENDCHAR
STARTCHAR u21AC
ENCODING 8620
SWIDTH 1000 0
DWIDTH 10 0
BBX 10 10 0 -1
BITMAP
0000
0000
6000
9200
9100
7F80
1100
1200
0000
0000
ENDCHAR
STARTCHAR u21AD
ENCODING 8621
SWIDTH 1000 0
DWIDTH 10 0
BBX 10 10 0 -1
BITMAP
0000
0000
0000
2200
4900
F780
4100
2200
0000
0000
ENDCHAR
STARTCHAR u21AE
ENCODING 8622
SWIDTH 1000 0
DWIDTH 10 0
BBX 10 10 0 -1
BITMAP
0000
0000
0000
4500
8880
FF80
8880
5100
0000
0000
ENDCHAR
STARTCHAR u21AF
ENCODING 8623
SWIDTH 1000 0
DWIDTH 10 0
BBX 10 10 0 -1
BITMAP
0000
2000
2400
2C00
3400
2400
0400
1500
0E00
0400
ENDCHAR
STARTCHAR u21B0
ENCODING 8624
SWIDTH 1000 0
DWIDTH 10 0
BBX 10 10 0 -1
BITMAP
0000
2000
4000
FF00
4100
2100
0100
0100
0100
0100
ENDCHAR
STARTCHAR u21B1
ENCODING 8625
SWIDTH 1000 0
DWIDTH 10 0
BBX 10 10 0 -1
BITMAP
0000
0200
0100
7F80
4100
4200
4000
4000
4000
4000
ENDCHAR
STARTCHAR u21B2
ENCODING 8626
SWIDTH 1000 0
DWIDTH 10 0
BBX 10 10 0 -1
BITMAP
0000
0100
0100
0100
0100
2100
4100
FF00
4000
2000
ENDCHAR
STARTCHAR u21B3
ENCODING 8627
SWIDTH 1000 0
DWIDTH 10 0
BBX 10 10 0 -1
BITMAP
0000
4000
4000
4000
4000
4200
4100
7F80
0100
0200
ENDCHAR
STARTCHAR u21B4
ENCODING 8628
SWIDTH 1000 0
DWIDTH 10 0
BBX 10 10 0 -1
BITMAP
0000
0000
0000
FE00
0200
0200
0A80
0700
0200
0000
ENDCHAR
STARTCHAR u21B5
ENCODING 8629
SWIDTH 1000 0
DWIDTH 10 0
BBX 10 10 0 -1
BITMAP
0000
0000
0000
0080
2080
4080
FF80
4000
2000
0000
ENDCHAR
STARTCHAR u21B6
ENCODING 8630
SWIDTH 1000 0
DWIDTH 10 0
BBX 10 10 0 -1
BITMAP
0000
0000
0E00
1100
2080
2080
A880
7080
2000
0000
ENDCHAR
STARTCHAR u21B7
ENCODING 8631
SWIDTH 1000 0
DWIDTH 10 0
BBX 10 10 0 -1
BITMAP
0000
0000
3800
4400
8200
8200
8A80
8700
0200
0000
ENDCHAR
STARTCHAR u21B8
ENCODING 8632
SWIDTH 1000 0
DWIDTH 10 0
BBX 10 10 0 -1
BITMAP
0000
FF80
0000
7800
6000
5000
4800
0400
0200
0100
ENDCHAR
STARTCHAR u21B9
ENCODING 8633
SWIDTH 1000 0
DWIDTH 10 0
BBX 10 10 0 -1
BITMAP
0000
9000
A000
FF80
A000
9480
0280
FF80
0280
0480
ENDCHAR
STARTCHAR u21BA
ENCODING 8634
SWIDTH 1000 0
DWIDTH 10 0
BBX 10 10 0 -1
BITMAP
0000
0E00
0C00
2A00
4100
4100
4100
2200
1C00
0000
ENDCHAR
STARTCHAR u21BB
ENCODING 8635
SWIDTH 1000 0
DWIDTH 10 0
BBX 10 10 0 -1
BITMAP
0000
3800
1800
2A00
4100
4100
4100
2200
1C00
0000
ENDCHAR
STARTCHAR u21BC
ENCODING 8636
SWIDTH 1000 0
DWIDTH 10 0
BBX 10 10 0 -1
BITMAP
0000
0000
0000
2000
4000
FF80
0000
0000
0000
0000
ENDCHAR
STARTCHAR u21BD
ENCODING 8637
SWIDTH 1000 0
DWIDTH 10 0
BBX 10 10 0 -1
BITMAP
0000
0000
0000
0000
0000
FF80
4000
2000
0000
0000
ENDCHAR
STARTCHAR u21BE
ENCODING 8638
SWIDTH 1000 0
DWIDTH 10 0
BBX 10 10 0 -1
BITMAP
0000
0800
0C00
0A00
0800
0800
0800
0800
0800
0800
ENDCHAR
STARTCHAR u21BF
ENCODING 8639
SWIDTH 1000 0
DWIDTH 10 0
BBX 10 10 0 -1
BITMAP
0000
0800
1800
2800
0800
0800
0800
0800
0800
0800
ENDCHAR
STARTCHAR u21C0
ENCODING 8640
SWIDTH 1000 0
DWIDTH 10 0
BBX 10 10 0 -1
BITMAP
0000
0000
0000
0200
0100
FF80
0000
0000
0000
0000
ENDCHAR
STARTCHAR u21C1
ENCODING 8641
SWIDTH 1000 0
DWIDTH 10 0
BBX 10 10 0 -1
BITMAP
0000
0000
0000
0000
0000
FF80
0100
0200
0000
0000
ENDCHAR
STARTCHAR u21C2
ENCODING 8642
SWIDTH 1000 0
DWIDTH 10 0
BBX 10 10 0 -1
BITMAP
0000
0800
0800
0800
0800
0800
0800
0A00
0C00
0800
ENDCHAR
STARTCHAR u21C3
ENCODING 8643
SWIDTH 1000 0
DWIDTH 10 0
BBX 10 10 0 -1
BITMAP
0000
0800
0800
0800
0800
0800
0800
2800
1800
0800
ENDCHAR
STARTCHAR u21C4
ENCODING 8644
SWIDTH 1000 0
DWIDTH 10 0
BBX 10 10 0 -1
BITMAP
0000
0200
0100
FF80
0100
2200
4000
FF80
4000
2000
ENDCHAR
STARTCHAR u21C5
ENCODING 8645
SWIDTH 1000 0
DWIDTH 10 0
BBX 10 10 0 -1
BITMAP
0000
2200
7200
AA00
2200
2200
2200
2A80
2700
2200
ENDCHAR
STARTCHAR u21C6
ENCODING 8646
SWIDTH 1000 0
DWIDTH 10 0
BBX 10 10 0 -1
BITMAP
0000
2000
4000
FF80
4000
2200
0100
FF80
0100
0200
ENDCHAR
STARTCHAR u21C7
ENCODING 8647
SWIDTH 1000 0
DWIDTH 10 0
BBX 10 10 0 -1
BITMAP
0000
2000
4000
FF80
4000
2000
4000
FF80
4000
2000
ENDCHAR
STARTCHAR u21C8
ENCODING 8648
SWIDTH 1000 0
DWIDTH 10 0
BBX 10 10 0 -1
BITMAP
0000
2200
7700
AA80
2200
2200
2200
2200
2200
2200
ENDCHAR
STARTCHAR u21C9
ENCODING 8649
SWIDTH 1000 0
DWIDTH 10 0
BBX 10 10 0 -1
BITMAP
0000
0200
0100
FF80
0100
0200
0100
FF80
0100
0200
ENDCHAR
STARTCHAR u21CA
ENCODING 8650
SWIDTH 1000 0
DWIDTH 10 0
BBX 10 10 0 -1
BITMAP
0000
2200
2200
2200
2200
2200
2200
AA80
7700
2200
ENDCHAR
STARTCHAR u21CB
ENCODING 8651
SWIDTH 1000 0
DWIDTH 10 0
BBX 10 10 0 -1
BITMAP
0000
0000
2000
4000
FF80
0000
FF80
0100
0200
0000
ENDCHAR
STARTCHAR u21CC
ENCODING 8652
SWIDTH 1000 0
DWIDTH 10 0
BBX 10 10 0 -1
BITMAP
0000
0000
0200
0100
FF80
0000
FF80
4000
2000
0000
ENDCHAR
STARTCHAR u21CD
ENCODING 8653
SWIDTH 1000 0
DWIDTH 10 0
BBX 10 10 0 -1
BITMAP
0000
0000
1100
2100
7F80
8200
7F80
2400
1400
0000
ENDCHAR
STARTCHAR u21CE
ENCODING 8654
SWIDTH 1000 0
DWIDTH 10 0
BBX 10 10 0 -1
BITMAP
0000
0000
0400
2A00
7F00
8880
7F00
2A00
1000
0000
ENDCHAR
STARTCHAR u21CF
ENCODING 8655
SWIDTH 1000 0
DWIDTH 10 0
BBX 10 10 0 -1
BITMAP
0000
0000
1400
1200
FF00
2080
FF00
4200
4400
0000
ENDCHAR
STARTCHAR u21D0
ENCODING 8656
SWIDTH 1000 0
DWIDTH 10 0
BBX 10 10 0 -1
BITMAP
0000
0000
1000
2000
7F80
8000
7F80
2000
1000
0000
ENDCHAR
STARTCHAR u21D1
ENCODING 8657
SWIDTH 1000 0
DWIDTH 10 0
BBX 10 10 0 -1
BITMAP
0000
0800
1400
3600
5500
1400
1400
1400
1400
1400
ENDCHAR
STARTCHAR u21D2
ENCODING 8658
SWIDTH 1000 0
DWIDTH 10 0
BBX 10 10 0 -1
BITMAP
0000
0000
0400
0200
FF00
0080
FF00
0200
0400
0000
ENDCHAR
STARTCHAR u21D3
ENCODING 8659
SWIDTH 1000 0
DWIDTH 10 0
BBX 10 10 0 -1
BITMAP
0000
1400
1400
1400
1400
1400
5500
3600
1400
0800
ENDCHAR
STARTCHAR u21D4
ENCODING 8660
SWIDTH 1000 0
DWIDTH 10 0
BBX 10 10 0 -1
BITMAP
0000
0000
0000
2200
7F00
8080
7F00
2200
0000
0000
ENDCHAR
STARTCHAR u21D5
ENCODING 8661
SWIDTH 1000 0
DWIDTH 10 0
BBX 10 10 0 -1
BITMAP
0000
0800
1400
3600
1400
1400
1400
3600
1400
0800
ENDCHAR
STARTCHAR u21D6
ENCODING 8662
SWIDTH 1000 0
DWIDTH 10 0
BBX 10 10 0 -1
BITMAP
0000
0000
7C00
5000
6800
5400
4A00
0500
0200
0000
ENDCHAR
STARTCHAR u21D7
ENCODING 8663
SWIDTH 1000 0
DWIDTH 10 0
BBX 10 10 0 -1
BITMAP
0000
0000
1F00
0500
0B00
1500
2900
5000
2000
0000
ENDCHAR
STARTCHAR u21D8
ENCODING 8664
SWIDTH 1000 0
DWIDTH 10 0
BBX 10 10 0 -1
BITMAP
0000
0000
2000
5000
2900
1500
0B00
0500
1F00
0000
ENDCHAR
STARTCHAR u21D9
ENCODING 8665
SWIDTH 1000 0
DWIDTH 10 0
BBX 10 10 0 -1
BITMAP
0000
0000
0200
0500
4A00
5400
6800
5000
7C00
0000
ENDCHAR
STARTCHAR u21DA
ENCODING 8666
SWIDTH 1000 0
DWIDTH 10 0
BBX 10 10 0 -1
BITMAP
0000
0000
1000
3F80
4000
FF80
4000
3F80
1000
0000
ENDCHAR
STARTCHAR u21DB
ENCODING 8667
SWIDTH 1000 0
DWIDTH 10 0
BBX 10 10 0 -1
BITMAP
0000
0000
0400
FE00
0100
FF80
0100
FE00
0400
0000
ENDCHAR
STARTCHAR u21DC
ENCODING 8668
SWIDTH 1000 0
DWIDTH 10 0
BBX 10 10 0 -1
BITMAP
0000
0000
0000
2000
4200
F580
4800
2000
0000
0000
ENDCHAR
STARTCHAR u21DD
ENCODING 8669
SWIDTH 1000 0
DWIDTH 10 0
BBX 10 10 0 -1
BITMAP
0000
0000
0000
0200
2100
D780
0900
0200
0000
0000
ENDCHAR
STARTCHAR u21DE
ENCODING 8670
SWIDTH 1000 0
DWIDTH 10 0
BBX 10 10 0 -1
BITMAP
0000
0800
1C00
2A00
0800
3E00
0800
3E00
0800
0800
ENDCHAR
STARTCHAR u21DF
ENCODING 8671
SWIDTH 1000 0
DWIDTH 10 0
BBX 10 10 0 -1
BITMAP
0000
0800
0800
3E00
0800
3E00
0800
2A00
1C00
0800
ENDCHAR
STARTCHAR u21E0
ENCODING 8672
SWIDTH 1000 0
DWIDTH 10 0
BBX 10 10 0 -1
BITMAP
0000
0000
0000
2000
4000
ED80
4000
2000
0000
0000
ENDCHAR
STARTCHAR u21E1
ENCODING 8673
SWIDTH 1000 0
DWIDTH 10 0
BBX 10 10 0 -1
BITMAP
0000
0800
1C00
2A00
0000
0800
0800
0000
0800
0800
ENDCHAR
STARTCHAR u21E2
ENCODING 8674
SWIDTH 1000 0
DWIDTH 10 0
BBX 10 10 0 -1
BITMAP
0000
0000
0000
0200
0100
DB80
0100
0200
0000
0000
ENDCHAR
STARTCHAR u21E3
ENCODING 8675
SWIDTH 1000 0
DWIDTH 10 0
BBX 10 10 0 -1
BITMAP
0000
0800
0800
0000
0800
0800
0000
2A00
1C00
0800
ENDCHAR
STARTCHAR u21E4
ENCODING 8676
SWIDTH 1000 0
DWIDTH 10 0
BBX 10 10 0 -1
BITMAP
0000
0000
0000
8800
9000
BF80
9000
8800
0000
0000
ENDCHAR
STARTCHAR u21E5
ENCODING 8677
SWIDTH 1000 0
DWIDTH 10 0
BBX 10 10 0 -1
BITMAP
0000
0000
0000
0880
0480
FE80
0480
0880
0000
0000
ENDCHAR
STARTCHAR u21E6
ENCODING 8678
SWIDTH 1000 0
DWIDTH 10 0
BBX 10 10 0 -1
BITMAP
0000
0800
1800
2F80
4080
8080
4080
2F80
1800
0800
ENDCHAR
STARTCHAR u21E7
ENCODING 8679
SWIDTH 1000 0
DWIDTH 10 0
BBX 10 10 0 -1
BITMAP
0000
0800
1400
2200
4100
E380
2200
2200
2200
3E00
ENDCHAR
STARTCHAR u21E8
ENCODING 8680
SWIDTH 1000 0
DWIDTH 10 0
BBX 10 10 0 -1
BITMAP
0000
0800
0C00
FA00
8100
8080
8100
FA00
0C00
0800
ENDCHAR
STARTCHAR u21E9
ENCODING 8681
SWIDTH 1000 0
DWIDTH 10 0
BBX 10 10 0 -1
BITMAP
0000
3E00
2200
2200
2200
E380
4100
2200
1400
0800
ENDCHAR
STARTCHAR u21EA
ENCODING 8682
SWIDTH 1000 0
DWIDTH 10 0
BBX 10 10 0 -1
BITMAP
0000
0800
1400
2200
4100
E380
2200
3E00
0000
3E00
ENDCHAR
STARTCHAR u21EB
ENCODING 8683
SWIDTH 1000 0
DWIDTH 10 0
BBX 10 10 0 -1
BITMAP
0000
0800
1400
2200
4100
E380
2200
2200
2200
FF80
ENDCHAR
STARTCHAR u21EC
ENCODING 8684
SWIDTH 1000 0
DWIDTH 10 0
BBX 10 10 0 -1
BITMAP
0000
0800
1400
3E00
4100
E380
2200
2200
2200
FF80
ENDCHAR
STARTCHAR u21ED
ENCODING 8685
SWIDTH 1000 0
DWIDTH 10 0
BBX 10 10 0 -1
BITMAP
0000
0800
1C00
2A00
4900
EB80
2A00
2A00
2A00
FF80
ENDCHAR
STARTCHAR u21EE
ENCODING 8686
SWIDTH 1000 0
DWIDTH 10 0
BBX 10 10 0 -1
BITMAP
0000
0800
1400
2A00
5500
A280
4100
E380
2200
3E00
ENDCHAR
STARTCHAR u21EF
ENCODING 8687
SWIDTH 1000 0
DWIDTH 10 0
BBX 10 10 0 -1
BITMAP
0000
0800
1400
2A00
5500
A280
4100
E380
2200
FF80
ENDCHAR
STARTCHAR u21F0
ENCODING 8688
SWIDTH 1000 0
DWIDTH 10 0
BBX 10 10 0 -1
BITMAP
0000
8800
8C00
FA00
8100
8080
8100
FA00
8C00
8800
ENDCHAR
STARTCHAR u21F1
ENCODING 8689
SWIDTH 1000 0
DWIDTH 10 0
BBX 10 10 0 -1
BITMAP
0000
FF80
8000
BC00
B000
A800
A400
8200
8100
8080
ENDCHAR
STARTCHAR u21F2
ENCODING 8690
SWIDTH 1000 0
DWIDTH 10 0
BBX 10 10 0 -1
BITMAP
0000
8080
4080
2080
1280
0A80
0680
1E80
0080
FF80
ENDCHAR
STARTCHAR u21F3
ENCODING 8691
SWIDTH 1000 0
DWIDTH 10 0
BBX 10 10 0 -1
BITMAP
0000
0800
1400
2200
1400
1400
1400
2200
1400
0800
ENDCHAR
STARTCHAR u21F4
ENCODING 8692
SWIDTH 1000 0
DWIDTH 10 0
BBX 10 10 0 -1
BITMAP
0000
0000
0000
3200
4900
FF80
4900
3200
0000
0000
ENDCHAR
STARTCHAR u21F5
ENCODING 8693
SWIDTH 1000 0
DWIDTH 10 0
BBX 10 10 0 -1
BITMAP
0000
2200
2700
2A80
2200
2200
2200
AA00
7200
2200
ENDCHAR
STARTCHAR u21F6
ENCODING 8694
SWIDTH 1000 0
DWIDTH 10 0
BBX 10 10 0 -1
BITMAP
0000
0200
0100
FF80
0200
FF80
0200
FF80
0100
0200
ENDCHAR
STARTCHAR u21F7
ENCODING 8695
SWIDTH 1000 0
DWIDTH 10 0
BBX 10 10 0 -1
BITMAP
0000
0000
0000
2400
4400
FF80
4400
2400
0000
0000
ENDCHAR
STARTCHAR u21F8
ENCODING 8696
SWIDTH 1000 0
DWIDTH 10 0
BBX 10 10 0 -1
BITMAP
0000
0000
0000
1200
1100
FF80
1100
1200
0000
0000
ENDCHAR
STARTCHAR u21F9
ENCODING 8697
SWIDTH 1000 0
DWIDTH 10 0
BBX 10 10 0 -1
BITMAP
0000
0000
0000
2A00
4900
FF80
4900
2A00
0000
0000
ENDCHAR
STARTCHAR u21FA
ENCODING 8698
SWIDTH 1000 0
DWIDTH 10 0
BBX 10 10 0 -1
BITMAP
0000
0000
0000
2A00
4A00
FF80
4A00
2A00
0000
0000
ENDCHAR
STARTCHAR u21FB
ENCODING 8699
SWIDTH 1000 0
DWIDTH 10 0
BBX 10 10 0 -1
BITMAP
0000
0000
0000
2A00
2900
FF80
2900
2A00
0000
0000
ENDCHAR
STARTCHAR u21FC
ENCODING 8700
SWIDTH 1000 0
DWIDTH 10 0
BBX 10 10 0 -1
BITMAP
0000
0000
0000
5500
9480
FF80
9480
5500
0000
0000
ENDCHAR
STARTCHAR u21FD
ENCODING 8701
SWIDTH 1000 0
DWIDTH 10 0
BBX 10 10 0 -1
BITMAP
0000
0000
0000
2000
6000
BF80
6000
2000
0000
0000
ENDCHAR
STARTCHAR u21FE
ENCODING 8702
SWIDTH 1000 0
DWIDTH 10 0
BBX 10 10 0 -1
BITMAP
0000
0000
0000
0200
0300
FE80
0300
0200
0000
0000
ENDCHAR
STARTCHAR u21FF
ENCODING 8703
SWIDTH 1000 0
DWIDTH 10 0
BBX 10 10 0 -1
BITMAP
0000
0000
0000
2200
6300
BE80
6300
2200
0000
0000
ENDCHAR
STARTCHAR u230C
ENCODING 8972
SWIDTH 1000 0
DWIDTH 10 0
BBX 10 10 0 -1
BITMAP
0000
0000
0000
0000
0000
0380
0000
0800
0800
0800
ENDCHAR
STARTCHAR u230D
ENCODING 8973
SWIDTH 1000 0
DWIDTH 10 0
BBX 10 10 0 -1
BITMAP
0000
0000
0000
0000
0000
E000
0000
0800
0800
0800
ENDCHAR
STARTCHAR u230E
ENCODING 8974
SWIDTH 1000 0
DWIDTH 10 0
BBX 10 10 0 -1
BITMAP
0000
0800
0800
0800
0000
0380
0000
0000
0000
0000
ENDCHAR
STARTCHAR u230F
ENCODING 8975
SWIDTH 1000 0
DWIDTH 10 0
BBX 10 10 0 -1
BITMAP
0000
0800
0800
0800
0000
E000
0000
0000
0000
0000
ENDCHAR
STARTCHAR u2310
ENCODING 8976
SWIDTH 1000 0
DWIDTH 10 0
BBX 10 10 0 -1
BITMAP
0000
0000
0000
0000
3E00
2000
2000
0000
0000
0000
ENDCHAR
STARTCHAR u2311
ENCODING 8977
SWIDTH 1000 0
DWIDTH 10 0
BBX 10 10 0 -1
BITMAP
0000
0000
6300
5D00
2200
2200
2200
5D00
6300
0000
ENDCHAR
STARTCHAR u2312
ENCODING 8978
SWIDTH 1000 0
DWIDTH 10 0
BBX 10 10 0 -1
BITMAP
0000
0000
0000
3E00
4100
8080
8080
8080
0000
0000
ENDCHAR
STARTCHAR u2313
ENCODING 8979
SWIDTH 1000 0
DWIDTH 10 0
BBX 10 10 0 -1
BITMAP
0000
0000
0000
3E00
4100
8080
8080
FF80
0000
0000
ENDCHAR
STARTCHAR u2314
ENCODING 8980
SWIDTH 1000 0
DWIDTH 10 0
BBX 10 10 0 -1
BITMAP
0000
1C00
2200
4100
4100
2200
2200
1400
1400
0800
ENDCHAR
STARTCHAR u2315
ENCODING 8981
SWIDTH 1000 0
DWIDTH 10 0
BBX 10 10 0 -1
BITMAP
0000
0E00
1100
2080
2080
2080
1100
2E00
4000
8000
ENDCHAR
STARTCHAR u2316
ENCODING 8982
SWIDTH 1000 0
DWIDTH 10 0
BBX 10 10 0 -1
BITMAP
0000
0800
0800
1C00
2A00
FF80
2A00
1C00
0800
0800
ENDCHAR
STARTCHAR u2317
ENCODING 8983
SWIDTH 1000 0
DWIDTH 10 0
BBX 10 10 0 -1
BITMAP
0000
2200
2200
FF80
2200
2200
2200
FF80
2200
2200
ENDCHAR
STARTCHAR u2318
ENCODING 8984
SWIDTH 1000 0
DWIDTH 10 0
BBX 10 10 0 -1
BITMAP
0000
6300
9480
9480
7F00
1400
7F00
9480
9480
6300
ENDCHAR
STARTCHAR u2319
ENCODING 8985
SWIDTH 1000 0
DWIDTH 10 0
BBX 10 10 0 -1
BITMAP
0000
0000
0000
0000
2000
2000
3E00
0000
0000
0000
ENDCHAR
STARTCHAR u231A
ENCODING 8986
SWIDTH 1000 0
DWIDTH 10 0
BBX 10 10 0 -1
BITMAP
0000
1C00
3E00
4900
4900
4F00
4100
4100
3E00
1C00
ENDCHAR
STARTCHAR u231B
ENCODING 8987
SWIDTH 1000 0
DWIDTH 10 0
BBX 10 10 0 -1
BITMAP
0000
FF80
4100
4100
2200
1400
3E00
7F00
7F00
FF80
ENDCHAR
STARTCHAR u231C
ENCODING 8988
SWIDTH 1000 0
DWIDTH 10 0
BBX 10 10 0 -1
BITMAP
0000
F800
8000
8000
8000
8000
0000
0000
0000
0000
ENDCHAR
STARTCHAR u231D
ENCODING 8989
SWIDTH 1000 0
DWIDTH 10 0
BBX 10 10 0 -1
BITMAP
0000
0F80
0080
0080
0080
0080
0000
0000
0000
0000
ENDCHAR
STARTCHAR u231E
ENCODING 8990
SWIDTH 1000 0
DWIDTH 10 0
BBX 10 10 0 -1
BITMAP
0000
0000
0000
0000
0000
8000
8000
8000
8000
F800
ENDCHAR
STARTCHAR u231F
ENCODING 8991
SWIDTH 1000 0
DWIDTH 10 0
BBX 10 10 0 -1
BITMAP
0000
0000
0000
0000
0000
0080
0080
0080
0080
0F80
ENDCHAR
STARTCHAR u23CE
ENCODING 9166
SWIDTH 1000 0
DWIDTH 10 0
BBX 10 10 0 -1
BITMAP
0000
0380
0280
1280
3280
5E80
8080
5F00
3000
1000
ENDCHAR
STARTCHAR u23CF
ENCODING 9167
SWIDTH 1000 0
DWIDTH 10 0
BBX 10 10 0 -1
BITMAP
0000
0000
0800
1C00
3E00
7F00
0000
7F00
7F00
0000
ENDCHAR
STARTCHAR u23E8
ENCODING 9192
SWIDTH 1000 0
DWIDTH 10 0
BBX 10 10 0 -1
BITMAP
0000
0000
0000
0000
0000
1700
3500
1500
1500
1700
ENDCHAR
STARTCHAR u23E9
ENCODING 9193
SWIDTH 1000 0
DWIDTH 10 0
BBX 10 10 0 -1
BITMAP
0000
0000
0000
4400
6600
7700
6600
4400
0000
0000
ENDCHAR
STARTCHAR u23EA
ENCODING 9194
SWIDTH 1000 0
DWIDTH 10 0
BBX 10 10 0 -1
BITMAP
0000
0000
0000
1100
3300
7700
3300
1100
0000
0000
ENDCHAR
STARTCHAR u23EB
ENCODING 9195
SWIDTH 1000 0
DWIDTH 10 0
BBX 10 10 0 -1
BITMAP
0000
0000
0800
1C00
3E00
0000
0800
1C00
3E00
0000
ENDCHAR
STARTCHAR u23EC
ENCODING 9196
SWIDTH 1000 0
DWIDTH 10 0
BBX 10 10 0 -1
BITMAP
0000
0000
3E00
1C00
0800
0000
3E00
1C00
0800
0000
ENDCHAR
STARTCHAR u23ED
ENCODING 9197
SWIDTH 1000 0
DWIDTH 10 0
BBX 10 10 0 -1
BITMAP
0000
0000
0000
4900
6D00
7F00
6D00
4900
0000
0000
ENDCHAR
STARTCHAR u23EE
ENCODING 9198
SWIDTH 1000 0
DWIDTH 10 0
BBX 10 10 0 -1
BITMAP
0000
0000
0000
4900
5B00
7F00
5B00
4900
0000
0000
ENDCHAR
STARTCHAR u23EF
ENCODING 9199
SWIDTH 1000 0
DWIDTH 10 0
BBX 10 10 0 -1
BITMAP
0000
0000
0000
4500
6500
7500
6500
4500
0000
0000
ENDCHAR
STARTCHAR u23F3
ENCODING 9203
SWIDTH 1000 0
DWIDTH 10 0
BBX 10 10 0 -1
BITMAP
0000
FF80
4100
7F00
3E00
1C00
2A00
4900
7F00
FF80
ENDCHAR
STARTCHAR u23F4
ENCODING 9204
SWIDTH 1000 0
DWIDTH 10 0
BBX 10 10 0 -1
BITMAP
0000
0000
0000
0400
0C00
1C00
0C00
0400
0000
0000
ENDCHAR
STARTCHAR u23F5
ENCODING 9205
SWIDTH 1000 0
DWIDTH 10 0
BBX 10 10 0 -1
BITMAP
0000
0000
0000
1000
1800
1C00
1800
1000
0000
0000
ENDCHAR
STARTCHAR u23F6
ENCODING 9206
SWIDTH 1000 0
DWIDTH 10 0
BBX 10 10 0 -1
BITMAP
0000
0000
0000
0000
0800
1C00
3E00
0000
0000
0000
ENDCHAR
STARTCHAR u23F7
ENCODING 9207
SWIDTH 1000 0
DWIDTH 10 0
BBX 10 10 0 -1
BITMAP
0000
0000
0000
0000
3E00
1C00
0800
0000
0000
0000
ENDCHAR
STARTCHAR u23F8
ENCODING 9208
SWIDTH 1000 0
DWIDTH 10 0
BBX 10 10 0 -1
BITMAP
0000
0000
0000
3600
3600
3600
3600
3600
0000
0000
ENDCHAR
STARTCHAR u23F9
ENCODING 9209
SWIDTH 1000 0
DWIDTH 10 0
BBX 10 10 0 -1
BITMAP
0000
0000
0000
3E00
3E00
3E00
3E00
3E00
0000
0000
ENDCHAR
STARTCHAR u23FA
ENCODING 9210
SWIDTH 1000 0
DWIDTH 10 0
BBX 10 10 0 -1
BITMAP
0000
0000
0000
1C00
3E00
3E00
3E00
1C00
0000
0000
ENDCHAR
STARTCHAR u23FB
ENCODING 9211
SWIDTH 1000 0
DWIDTH 10 0
BBX 10 10 0 -1
BITMAP
0000
0000
0800
2A00
4900
4900
4100
2200
1C00
0000
ENDCHAR
STARTCHAR u23FC
ENCODING 9212
SWIDTH 1000 0
DWIDTH 10 0
BBX 10 10 0 -1
BITMAP
0000
0000
1C00
2200
4900
4900
4900
2200
1C00
0000
ENDCHAR
STARTCHAR u23FD
ENCODING 9213
SWIDTH 1000 0
DWIDTH 10 0
BBX 10 10 0 -1
BITMAP
0000
0000
0000
0800
0800
0800
0800
0800
0000
0000
ENDCHAR
STARTCHAR u23FE
ENCODING 9214
SWIDTH 1000 0
DWIDTH 10 0
BBX 10 10 0 -1
BITMAP
0000
3800
7000
E000
E000
E000
F000
F880
7F00
3E00
ENDCHAR
STARTCHAR u23FF
ENCODING 9215
SWIDTH 1000 0
DWIDTH 10 0
BBX 10 10 0 -1
BITMAP
0000
0000
0380
0D00
3280
C280
3280
0D00
0380
0000
ENDCHAR
STARTCHAR u2460
ENCODING 9312
SWIDTH 1000 0
DWIDTH 10 0
BBX 10 10 0 -1
BITMAP
0000
3E00
4100
8880
9880
8880
8880
9C80
4100
3E00
ENDCHAR
STARTCHAR u2461
ENCODING 9313
SWIDTH 1000 0
DWIDTH 10 0
BBX 10 10 0 -1
BITMAP
0000
3E00
4100
9880
8480
8880
9080
9C80
4100
3E00
ENDCHAR
STARTCHAR u2462
ENCODING 9314
SWIDTH 1000 0
DWIDTH 10 0
BBX 10 10 0 -1
BITMAP
0000
3E00
4100
9880
8480
8880
8480
9880
4100
3E00
ENDCHAR
STARTCHAR u2463
ENCODING 9315
SWIDTH 1000 0
DWIDTH 10 0
BBX 10 10 0 -1
BITMAP
0000
3E00
4100
8C80
9480
9480
9E80
8480
4100
3E00
ENDCHAR
STARTCHAR u2464
ENCODING 9316
SWIDTH 1000 0
DWIDTH 10 0
BBX 10 10 0 -1
BITMAP
0000
3E00
4100
9C80
9080
9880
8480
9880
4100
3E00
ENDCHAR
STARTCHAR u2465
ENCODING 9317
SWIDTH 1000 0
DWIDTH 10 0
BBX 10 10 0 -1
BITMAP
0000
3E00
4100
8C80
9080
9C80
9480
9C80
4100
3E00
ENDCHAR
STARTCHAR u2466
ENCODING 9318
SWIDTH 1000 0
DWIDTH 10 0
BBX 10 10 0 -1
BITMAP
0000
3E00
4100
9C80
8480
8880
8880
8880
4100
3E00
ENDCHAR
STARTCHAR u2467
ENCODING 9319
SWIDTH 1000 0
DWIDTH 10 0
BBX 10 10 0 -1
BITMAP
0000
3E00
4100
9C80
9480
9C80
9480
9C80
4100
3E00
ENDCHAR
STARTCHAR u2468
ENCODING 9320
SWIDTH 1000 0
DWIDTH 10 0
BBX 10 10 0 -1
BITMAP
0000
3E00
4100
9C80
9480
9C80
8480
9880
4100
3E00
ENDCHAR
STARTCHAR u2469
ENCODING 9321
SWIDTH 1000 0
DWIDTH 10 0
BBX 10 10 0 -1
BITMAP
0000
3E00
4100
A680
AA80
AA80
AA80
AC80
4100
3E00
ENDCHAR
STARTCHAR u246A
ENCODING 9322
SWIDTH 1000 0
DWIDTH 10 0
BBX 10 10 0 -1
BITMAP
0000
3E00
4100
9280
B680
9280
9280
9280
4100
3E00
ENDCHAR
STARTCHAR u246B
ENCODING 9323
SWIDTH 1000 0
DWIDTH 10 0
BBX 10 10 0 -1
BITMAP
0000
3E00
4100
AC80
A280
A480
A880
AE80
4100
3E00
ENDCHAR
STARTCHAR u246C
ENCODING 9324
SWIDTH 1000 0
DWIDTH 10 0
BBX 10 10 0 -1
BITMAP
0000
3E00
4100
AC80
A280
A480
A280
AC80
4100
3E00
ENDCHAR
STARTCHAR u246D
ENCODING 9325
SWIDTH 1000 0
DWIDTH 10 0
BBX 10 10 0 -1
BITMAP
0000
3E00
4100
A680
AA80
AA80
AF80
A280
4100
3E00
ENDCHAR
STARTCHAR u246E
ENCODING 9326
SWIDTH 1000 0
DWIDTH 10 0
BBX 10 10 0 -1
BITMAP
0000
3E00
4100
AE80
A880
AC80
A280
AC80
4100
3E00
ENDCHAR
STARTCHAR u246F
ENCODING 9327
SWIDTH 1000 0
DWIDTH 10 0
BBX 10 10 0 -1
BITMAP
0000
3E00
4100
A680
A880
AE80
AA80
AE80
4100
3E00
ENDCHAR
STARTCHAR u2470
ENCODING 9328
SWIDTH 1000 0
DWIDTH 10 0
BBX 10 10 0 -1
BITMAP
0000
3E00
4100
AE80
A280
A480
A480
A480
4100
3E00
ENDCHAR
STARTCHAR u2471
ENCODING 9329
SWIDTH 1000 0
DWIDTH 10 0
BBX 10 10 0 -1
BITMAP
0000
3E00
4100
AE80
AA80
AE80
AA80
AE80
4100
3E00
ENDCHAR
STARTCHAR u2472
ENCODING 9330
SWIDTH 1000 0
DWIDTH 10 0
BBX 10 10 0 -1
BITMAP
0000
3E00
4100
AE80
AA80
AE80
A280
AC80
4100
3E00
ENDCHAR
STARTCHAR u2473
ENCODING 9331
SWIDTH 1000 0
DWIDTH 10 0
BBX 10 10 0 -1
BITMAP
0000
3E00
4100
B480
8A80
9A80
AA80
B480
4100
3E00
ENDCHAR
STARTCHAR u2474
ENCODING 9332
SWIDTH 1000 0
DWIDTH 10 0
BBX 10 10 0 -1
BITMAP
0000
4100
8080
8880
9880
8880
8880
9C80
8080
4100
ENDCHAR
STARTCHAR u2475
ENCODING 9333
SWIDTH 1000 0
DWIDTH 10 0
BBX 10 10 0 -1
BITMAP
0000
4100
8080
9880
8480
8880
9080
9C80
8080
4100
ENDCHAR
STARTCHAR u2476
ENCODING 9334
SWIDTH 1000 0
DWIDTH 10 0
BBX 10 10 0 -1
BITMAP
0000
4100
8080
9880
8480
8880
8480
9880
8080
4100
ENDCHAR
STARTCHAR u2477
ENCODING 9335
SWIDTH 1000 0
DWIDTH 10 0
BBX 10 10 0 -1
BITMAP
0000
4100
8080
8C80
9480
9480
9E80
8480
8080
4100
ENDCHAR
STARTCHAR u2478
ENCODING 9336
SWIDTH 1000 0
DWIDTH 10 0
BBX 10 10 0 -1
BITMAP
0000
4100
8080
9C80
9080
9880
8480
9880
8080
4100
ENDCHAR
STARTCHAR u2479
ENCODING 9337
SWIDTH 1000 0
DWIDTH 10 0
BBX 10 10 0 -1
BITMAP
0000
4100
8080
8C80
9080
9C80
9480
9C80
8080
4100
ENDCHAR
STARTCHAR u247A
ENCODING 9338
SWIDTH 1000 0
DWIDTH 10 0
BBX 10 10 0 -1
BITMAP
0000
4100
8080
9C80
8480
8880
8880
8880
8080
4100
ENDCHAR
STARTCHAR u247B
ENCODING 9339
SWIDTH 1000 0
DWIDTH 10 0
BBX 10 10 0 -1
BITMAP
0000
4100
8080
9C80
9480
9C80
9480
9C80
8080
4100
ENDCHAR
STARTCHAR u247C
ENCODING 9340
SWIDTH 1000 0
DWIDTH 10 0
BBX 10 10 0 -1
BITMAP
0000
4100
8080
9C80
9480
9C80
8480
9880
8080
4100
ENDCHAR
STARTCHAR u247D
ENCODING 9341
SWIDTH 1000 0
DWIDTH 10 0
BBX 10 10 0 -1
BITMAP
0000
4100
8080
A680
AA80
AA80
AA80
AC80
8080
4100
ENDCHAR
STARTCHAR u247E
ENCODING 9342
SWIDTH 1000 0
DWIDTH 10 0
BBX 10 10 0 -1
BITMAP
0000
4100
8080
9280
B680
9280
9280
9280
8080
4100
ENDCHAR
STARTCHAR u247F
ENCODING 9343
SWIDTH 1000 0
DWIDTH 10 0
BBX 10 10 0 -1
BITMAP
0000
4100
8080
AC80
A280
A480
A880
AE80
8080
4100
ENDCHAR
STARTCHAR u2480
ENCODING 9344
SWIDTH 1000 0
DWIDTH 10 0
BBX 10 10 0 -1
BITMAP
0000
4100
8080
AC80
A280
A480
A280
AC80
8080
4100
ENDCHAR
STARTCHAR u2481
ENCODING 9345
SWIDTH 1000 0
DWIDTH 10 0
BBX 10 10 0 -1
BITMAP
0000
4100
8080
A680
AA80
AA80
AF80
A280
8080
4100
ENDCHAR
STARTCHAR u2482
ENCODING 9346
SWIDTH 1000 0
DWIDTH 10 0
BBX 10 10 0 -1
BITMAP
0000
4100
8080
AE80
A880
AC80
A280
AC80
8080
4100
ENDCHAR
STARTCHAR u2483
ENCODING 9347
SWIDTH 1000 0
DWIDTH 10 0
BBX 10 10 0 -1
BITMAP
0000
4100
8080
A680
A880
AE80
AA80
AE80
8080
4100
ENDCHAR
STARTCHAR u2484
ENCODING 9348
SWIDTH 1000 0
DWIDTH 10 0
BBX 10 10 0 -1
BITMAP
0000
4100
8080
AE80
A280
A480
A480
A480
8080
4100
ENDCHAR
STARTCHAR u2485
ENCODING 9349
SWIDTH 1000 0
DWIDTH 10 0
BBX 10 10 0 -1
BITMAP
0000
4100
8080
AE80
AA80
AE80
AA80
AE80
8080
4100
ENDCHAR
STARTCHAR u2486
ENCODING 9350
SWIDTH 1000 0
DWIDTH 10 0
BBX 10 10 0 -1
BITMAP
0000
4100
8080
AE80
AA80
AE80
A280
AC80
8080
4100
ENDCHAR
STARTCHAR u2487
ENCODING 9351
SWIDTH 1000 0
DWIDTH 10 0
BBX 10 10 0 -1
BITMAP
0000
4100
8080
B480
8A80
9A80
AA80
B480
8080
4100
ENDCHAR
STARTCHAR u2488
ENCODING 9352
SWIDTH 1000 0
DWIDTH 10 0
BBX 10 10 0 -1
BITMAP
0000
0000
0800
1800
0800
0800
0800
0800
1D00
0000
ENDCHAR
STARTCHAR u2489
ENCODING 9353
SWIDTH 1000 0
DWIDTH 10 0
BBX 10 10 0 -1
BITMAP
0000
0000
1800
2400
0400
0800
1000
2000
3D00
0000
ENDCHAR
STARTCHAR u248A
ENCODING 9354
SWIDTH 1000 0
DWIDTH 10 0
BBX 10 10 0 -1
BITMAP
0000
0000
1800
2400
0400
0800
0400
2400
1900
0000
ENDCHAR
STARTCHAR u248B
ENCODING 9355
SWIDTH 1000 0
DWIDTH 10 0
BBX 10 10 0 -1
BITMAP
0000
0000
0C00
1400
1400
2400
2400
3C00
0500
0000
ENDCHAR
STARTCHAR u248C
ENCODING 9356
SWIDTH 1000 0
DWIDTH 10 0
BBX 10 10 0 -1
BITMAP
0000
0000
3C00
2000
2000
3800
0400
0400
3900
0000
ENDCHAR
STARTCHAR u248D
ENCODING 9357
SWIDTH 1000 0
DWIDTH 10 0
BBX 10 10 0 -1
BITMAP
0000
0000
1800
2400
2000
3800
2400
2400
1900
0000
ENDCHAR
STARTCHAR u248E
ENCODING 9358
SWIDTH 1000 0
DWIDTH 10 0
BBX 10 10 0 -1
BITMAP
0000
0000
3C00
0400
0400
0800
0800
0800
0900
0000
ENDCHAR
STARTCHAR u248F
ENCODING 9359
SWIDTH 1000 0
DWIDTH 10 0
BBX 10 10 0 -1
BITMAP
0000
0000
1800
2400
2400
1800
2400
2400
1900
0000
ENDCHAR
STARTCHAR u2490
ENCODING 9360
SWIDTH 1000 0
DWIDTH 10 0
BBX 10 10 0 -1
BITMAP
0000
0000
1800
2400
2400
1C00
0400
2400
1900
0000
ENDCHAR
STARTCHAR u2491
ENCODING 9361
SWIDTH 1000 0
DWIDTH 10 0
BBX 10 10 0 -1
BITMAP
0000
0000
4C00
D200
5200
5200
5200
5200
4C80
0000
ENDCHAR
STARTCHAR u2492
ENCODING 9362
SWIDTH 1000 0
DWIDTH 10 0
BBX 10 10 0 -1
BITMAP
0000
0000
4400
CC00
4400
4400
4400
4400
EE80
0000
ENDCHAR
STARTCHAR u2493
ENCODING 9363
SWIDTH 1000 0
DWIDTH 10 0
BBX 10 10 0 -1
BITMAP
0000
0000
4C00
D200
4200
4400
4800
5000
5E80
0000
ENDCHAR
STARTCHAR u2494
ENCODING 9364
SWIDTH 1000 0
DWIDTH 10 0
BBX 10 10 0 -1
BITMAP
0000
0000
4C00
D200
4200
4400
4200
5200
4C80
0000
ENDCHAR
STARTCHAR u2495
ENCODING 9365
SWIDTH 1000 0
DWIDTH 10 0
BBX 10 10 0 -1
BITMAP
0000
0000
4600
CA00
4A00
5200
5200
5E00
4280
0000
ENDCHAR
STARTCHAR u2496
ENCODING 9366
SWIDTH 1000 0
DWIDTH 10 0
BBX 10 10 0 -1
BITMAP
0000
0000
5E00
D000
5000
5C00
4200
4200
5C80
0000
ENDCHAR
STARTCHAR u2497
ENCODING 9367
SWIDTH 1000 0
DWIDTH 10 0
BBX 10 10 0 -1
BITMAP
0000
0000
4C00
D200
5000
5C00
5200
5200
4C80
0000
ENDCHAR
STARTCHAR u2498
ENCODING 9368
SWIDTH 1000 0
DWIDTH 10 0
BBX 10 10 0 -1
BITMAP
0000
0000
5E00
C200
4200
4400
4400
4400
4480
0000
ENDCHAR
STARTCHAR u2499
ENCODING 9369
SWIDTH 1000 0
DWIDTH 10 0
BBX 10 10 0 -1
BITMAP
0000
0000
4C00
D200
5200
4C00
5200
5200
4C80
0000
ENDCHAR
STARTCHAR u249A
ENCODING 9370
SWIDTH 1000 0
DWIDTH 10 0
BBX 10 10 0 -1
BITMAP
0000
0000
4C00
D200
5200
4E00
4200
5200
4C80
0000
ENDCHAR
STARTCHAR u249B
ENCODING 9371
SWIDTH 1000 0
DWIDTH 10 0
BBX 10 10 0 -1
BITMAP
0000
0000
4400
AA00
2A00
4A00
4A00
8A00
E480
0000
ENDCHAR
STARTCHAR u249C
ENCODING 9372
SWIDTH 1000 0
DWIDTH 10 0
BBX 10 10 0 -1
BITMAP
0000
4100
8080
9880
8480
9C80
A480
9C80
8080
4100
ENDCHAR
STARTCHAR u249D
ENCODING 9373
SWIDTH 1000 0
DWIDTH 10 0
BBX 10 10 0 -1
BITMAP
0000
4100
8080
9080
9C80
9280
9280
9C80
8080
4100
ENDCHAR
STARTCHAR u249E
ENCODING 9374
SWIDTH 1000 0
DWIDTH 10 0
BBX 10 10 0 -1
BITMAP
0000
4100
8080
8080
9C80
A080
A080
9C80
8080
4100
ENDCHAR
STARTCHAR u249F
ENCODING 9375
SWIDTH 1000 0
DWIDTH 10 0
BBX 10 10 0 -1
BITMAP
0000
4100
8080
8480
9C80
A480
A480
9C80
8080
4100
ENDCHAR
STARTCHAR u24A0
ENCODING 9376
SWIDTH 1000 0
DWIDTH 10 0
BBX 10 10 0 -1
BITMAP
0000
4100
8080
9880
A480
BC80
A080
9880
8080
4100
ENDCHAR
STARTCHAR u24A1
ENCODING 9377
SWIDTH 1000 0
DWIDTH 10 0
BBX 10 10 0 -1
BITMAP
0000
4100
8080
8C80
9080
BC80
9080
9080
8080
4100
ENDCHAR
STARTCHAR u24A2
ENCODING 9378
SWIDTH 1000 0
DWIDTH 10 0
BBX 10 10 0 -1
BITMAP
0000
4100
8080
9C80
A480
A480
9C80
8480
9880
4100
ENDCHAR
STARTCHAR u24A3
ENCODING 9379
SWIDTH 1000 0
DWIDTH 10 0
BBX 10 10 0 -1
BITMAP
0000
4100
8080
9080
9C80
9280
9280
9280
8080
4100
ENDCHAR
STARTCHAR u24A4
ENCODING 9380
SWIDTH 1000 0
DWIDTH 10 0
BBX 10 10 0 -1
BITMAP
0000
4100
8080
8880
8080
9880
8880
9C80
8080
4100
ENDCHAR
STARTCHAR u24A5
ENCODING 9381
SWIDTH 1000 0
DWIDTH 10 0
BBX 10 10 0 -1
BITMAP
0000
4100
8480
8080
9C80
8480
8480
8480
9880
4100
ENDCHAR
STARTCHAR u24A6
ENCODING 9382
SWIDTH 1000 0
DWIDTH 10 0
BBX 10 10 0 -1
BITMAP
0000
4100
8080
9080
9680
9880
9480
9280
8080
4100
ENDCHAR
STARTCHAR u24A7
ENCODING 9383
SWIDTH 1000 0
DWIDTH 10 0
BBX 10 10 0 -1
BITMAP
0000
4100
8080
9880
8880
8880
8880
8C80
8080
4100
ENDCHAR
STARTCHAR u24A8
ENCODING 9384
SWIDTH 1000 0
DWIDTH 10 0
BBX 10 10 0 -1
BITMAP
0000
4100
8080
8080
B480
AA80
AA80
AA80
8080
4100
ENDCHAR
STARTCHAR u24A9
ENCODING 9385
SWIDTH 1000 0
DWIDTH 10 0
BBX 10 10 0 -1
BITMAP
0000
4100
8080
8080
9C80
9280
9280
9280
8080
4100
ENDCHAR
STARTCHAR u24AA
ENCODING 9386
SWIDTH 1000 0
DWIDTH 10 0
BBX 10 10 0 -1
BITMAP
0000
4100
8080
8080
8C80
9280
9280
8C80
8080
4100
ENDCHAR
STARTCHAR u24AB
ENCODING 9387
SWIDTH 1000 0
DWIDTH 10 0
BBX 10 10 0 -1
BITMAP
0000
4100
8080
8080
9C80
9280
9280
9C80
9080
4100
ENDCHAR
STARTCHAR u24AC
ENCODING 9388
SWIDTH 1000 0
DWIDTH 10 0
BBX 10 10 0 -1
BITMAP
0000
4100
8080
8080
9C80
A480
A480
9C80
8480
4100
ENDCHAR
STARTCHAR u24AD
ENCODING 9389
SWIDTH 1000 0
DWIDTH 10 0
BBX 10 10 0 -1
BITMAP
0000
4100
8080
8080
9480
9880
9080
9080
8080
4100
ENDCHAR
STARTCHAR u24AE
ENCODING 9390
SWIDTH 1000 0
DWIDTH 10 0
BBX 10 10 0 -1
BITMAP
0000
4100
8080
8080
8E80
9880
8680
9C80
8080
4100
ENDCHAR
STARTCHAR u24AF
ENCODING 9391
SWIDTH 1000 0
DWIDTH 10 0
BBX 10 10 0 -1
BITMAP
0000
4100
8080
9080
BC80
9080
9080
8C80
8080
4100
ENDCHAR
STARTCHAR u24B0
ENCODING 9392
SWIDTH 1000 0
DWIDTH 10 0
BBX 10 10 0 -1
BITMAP
0000
4100
8080
8080
A480
A480
A480
9C80
8080
4100
ENDCHAR
STARTCHAR u24B1
ENCODING 9393
SWIDTH 1000 0
DWIDTH 10 0
BBX 10 10 0 -1
BITMAP
0000
4100
8080
8080
9280
9280
9480
9880
8080
4100
ENDCHAR
STARTCHAR u24B2
ENCODING 9394
SWIDTH 1000 0
DWIDTH 10 0
BBX 10 10 0 -1
BITMAP
0000
4100
8080
8080
8080
AA80
AA80
9480
8080
4100
ENDCHAR
STARTCHAR u24B3
ENCODING 9395
SWIDTH 1000 0
DWIDTH 10 0
BBX 10 10 0 -1
BITMAP
0000
4100
8080
8080
A280
9480
8880
B680
8080
4100
ENDCHAR
STARTCHAR u24B4
ENCODING 9396
SWIDTH 1000 0
DWIDTH 10 0
BBX 10 10 0 -1
BITMAP
0000
4100
8080
8080
9280
9280
8A80
8480
9880
4100
ENDCHAR
STARTCHAR u24B5
ENCODING 9397
SWIDTH 1000 0
DWIDTH 10 0
BBX 10 10 0 -1
BITMAP
0000
4100
8080
8080
9E80
8480
8880
9E80
8080
4100
ENDCHAR
STARTCHAR u24B6
ENCODING 9398
SWIDTH 1000 0
DWIDTH 10 0
BBX 10 10 0 -1
BITMAP
0000
3E00
4100
8880
9480
9480
BE80
A280
4100
3E00
ENDCHAR
STARTCHAR u24B7
ENCODING 9399
SWIDTH 1000 0
DWIDTH 10 0
BBX 10 10 0 -1
BITMAP
0000
3E00
4100
BC80
A280
BC80
A280
BC80
4100
3E00
ENDCHAR
STARTCHAR u24B8
ENCODING 9400
SWIDTH 1000 0
DWIDTH 10 0
BBX 10 10 0 -1
BITMAP
0000
3E00
4100
9C80
A280
A080
A280
9C80
4100
3E00
ENDCHAR
STARTCHAR u24B9
ENCODING 9401
SWIDTH 1000 0
DWIDTH 10 0
BBX 10 10 0 -1
BITMAP
0000
3E00
4100
BC80
A280
A280
A280
BC80
4100
3E00
ENDCHAR
STARTCHAR u24BA
ENCODING 9402
SWIDTH 1000 0
DWIDTH 10 0
BBX 10 10 0 -1
BITMAP
0000
3E00
4100
BE80
A080
BC80
A080
BE80
4100
3E00
ENDCHAR
STARTCHAR u24BB
ENCODING 9403
SWIDTH 1000 0
DWIDTH 10 0
BBX 10 10 0 -1
BITMAP
0000
3E00
4100
BE80
A080
BC80
A080
A080
4100
3E00
ENDCHAR
STARTCHAR u24BC
ENCODING 9404
SWIDTH 1000 0
DWIDTH 10 0
BBX 10 10 0 -1
BITMAP
0000
3E00
4100
9E80
A080
A680
A280
9E80
4100
3E00
ENDCHAR
STARTCHAR u24BD
ENCODING 9405
SWIDTH 1000 0
DWIDTH 10 0
BBX 10 10 0 -1
BITMAP
0000
3E00
4100
A280
A280
BE80
A280
A280
4100
3E00
ENDCHAR
STARTCHAR u24BE
ENCODING 9406
SWIDTH 1000 0
DWIDTH 10 0
BBX 10 10 0 -1
BITMAP
0000
3E00
4100
9C80
8880
8880
8880
9C80
4100
3E00
ENDCHAR
STARTCHAR u24BF
ENCODING 9407
SWIDTH 1000 0
DWIDTH 10 0
BBX 10 10 0 -1
BITMAP
0000
3E00
4100
8280
8280
8280
A280
9C80
4100
3E00
ENDCHAR
STARTCHAR u24C0
ENCODING 9408
SWIDTH 1000 0
DWIDTH 10 0
BBX 10 10 0 -1
BITMAP
0000
3E00
4100
A280
AC80
B080
AC80
A280
4100
3E00
ENDCHAR
STARTCHAR u24C1
ENCODING 9409
SWIDTH 1000 0
DWIDTH 10 0
BBX 10 10 0 -1
BITMAP
0000
3E00
4100
A080
A080
A080
A080
BE80
4100
3E00
ENDCHAR
STARTCHAR u24C2
ENCODING 9410
SWIDTH 1000 0
DWIDTH 10 0
BBX 10 10 0 -1
BITMAP
0000
3E00
4100
A280
B680
AA80
A280
A280
4100
3E00
ENDCHAR
STARTCHAR u24C3
ENCODING 9411
SWIDTH 1000 0
DWIDTH 10 0
BBX 10 10 0 -1
BITMAP
0000
3E00
4100
A280
B280
AA80
A680
A280
4100
3E00
ENDCHAR
STARTCHAR u24C4
ENCODING 9412
SWIDTH 1000 0
DWIDTH 10 0
BBX 10 10 0 -1
BITMAP
0000
3E00
4100
9C80
A280
A280
A280
9C80
4100
3E00
ENDCHAR
STARTCHAR u24C5
ENCODING 9413
SWIDTH 1000 0
DWIDTH 10 0
BBX 10 10 0 -1
BITMAP
0000
3E00
4100
BC80
A280
A280
BC80
A080
4100
3E00
ENDCHAR
STARTCHAR u24C6
ENCODING 9414
SWIDTH 1000 0
DWIDTH 10 0
BBX 10 10 0 -1
BITMAP
0000
3E00
4100
9C80
A280
A280
A480
9A80
4100
3E00
ENDCHAR
STARTCHAR u24C7
ENCODING 9415
SWIDTH 1000 0
DWIDTH 10 0
BBX 10 10 0 -1
BITMAP
0000
3E00
4100
BC80
A280
BC80
A480
A280
4100
3E00
ENDCHAR
STARTCHAR u24C8
ENCODING 9416
SWIDTH 1000 0
DWIDTH 10 0
BBX 10 10 0 -1
BITMAP
0000
3E00
4100
9E80
A080
9C80
8280
BC80
4100
3E00
ENDCHAR
STARTCHAR u24C9
ENCODING 9417
SWIDTH 1000 0
DWIDTH 10 0
BBX 10 10 0 -1
BITMAP
0000
3E00
4100
BE80
8880
8880
8880
8880
4100
3E00
ENDCHAR
STARTCHAR u24CA
ENCODING 9418
SWIDTH 1000 0
DWIDTH 10 0
BBX 10 10 0 -1
BITMAP
0000
3E00
4100
A280
A280
A280
A280
9C80
4100
3E00
ENDCHAR
STARTCHAR u24CB
ENCODING 9419
SWIDTH 1000 0
DWIDTH 10 0
BBX 10 10 0 -1
BITMAP
0000
3E00
4100
A280
A280
9480
9480
8880
4100
3E00
ENDCHAR
STARTCHAR u24CC
ENCODING 9420
SWIDTH 1000 0
DWIDTH 10 0
BBX 10 10 0 -1
BITMAP
0000
3E00
4100
AA80
AA80
AA80
9480
9480
4100
3E00
ENDCHAR
STARTCHAR u24CD
ENCODING 9421
SWIDTH 1000 0
DWIDTH 10 0
BBX 10 10 0 -1
BITMAP
0000
3E00
4100
A280
9480
8880
9480
A280
4100
3E00
ENDCHAR
STARTCHAR u24CE
ENCODING 9422
SWIDTH 1000 0
DWIDTH 10 0
BBX 10 10 0 -1
BITMAP
0000
3E00
4100
A280
9480
8880
8880
8880
4100
3E00
ENDCHAR
STARTCHAR u24CF
ENCODING 9423
SWIDTH 1000 0
DWIDTH 10 0
BBX 10 10 0 -1
BITMAP
0000
3E00
4100
BE80
8480
8880
9080
BE80
4100
3E00
ENDCHAR
STARTCHAR u24D0
ENCODING 9424
SWIDTH 1000 0
DWIDTH 10 0
BBX 10 10 0 -1
BITMAP
0000
3E00
4100
9880
8480
9C80
A480
9C80
4100
3E00
ENDCHAR
STARTCHAR u24D1
ENCODING 9425
SWIDTH 1000 0
DWIDTH 10 0
BBX 10 10 0 -1
BITMAP
0000
3E00
4100
9080
9C80
9280
9280
9C80
4100
3E00
ENDCHAR
STARTCHAR u24D2
ENCODING 9426
SWIDTH 1000 0
DWIDTH 10 0
BBX 10 10 0 -1
BITMAP
0000
3E00
4100
8080
9C80
A080
A080
9C80
4100
3E00
ENDCHAR
STARTCHAR u24D3
ENCODING 9427
SWIDTH 1000 0
DWIDTH 10 0
BBX 10 10 0 -1
BITMAP
0000
3E00
4100
8480
9C80
A480
A480
9C80
4100
3E00
ENDCHAR
STARTCHAR u24D4
ENCODING 9428
SWIDTH 1000 0
DWIDTH 10 0
BBX 10 10 0 -1
BITMAP
0000
3E00
4100
9880
A480
BC80
A080
9880
4100
3E00
ENDCHAR
STARTCHAR u24D5
ENCODING 9429
SWIDTH 1000 0
DWIDTH 10 0
BBX 10 10 0 -1
BITMAP
0000
3E00
4100
8C80
9080
BC80
9080
9080
4100
3E00
ENDCHAR
STARTCHAR u24D6
ENCODING 9430
SWIDTH 1000 0
DWIDTH 10 0
BBX 10 10 0 -1
BITMAP
0000
3E00
4100
9C80
A480
A480
9C80
8480
5900
3E00
ENDCHAR
STARTCHAR u24D7
ENCODING 9431
SWIDTH 1000 0
DWIDTH 10 0
BBX 10 10 0 -1
BITMAP
0000
3E00
4100
9080
9C80
9280
9280
9280
4100
3E00
ENDCHAR
STARTCHAR u24D8
ENCODING 9432
SWIDTH 1000 0
DWIDTH 10 0
BBX 10 10 0 -1
BITMAP
0000
3E00
4100
8880
8080
9880
8880
9C80
4100
3E00
ENDCHAR
STARTCHAR u24D9
ENCODING 9433
SWIDTH 1000 0
DWIDTH 10 0
BBX 10 10 0 -1
BITMAP
0000
3E00
4500
8080
9C80
8480
8480
8480
5900
3E00
ENDCHAR
STARTCHAR u24DA
ENCODING 9434
SWIDTH 1000 0
DWIDTH 10 0
BBX 10 10 0 -1
BITMAP
0000
3E00
4100
9080
9680
9880
9480
9280
4100
3E00
ENDCHAR
STARTCHAR u24DB
ENCODING 9435
SWIDTH 1000 0
DWIDTH 10 0
BBX 10 10 0 -1
BITMAP
0000
3E00
4100
9880
8880
8880
8880
8C80
4100
3E00
ENDCHAR
STARTCHAR u24DC
ENCODING 9436
SWIDTH 1000 0
DWIDTH 10 0
BBX 10 10 0 -1
BITMAP
0000
3E00
4100
8080
B480
AA80
AA80
AA80
4100
3E00
ENDCHAR
STARTCHAR u24DD
ENCODING 9437
SWIDTH 1000 0
DWIDTH 10 0
BBX 10 10 0 -1
BITMAP
0000
3E00
4100
8080
9C80
9280
9280
9280
4100
3E00
ENDCHAR
STARTCHAR u24DE
ENCODING 9438
SWIDTH 1000 0
DWIDTH 10 0
BBX 10 10 0 -1
BITMAP
0000
3E00
4100
8080
8C80
9280
9280
8C80
4100
3E00
ENDCHAR
STARTCHAR u24DF
ENCODING 9439
SWIDTH 1000 0
DWIDTH 10 0
BBX 10 10 0 -1
BITMAP
0000
3E00
4100
8080
9C80
9280
9280
9C80
5100
3E00
ENDCHAR
STARTCHAR u24E0
ENCODING 9440
SWIDTH 1000 0
DWIDTH 10 0
BBX 10 10 0 -1
BITMAP
0000
3E00
4100
8080
9C80
A480
A480
9C80
4500
3E00
ENDCHAR
STARTCHAR u24E1
ENCODING 9441
SWIDTH 1000 0
DWIDTH 10 0
BBX 10 10 0 -1
BITMAP
0000
3E00
4100
8080
9480
9880
9080
9080
4100
3E00
ENDCHAR
STARTCHAR u24E2
ENCODING 9442
SWIDTH 1000 0
DWIDTH 10 0
BBX 10 10 0 -1
BITMAP
0000
3E00
4100
8080
8E80
9880
8680
9C80
4100
3E00
ENDCHAR
STARTCHAR u24E3
ENCODING 9443
SWIDTH 1000 0
DWIDTH 10 0
BBX 10 10 0 -1
BITMAP
0000
3E00
4100
9080
BC80
9080
9080
8C80
4100
3E00
ENDCHAR
STARTCHAR u24E4
ENCODING 9444
SWIDTH 1000 0
DWIDTH 10 0
BBX 10 10 0 -1
BITMAP
0000
3E00
4100
8080
A480
A480
A480
9C80
4100
3E00
ENDCHAR
STARTCHAR u24E5
ENCODING 9445
SWIDTH 1000 0
DWIDTH 10 0
BBX 10 10 0 -1
BITMAP
0000
3E00
4100
8080
9280
9280
9480
9880
4100
3E00
ENDCHAR
STARTCHAR u24E6
ENCODING 9446
SWIDTH 1000 0
DWIDTH 10 0
BBX 10 10 0 -1
BITMAP
0000
3E00
4100
8080
8080
AA80
AA80
9480
4100
3E00
ENDCHAR
STARTCHAR u24E7
ENCODING 9447
SWIDTH 1000 0
DWIDTH 10 0
BBX 10 10 0 -1
BITMAP
0000
3E00
4100
8080
A280
9480
8880
B680
4100
3E00
ENDCHAR
STARTCHAR u24E8
ENCODING 9448
SWIDTH 1000 0
DWIDTH 10 0
BBX 10 10 0 -1
BITMAP
0000
3E00
4100
8080
9280
9280
8A80
8480
5900
3E00
ENDCHAR
STARTCHAR u24E9
ENCODING 9449
SWIDTH 1000 0
DWIDTH 10 0
BBX 10 10 0 -1
BITMAP
0000
3E00
4100
8080
9E80
8480
8880
9E80
4100
3E00
ENDCHAR
STARTCHAR u24EA
ENCODING 9450
SWIDTH 1000 0
DWIDTH 10 0
BBX 10 10 0 -1
BITMAP
0000
3E00
4100
8C80
9480
9480
9480
9880
4100
3E00
ENDCHAR
STARTCHAR u24EB
ENCODING 9451
SWIDTH 1000 0
DWIDTH 10 0
BBX 10 10 0 -1
BITMAP
0000
3E00
7F00
ED80
C980
ED80
ED80
ED80
7F00
3E00
ENDCHAR
STARTCHAR u24EC
ENCODING 9452
SWIDTH 1000 0
DWIDTH 10 0
BBX 10 10 0 -1
BITMAP
0000
3E00
7F00
D380
DD80
DB80
D780
D180
7F00
3E00
ENDCHAR
STARTCHAR u24ED
ENCODING 9453
SWIDTH 1000 0
DWIDTH 10 0
BBX 10 10 0 -1
BITMAP
0000
3E00
7F00
D380
DD80
DB80
DD80
D380
7F00
3E00
ENDCHAR
STARTCHAR u24EE
ENCODING 9454
SWIDTH 1000 0
DWIDTH 10 0
BBX 10 10 0 -1
BITMAP
0000
3E00
7F00
D980
D580
D580
D080
DD80
7F00
3E00
ENDCHAR
STARTCHAR u24EF
ENCODING 9455
SWIDTH 1000 0
DWIDTH 10 0
BBX 10 10 0 -1
BITMAP
0000
3E00
7F00
D180
D780
D380
DD80
D380
7F00
3E00
ENDCHAR
STARTCHAR u24F0
ENCODING 9456
SWIDTH 1000 0
DWIDTH 10 0
BBX 10 10 0 -1
BITMAP
0000
3E00
7F00
D980
D780
D180
D580
D180
7F00
3E00
ENDCHAR
STARTCHAR u24F1
ENCODING 9457
SWIDTH 1000 0
DWIDTH 10 0
BBX 10 10 0 -1
BITMAP
0000
3E00
7F00
D180
DD80
DB80
DB80
DB80
7F00
3E00
ENDCHAR
STARTCHAR u24F2
ENCODING 9458
SWIDTH 1000 0
DWIDTH 10 0
BBX 10 10 0 -1
BITMAP
0000
3E00
7F00
D180
D580
D180
D580
D180
7F00
3E00
ENDCHAR
STARTCHAR u24F3
ENCODING 9459
SWIDTH 1000 0
DWIDTH 10 0
BBX 10 10 0 -1
BITMAP
0000
3E00
7F00
D180
D580
D180
DD80
D380
7F00
3E00
ENDCHAR
STARTCHAR u24F4
ENCODING 9460
SWIDTH 1000 0
DWIDTH 10 0
BBX 10 10 0 -1
BITMAP
0000
3E00
7F00
CB80
F580
E580
D580
CB80
7F00
3E00
ENDCHAR
STARTCHAR u24F5
ENCODING 9461
SWIDTH 1000 0
DWIDTH 10 0
BBX 10 10 0 -1
BITMAP
0000
BE80
4100
8880
9880
8880
8880
9C80
4100
BE80
ENDCHAR
STARTCHAR u24F6
ENCODING 9462
SWIDTH 1000 0
DWIDTH 10 0
BBX 10 10 0 -1
BITMAP
0000
BE80
4100
9880
8480
8880
9080
9C80
4100
BE80
ENDCHAR
STARTCHAR u24F7
ENCODING 9463
SWIDTH 1000 0
DWIDTH 10 0
BBX 10 10 0 -1
BITMAP
0000
BE80
4100
9880
8480
8880
8480
9880
4100
BE80
ENDCHAR
STARTCHAR u24F8
ENCODING 9464
SWIDTH 1000 0
DWIDTH 10 0
BBX 10 10 0 -1
BITMAP
0000
BE80
4100
8C80
9480
9480
9E80
8480
4100
BE80
ENDCHAR
STARTCHAR u24F9
ENCODING 9465
SWIDTH 1000 0
DWIDTH 10 0
BBX 10 10 0 -1
BITMAP
0000
BE80
4100
9C80
9080
9880
8480
9880
4100
BE80
ENDCHAR
STARTCHAR u24FA
ENCODING 9466
SWIDTH 1000 0
DWIDTH 10 0
BBX 10 10 0 -1
BITMAP
0000
BE80
4100
8C80
9080
9C80
9480
9C80
4100
BE80
ENDCHAR
STARTCHAR u24FB
ENCODING 9467
SWIDTH 1000 0
DWIDTH 10 0
BBX 10 10 0 -1
BITMAP
0000
BE80
4100
9C80
8480
8880
8880
8880
4100
BE80
ENDCHAR
STARTCHAR u24FC
ENCODING 9468
SWIDTH 1000 0
DWIDTH 10 0
BBX 10 10 0 -1
BITMAP
0000
BE80
4100
9C80
9480
9C80
9480
9C80
4100
BE80
ENDCHAR
STARTCHAR u24FD
ENCODING 9469
SWIDTH 1000 0
DWIDTH 10 0
BBX 10 10 0 -1
BITMAP
0000
BE80
4100
9C80
9480
9C80
8480
9880
4100
BE80
ENDCHAR
STARTCHAR u24FE
ENCODING 9470
SWIDTH 1000 0
DWIDTH 10 0
BBX 10 10 0 -1
BITMAP
0000
BE80
4100
A680
AA80
AA80
AA80
AC80
4100
BE80
ENDCHAR
STARTCHAR u24FF
ENCODING 9471
SWIDTH 1000 0
DWIDTH 10 0
BBX 10 10 0 -1
BITMAP
0000
3E00
7F00
F380
EB80
EB80
EB80
E780
7F00
3E00
ENDCHAR
STARTCHAR u2500
ENCODING 9472
SWIDTH 1000 0
DWIDTH 10 0
BBX 10 10 0 -1
BITMAP
0000
0000
0000
0000
0000
FFC0
0000
0000
0000
0000
ENDCHAR
STARTCHAR u2501
ENCODING 9473
SWIDTH 1000 0
DWIDTH 10 0
BBX 10 10 0 -1
BITMAP
0000
0000
0000
0000
FFC0
FFC0
FFC0
0000
0000
0000
ENDCHAR
STARTCHAR u2502
ENCODING 9474
SWIDTH 1000 0
DWIDTH 10 0
BBX 10 10 0 -1
BITMAP
0800
0800
0800
0800
0800
0800
0800
0800
0800
0800
ENDCHAR
STARTCHAR u2503
ENCODING 9475
SWIDTH 1000 0
DWIDTH 10 0
BBX 10 10 0 -1
BITMAP
1C00
1C00
1C00
1C00
1C00
1C00
1C00
1C00
1C00
1C00
ENDCHAR
STARTCHAR u2504
ENCODING 9476
SWIDTH 1000 0
DWIDTH 10 0
BBX 10 10 0 -1
BITMAP
0000
0000
0000
0000
0000
DD80
0000
0000
0000
0000
ENDCHAR
STARTCHAR u2505
ENCODING 9477
SWIDTH 1000 0
DWIDTH 10 0
BBX 10 10 0 -1
BITMAP
0000
0000
0000
0000
DD80
DD80
DD80
0000
0000
0000
ENDCHAR
STARTCHAR u2506
ENCODING 9478
SWIDTH 1000 0
DWIDTH 10 0
BBX 10 10 0 -1
BITMAP
0000
0800
0800
0000
0800
0800
0800
0000
0800
0800
ENDCHAR
STARTCHAR u2507
ENCODING 9479
SWIDTH 1000 0
DWIDTH 10 0
BBX 10 10 0 -1
BITMAP
0000
1C00
1C00
0000
1C00
1C00
1C00
0000
1C00
1C00
ENDCHAR
STARTCHAR u2508
ENCODING 9480
SWIDTH 1000 0
DWIDTH 10 0
BBX 10 10 0 -1
BITMAP
0000
0000
0000
0000
0000
D680
0000
0000
0000
0000
ENDCHAR
STARTCHAR u2509
ENCODING 9481
SWIDTH 1000 0
DWIDTH 10 0
BBX 10 10 0 -1
BITMAP
0000
0000
0000
0000
D680
D680
D680
0000
0000
0000
ENDCHAR
STARTCHAR u250A
ENCODING 9482
SWIDTH 1000 0
DWIDTH 10 0
BBX 10 10 0 -1
BITMAP
0000
0800
0000
0800
0800
0000
0800
0000
0800
0800
ENDCHAR
STARTCHAR u250B
ENCODING 9483
SWIDTH 1000 0
DWIDTH 10 0
BBX 10 10 0 -1
BITMAP
0000
1C00
0000
1C00
1C00
0000
1C00
0000
1C00
1C00
ENDCHAR
STARTCHAR u250C
ENCODING 9484
SWIDTH 1000 0
DWIDTH 10 0
BBX 10 10 0 -1
BITMAP
0000
0000
0000
0000
0000
0FC0
0800
0800
0800
0800
ENDCHAR
STARTCHAR u250D
ENCODING 9485
SWIDTH 1000 0
DWIDTH 10 0
BBX 10 10 0 -1
BITMAP
0000
0000
0000
0000
0FC0
0FC0
0FC0
0800
0800
0800
ENDCHAR
STARTCHAR u250E
ENCODING 9486
SWIDTH 1000 0
DWIDTH 10 0
BBX 10 10 0 -1
BITMAP
0000
0000
0000
0000
0000
1FC0
1C00
1C00
1C00
1C00
ENDCHAR
STARTCHAR u250F
ENCODING 9487
SWIDTH 1000 0
DWIDTH 10 0
BBX 10 10 0 -1
BITMAP
0000
0000
0000
0000
1FC0
1FC0
1FC0
1C00
1C00
1C00
ENDCHAR
STARTCHAR u2510
ENCODING 9488
SWIDTH 1000 0
DWIDTH 10 0
BBX 10 10 0 -1
BITMAP
0000
0000
0000
0000
0000
F800
0800
0800
0800
0800
ENDCHAR
STARTCHAR u2511
ENCODING 9489
SWIDTH 1000 0
DWIDTH 10 0
BBX 10 10 0 -1
BITMAP
0000
0000
0000
0000
F800
F800
F800
0800
0800
0800
ENDCHAR
STARTCHAR u2512
ENCODING 9490
SWIDTH 1000 0
DWIDTH 10 0
BBX 10 10 0 -1
BITMAP
0000
0000
0000
0000
0000
FC00
1C00
1C00
1C00
1C00
ENDCHAR
STARTCHAR u2513
ENCODING 9491
SWIDTH 1000 0
DWIDTH 10 0
BBX 10 10 0 -1
BITMAP
0000
0000
0000
0000
FC00
FC00
FC00
1C00
1C00
1C00
ENDCHAR
STARTCHAR u2514
ENCODING 9492
SWIDTH 1000 0
DWIDTH 10 0
BBX 10 10 0 -1
BITMAP
0800
0800
0800
0800
0800
0FC0
0000
0000
0000
0000
ENDCHAR
STARTCHAR u2515
ENCODING 9493
SWIDTH 1000 0
DWIDTH 10 0
BBX 10 10 0 -1
BITMAP
0800
0800
0800
0800
0FC0
0FC0
0FC0
0000
0000
0000
ENDCHAR
STARTCHAR u2516
ENCODING 9494
SWIDTH 1000 0
DWIDTH 10 0
BBX 10 10 0 -1
BITMAP
1C00
1C00
1C00
1C00
1C00
1FC0
0000
0000
0000
0000
ENDCHAR
STARTCHAR u2517
ENCODING 9495
SWIDTH 1000 0
DWIDTH 10 0
BBX 10 10 0 -1
BITMAP
1C00
1C00
1C00
1C00
1FC0
1FC0
1FC0
0000
0000
0000
ENDCHAR
STARTCHAR u2518
ENCODING 9496
SWIDTH 1000 0
DWIDTH 10 0
BBX 10 10 0 -1
BITMAP
0800
0800
0800
0800
0800
F800
0000
0000
0000
0000
ENDCHAR
STARTCHAR u2519
ENCODING 9497
SWIDTH 1000 0
DWIDTH 10 0
BBX 10 10 0 -1
BITMAP
0800
0800
0800
0800
F800
F800
F800
0000
0000
0000
ENDCHAR
STARTCHAR u251A
ENCODING 9498
SWIDTH 1000 0
DWIDTH 10 0
BBX 10 10 0 -1
BITMAP
1C00
1C00
1C00
1C00
1C00
FC00
0000
0000
0000
0000
ENDCHAR
STARTCHAR u251B
ENCODING 9499
SWIDTH 1000 0
DWIDTH 10 0
BBX 10 10 0 -1
BITMAP
1C00
1C00
1C00
1C00
FC00
FC00
FC00
0000
0000
0000
ENDCHAR
STARTCHAR u251C
ENCODING 9500
SWIDTH 1000 0
DWIDTH 10 0
BBX 10 10 0 -1
BITMAP
0800
0800
0800
0800
0800
0FC0
0800
0800
0800
0800
ENDCHAR
STARTCHAR u251D
ENCODING 9501
SWIDTH 1000 0
DWIDTH 10 0
BBX 10 10 0 -1
BITMAP
0800
0800
0800
0800
0FC0
0FC0
0FC0
0800
0800
0800
ENDCHAR
STARTCHAR u251E
ENCODING 9502
SWIDTH 1000 0
DWIDTH 10 0
BBX 10 10 0 -1
BITMAP
1C00
1C00
1C00
1C00
1C00
1FC0
0800
0800
0800
0800
ENDCHAR
STARTCHAR u251F
ENCODING 9503
SWIDTH 1000 0
DWIDTH 10 0
BBX 10 10 0 -1
BITMAP
0800
0800
0800
0800
0800
1FC0
1C00
1C00
1C00
1C00
ENDCHAR
STARTCHAR u2520
ENCODING 9504
SWIDTH 1000 0
DWIDTH 10 0
BBX 10 10 0 -1
BITMAP
1C00
1C00
1C00
1C00
1C00
1FC0
1C00
1C00
1C00
1C00
ENDCHAR
STARTCHAR u2521
ENCODING 9505
SWIDTH 1000 0
DWIDTH 10 0
BBX 10 10 0 -1
BITMAP
1C00
1C00
1C00
1C00
1FC0
1FC0
1FC0
0800
0800
0800
ENDCHAR
STARTCHAR u2522
ENCODING 9506
SWIDTH 1000 0
DWIDTH 10 0
BBX 10 10 0 -1
BITMAP
0800
0800
0800
0800
1FC0
1FC0
1FC0
1C00
1C00
1C00
ENDCHAR
STARTCHAR u2523
ENCODING 9507
SWIDTH 1000 0
DWIDTH 10 0
BBX 10 10 0 -1
BITMAP
1C00
1C00
1C00
1C00
1FC0
1FC0
1FC0
1C00
1C00
1C00
ENDCHAR
STARTCHAR u2524
ENCODING 9508
SWIDTH 1000 0
DWIDTH 10 0
BBX 10 10 0 -1
BITMAP
0800
0800
0800
0800
0800
F800
0800
0800
0800
0800
ENDCHAR
STARTCHAR u2525
ENCODING 9509
SWIDTH 1000 0
DWIDTH 10 0
BBX 10 10 0 -1
BITMAP
0800
0800
0800
0800
F800
F800
F800
0800
0800
0800
ENDCHAR
STARTCHAR u2526
ENCODING 9510
SWIDTH 1000 0
DWIDTH 10 0
BBX 10 10 0 -1
BITMAP
1C00
1C00
1C00
1C00
1C00
FC00
0800
0800
0800
0800
ENDCHAR
STARTCHAR u2527
ENCODING 9511
SWIDTH 1000 0
DWIDTH 10 0
BBX 10 10 0 -1
BITMAP
0800
0800
0800
0800
0800
FC00
1C00
1C00
1C00
1C00
ENDCHAR
STARTCHAR u2528
ENCODING 9512
SWIDTH 1000 0
DWIDTH 10 0
BBX 10 10 0 -1
BITMAP
1C00
1C00
1C00
1C00
1C00
FC00
1C00
1C00
1C00
1C00
ENDCHAR
STARTCHAR u2529
ENCODING 9513
SWIDTH 1000 0
DWIDTH 10 0
BBX 10 10 0 -1
BITMAP
1C00
1C00
1C00
1C00
FC00
FC00
FC00
0800
0800
0800
ENDCHAR
STARTCHAR u252A
ENCODING 9514
SWIDTH 1000 0
DWIDTH 10 0
BBX 10 10 0 -1
BITMAP
0800
0800
0800
0800
FC00
FC00
FC00
1C00
1C00
1C00
ENDCHAR
STARTCHAR u252B
ENCODING 9515
SWIDTH 1000 0
DWIDTH 10 0
BBX 10 10 0 -1
BITMAP
1C00
1C00
1C00
1C00
FC00
FC00
FC00
1C00
1C00
1C00
ENDCHAR
STARTCHAR u252C
ENCODING 9516
SWIDTH 1000 0
DWIDTH 10 0
BBX 10 10 0 -1
BITMAP
0000
0000
0000
0000
0000
FFC0
0800
0800
0800
0800
ENDCHAR
STARTCHAR u252D
ENCODING 9517
SWIDTH 1000 0
DWIDTH 10 0
BBX 10 10 0 -1
BITMAP
0000
0000
0000
0000
F800
FFC0
F800
0800
0800
0800
ENDCHAR
STARTCHAR u252E
ENCODING 9518
SWIDTH 1000 0
DWIDTH 10 0
BBX 10 10 0 -1
BITMAP
0000
0000
0000
0000
0FC0
FFC0
0FC0
0800
0800
0800
ENDCHAR
STARTCHAR u252F
ENCODING 9519
SWIDTH 1000 0
DWIDTH 10 0
BBX 10 10 0 -1
BITMAP
0000
0000
0000
0000
FFC0
FFC0
FFC0
0800
0800
0800
ENDCHAR
STARTCHAR u2530
ENCODING 9520
SWIDTH 1000 0
DWIDTH 10 0
BBX 10 10 0 -1
BITMAP
0000
0000
0000
0000
0000
FFC0
1C00
1C00
1C00
1C00
ENDCHAR
STARTCHAR u2531
ENCODING 9521
SWIDTH 1000 0
DWIDTH 10 0
BBX 10 10 0 -1
BITMAP
0000
0000
0000
0000
FC00
FFC0
FC00
1C00
1C00
1C00
ENDCHAR
STARTCHAR u2532
ENCODING 9522
SWIDTH 1000 0
DWIDTH 10 0
BBX 10 10 0 -1
BITMAP
0000
0000
0000
0000
1FC0
FFC0
1C00
1C00
1C00
1C00
ENDCHAR
STARTCHAR u2533
ENCODING 9523
SWIDTH 1000 0
DWIDTH 10 0
BBX 10 10 0 -1
BITMAP
0000
0000
0000
0000
FFC0
FFC0
FFC0
1C00
1C00
1C00
ENDCHAR
STARTCHAR u2534
ENCODING 9524
SWIDTH 1000 0
DWIDTH 10 0
BBX 10 10 0 -1
BITMAP
0800
0800
0800
0800
0800
FFC0
0000
0000
0000
0000
ENDCHAR
STARTCHAR u2535
ENCODING 9525
SWIDTH 1000 0
DWIDTH 10 0
BBX 10 10 0 -1
BITMAP
0800
0800
0800
0800
F800
FFC0
F800
0000
0000
0000
ENDCHAR
STARTCHAR u2536
ENCODING 9526
SWIDTH 1000 0
DWIDTH 10 0
BBX 10 10 0 -1
BITMAP
0800
0800
0800
0800
0FC0
FFC0
0FC0
0000
0000
0000
ENDCHAR
STARTCHAR u2537
ENCODING 9527
SWIDTH 1000 0
DWIDTH 10 0
BBX 10 10 0 -1
BITMAP
0800
0800
0800
0800
FFC0
FFC0
FFC0
0000
0000
0000
ENDCHAR
STARTCHAR u2538
ENCODING 9528
SWIDTH 1000 0
DWIDTH 10 0
BBX 10 10 0 -1
BITMAP
1C00
1C00
1C00
1C00
1C00
FFC0
0000
0000
0000
0000
ENDCHAR
STARTCHAR u2539
ENCODING 9529
SWIDTH 1000 0
DWIDTH 10 0
BBX 10 10 0 -1
BITMAP
1C00
1C00
1C00
1C00
FC00
FFC0
FC00
0000
0000
0000
ENDCHAR
STARTCHAR u253A
ENCODING 9530
SWIDTH 1000 0
DWIDTH 10 0
BBX 10 10 0 -1
BITMAP
1C00
1C00
1C00
1C00
1FC0
FFC0
1FC0
0000
0000
0000
ENDCHAR
STARTCHAR u253B
ENCODING 9531
SWIDTH 1000 0
DWIDTH 10 0
BBX 10 10 0 -1
BITMAP
1C00
1C00
1C00
1C00
FFC0
FFC0
FFC0
0000
0000
0000
ENDCHAR
STARTCHAR u253C
ENCODING 9532
SWIDTH 1000 0
DWIDTH 10 0
BBX 10 10 0 -1
BITMAP
0800
0800
0800
0800
0800
FFC0
0800
0800
0800
0800
ENDCHAR
STARTCHAR u253D
ENCODING 9533
SWIDTH 1000 0
DWIDTH 10 0
BBX 10 10 0 -1
BITMAP
0800
0800
0800
0800
F800
FFC0
F800
0800
0800
0800
ENDCHAR
STARTCHAR u253E
ENCODING 9534
SWIDTH 1000 0
DWIDTH 10 0
BBX 10 10 0 -1
BITMAP
0800
0800
0800
0800
0FC0
FFC0
0FC0
0800
0800
0800
ENDCHAR
STARTCHAR u253F
ENCODING 9535
SWIDTH 1000 0
DWIDTH 10 0
BBX 10 10 0 -1
BITMAP
0800
0800
0800
0800
FFC0
FFC0
FFC0
0800
0800
0800
ENDCHAR
STARTCHAR u2540
ENCODING 9536
SWIDTH 1000 0
DWIDTH 10 0
BBX 10 10 0 -1
BITMAP
1C00
1C00
1C00
1C00
1C00
FFC0
0800
0800
0800
0800
ENDCHAR
STARTCHAR u2541
ENCODING 9537
SWIDTH 1000 0
DWIDTH 10 0
BBX 10 10 0 -1
BITMAP
0800
0800
0800
0800
0800
FFC0
1C00
1C00
1C00
1C00
ENDCHAR
STARTCHAR u2542
ENCODING 9538
SWIDTH 1000 0
DWIDTH 10 0
BBX 10 10 0 -1
BITMAP
1C00
1C00
1C00
1C00
1C00
FFC0
1C00
1C00
1C00
1C00
ENDCHAR
STARTCHAR u2543
ENCODING 9539
SWIDTH 1000 0
DWIDTH 10 0
BBX 10 10 0 -1
BITMAP
1C00
1C00
1C00
1C00
FC00
FFC0
FC00
0800
0800
0800
ENDCHAR
STARTCHAR u2544
ENCODING 9540
SWIDTH 1000 0
DWIDTH 10 0
BBX 10 10 0 -1
BITMAP
1C00
1C00
1C00
1C00
1FC0
FFC0
1FC0
0800
0800
0800
ENDCHAR
STARTCHAR u2545
ENCODING 9541
SWIDTH 1000 0
DWIDTH 10 0
BBX 10 10 0 -1
BITMAP
0800
0800
0800
0800
FC00
FFC0
FC00
1C00
1C00
1C00
ENDCHAR
STARTCHAR u2546
ENCODING 9542
SWIDTH 1000 0
DWIDTH 10 0
BBX 10 10 0 -1
BITMAP
0800
0800
0800
0800
1FC0
FFC0
1FC0
1C00
1C00
1C00
ENDCHAR
STARTCHAR u2547
ENCODING 9543
SWIDTH 1000 0
DWIDTH 10 0
BBX 10 10 0 -1
BITMAP
1C00
1C00
1C00
1C00
FFC0
FFC0
FFC0
0800
0800
0800
ENDCHAR
STARTCHAR u2548
ENCODING 9544
SWIDTH 1000 0
DWIDTH 10 0
BBX 10 10 0 -1
BITMAP
0800
0800
0800
0800
FFC0
FFC0
FFC0
1C00
1C00
1C00
ENDCHAR
STARTCHAR u2549
ENCODING 9545
SWIDTH 1000 0
DWIDTH 10 0
BBX 10 10 0 -1
BITMAP
1C00
1C00
1C00
1C00
FC00
FFC0
FC00
1C00
1C00
1C00
ENDCHAR
STARTCHAR u254A
ENCODING 9546
SWIDTH 1000 0
DWIDTH 10 0
BBX 10 10 0 -1
BITMAP
1C00
1C00
1C00
1C00
1FC0
FFC0
1FC0
1C00
1C00
1C00
ENDCHAR
STARTCHAR u254B
ENCODING 9547
SWIDTH 1000 0
DWIDTH 10 0
BBX 10 10 0 -1
BITMAP
1C00
1C00
1C00
1C00
FFC0
FFC0
FFC0
1C00
1C00
1C00
ENDCHAR
STARTCHAR u254C
ENCODING 9548
SWIDTH 1000 0
DWIDTH 10 0
BBX 10 10 0 -1
BITMAP
0000
0000
0000
0000
0000
F780
0000
0000
0000
0000
ENDCHAR
STARTCHAR u254D
ENCODING 9549
SWIDTH 1000 0
DWIDTH 10 0
BBX 10 10 0 -1
BITMAP
0000
0000
0000
0000
F780
F780
F780
0000
0000
0000
ENDCHAR
STARTCHAR u254E
ENCODING 9550
SWIDTH 1000 0
DWIDTH 10 0
BBX 10 10 0 -1
BITMAP
0000
0800
0800
0800
0800
0000
0800
0800
0800
0800
ENDCHAR
STARTCHAR u254F
ENCODING 9551
SWIDTH 1000 0
DWIDTH 10 0
BBX 10 10 0 -1
BITMAP
0000
1C00
1C00
1C00
1C00
0000
1C00
1C00
1C00
1C00
ENDCHAR
STARTCHAR u2550
ENCODING 9552
SWIDTH 1000 0
DWIDTH 10 0
BBX 10 10 0 -1
BITMAP
0000
0000
0000
0000
FFC0
0000
FFC0
0000
0000
0000
ENDCHAR
STARTCHAR u2551
ENCODING 9553
SWIDTH 1000 0
DWIDTH 10 0
BBX 10 10 0 -1
BITMAP
1400
1400
1400
1400
1400
1400
1400
1400
1400
1400
ENDCHAR
STARTCHAR u2552
ENCODING 9554
SWIDTH 1000 0
DWIDTH 10 0
BBX 10 10 0 -1
BITMAP
0000
0000
0000
0000
0FC0
0800
0FC0
0800
0800
0800
ENDCHAR
STARTCHAR u2553
ENCODING 9555
SWIDTH 1000 0
DWIDTH 10 0
BBX 10 10 0 -1
BITMAP
0000
0000
0000
0000
0000
1FC0
1400
1400
1400
1400
ENDCHAR
STARTCHAR u2554
ENCODING 9556
SWIDTH 1000 0
DWIDTH 10 0
BBX 10 10 0 -1
BITMAP
0000
0000
0000
0000
1FC0
1000
17C0
1400
1400
1400
ENDCHAR
STARTCHAR u2555
ENCODING 9557
SWIDTH 1000 0
DWIDTH 10 0
BBX 10 10 0 -1
BITMAP
0000
0000
0000
0000
F800
0800
F800
0800
0800
0800
ENDCHAR
STARTCHAR u2556
ENCODING 9558
SWIDTH 1000 0
DWIDTH 10 0
BBX 10 10 0 -1
BITMAP
0000
0000
0000
0000
0000
FC00
1400
1400
1400
1400
ENDCHAR
STARTCHAR u2557
ENCODING 9559
SWIDTH 1000 0
DWIDTH 10 0
BBX 10 10 0 -1
BITMAP
0000
0000
0000
0000
FC00
0400
F400
1400
1400
1400
ENDCHAR
STARTCHAR u2558
ENCODING 9560
SWIDTH 1000 0
DWIDTH 10 0
BBX 10 10 0 -1
BITMAP
0800
0800
0800
0800
0FC0
0800
0FC0
0000
0000
0000
ENDCHAR
STARTCHAR u2559
ENCODING 9561
SWIDTH 1000 0
DWIDTH 10 0
BBX 10 10 0 -1
BITMAP
1400
1400
1400
1400
1400
1FC0
0000
0000
0000
0000
ENDCHAR
STARTCHAR u255A
ENCODING 9562
SWIDTH 1000 0
DWIDTH 10 0
BBX 10 10 0 -1
BITMAP
1400
1400
1400
1400
17C0
1000
1FC0
0000
0000
0000
ENDCHAR
STARTCHAR u255B
ENCODING 9563
SWIDTH 1000 0
DWIDTH 10 0
BBX 10 10 0 -1
BITMAP
0800
0800
0800
0800
F800
0800
F800
0000
0000
0000
ENDCHAR
STARTCHAR u255C
ENCODING 9564
SWIDTH 1000 0
DWIDTH 10 0
BBX 10 10 0 -1
BITMAP
1400
1400
1400
1400
1400
FC00
0000
0000
0000
0000
ENDCHAR
STARTCHAR u255D
ENCODING 9565
SWIDTH 1000 0
DWIDTH 10 0
BBX 10 10 0 -1
BITMAP
1400
1400
1400
1400
F400
0400
FC00
0000
0000
0000
ENDCHAR
STARTCHAR u255E
ENCODING 9566
SWIDTH 1000 0
DWIDTH 10 0
BBX 10 10 0 -1
BITMAP
0800
0800
0800
0800
0FC0
0800
0FC0
0800
0800
0800
ENDCHAR
STARTCHAR u255F
ENCODING 9567
SWIDTH 1000 0
DWIDTH 10 0
BBX 10 10 0 -1
BITMAP
1400
1400
1400
1400
1400
17C0
1400
1400
1400
1400
ENDCHAR
STARTCHAR u2560
ENCODING 9568
SWIDTH 1000 0
DWIDTH 10 0
BBX 10 10 0 -1
BITMAP
1400
1400
1400
1400
17C0
1000
17C0
1400
1400
1400
ENDCHAR
STARTCHAR u2561
ENCODING 9569
SWIDTH 1000 0
DWIDTH 10 0
BBX 10 10 0 -1
BITMAP
0800
0800
0800
0800
F800
0800
F800
0800
0800
0800
ENDCHAR
STARTCHAR u2562
ENCODING 9570
SWIDTH 1000 0
DWIDTH 10 0
BBX 10 10 0 -1
BITMAP
1400
1400
1400
1400
1400
F400
1400
1400
1400
1400
ENDCHAR
STARTCHAR u2563
ENCODING 9571
SWIDTH 1000 0
DWIDTH 10 0
BBX 10 10 0 -1
BITMAP
1400
1400
1400
1400
F400
0400
F400
1400
1400
1400
ENDCHAR
STARTCHAR u2564
ENCODING 9572
SWIDTH 1000 0
DWIDTH 10 0
BBX 10 10 0 -1
BITMAP
0000
0000
0000
0000
FFC0
0000
FFC0
0800
0800
0800
ENDCHAR
STARTCHAR u2565
ENCODING 9573
SWIDTH 1000 0
DWIDTH 10 0
BBX 10 10 0 -1
BITMAP
0000
0000
0000
0000
0000
FFC0
1400
1400
1400
1400
ENDCHAR
STARTCHAR u2566
ENCODING 9574
SWIDTH 1000 0
DWIDTH 10 0
BBX 10 10 0 -1
BITMAP
0000
0000
0000
0000
FFC0
0000
F7C0
1400
1400
1400
ENDCHAR
STARTCHAR u2567
ENCODING 9575
SWIDTH 1000 0
DWIDTH 10 0
BBX 10 10 0 -1
BITMAP
0800
0800
0800
0800
FFC0
0000
FFC0
0000
0000
0000
ENDCHAR
STARTCHAR u2568
ENCODING 9576
SWIDTH 1000 0
DWIDTH 10 0
BBX 10 10 0 -1
BITMAP
1400
1400
1400
1400
1400
FFC0
0000
0000
0000
0000
ENDCHAR
STARTCHAR u2569
ENCODING 9577
SWIDTH 1000 0
DWIDTH 10 0
BBX 10 10 0 -1
BITMAP
1400
1400
1400
1400
F7C0
0000
FFC0
0000
0000
0000
ENDCHAR
STARTCHAR u256A
ENCODING 9578
SWIDTH 1000 0
DWIDTH 10 0
BBX 10 10 0 -1
BITMAP
0800
0800
0800
0800
FFC0
0800
FFC0
0800
0800
0800
ENDCHAR
STARTCHAR u256B
ENCODING 9579
SWIDTH 1000 0
DWIDTH 10 0
BBX 10 10 0 -1
BITMAP
1400
1400
1400
1400
1400
FFC0
1400
1400
1400
1400
ENDCHAR
STARTCHAR u256C
ENCODING 9580
SWIDTH 1000 0
DWIDTH 10 0
BBX 10 10 0 -1
BITMAP
1400
1400
1400
1400
F7C0
0000
F7C0
1400
1400
1400
ENDCHAR
STARTCHAR u256D
ENCODING 9581
SWIDTH 1000 0
DWIDTH 10 0
BBX 10 10 0 -1
BITMAP
0000
0000
0000
0000
0000
01C0
0200
0400
0800
0800
ENDCHAR
STARTCHAR u256E
ENCODING 9582
SWIDTH 1000 0
DWIDTH 10 0
BBX 10 10 0 -1
BITMAP
0000
0000
0000
0000
0000
C000
2000
1000
0800
0800
ENDCHAR
STARTCHAR u256F
ENCODING 9583
SWIDTH 1000 0
DWIDTH 10 0
BBX 10 10 0 -1
BITMAP
0800
0800
0800
1000
2000
C000
0000
0000
0000
0000
ENDCHAR
STARTCHAR u2570
ENCODING 9584
SWIDTH 1000 0
DWIDTH 10 0
BBX 10 10 0 -1
BITMAP
0800
0800
0800
0400
0200
01C0
0000
0000
0000
0000
ENDCHAR
STARTCHAR u2571
ENCODING 9585
SWIDTH 1000 0
DWIDTH 10 0
BBX 10 10 0 -1
BITMAP
0040
0080
0100
0200
0400
0800
1000
2000
4000
8000
ENDCHAR
STARTCHAR u2572
ENCODING 9586
SWIDTH 1000 0
DWIDTH 10 0
BBX 10 10 0 -1
BITMAP
8000
4000
2000
1000
0800
0400
0200
0100
0080
0040
ENDCHAR
STARTCHAR u2573
ENCODING 9587
SWIDTH 1000 0
DWIDTH 10 0
BBX 10 10 0 -1
BITMAP
8040
4080
2100
1200
0C00
0C00
1200
2100
4080
8040
ENDCHAR
STARTCHAR u2574
ENCODING 9588
SWIDTH 1000 0
DWIDTH 10 0
BBX 10 10 0 -1
BITMAP
0000
0000
0000
0000
0000
F800
0000
0000
0000
0000
ENDCHAR
STARTCHAR u2575
ENCODING 9589
SWIDTH 1000 0
DWIDTH 10 0
BBX 10 10 0 -1
BITMAP
0800
0800
0800
0800
0800
0800
0000
0000
0000
0000
ENDCHAR
STARTCHAR u2576
ENCODING 9590
SWIDTH 1000 0
DWIDTH 10 0
BBX 10 10 0 -1
BITMAP
0000
0000
0000
0000
0000
0FC0
0000
0000
0000
0000
ENDCHAR
STARTCHAR u2577
ENCODING 9591
SWIDTH 1000 0
DWIDTH 10 0
BBX 10 10 0 -1
BITMAP
0000
0000
0000
0000
0000
0800
0800
0800
0800
0800
ENDCHAR
STARTCHAR u2578
ENCODING 9592
SWIDTH 1000 0
DWIDTH 10 0
BBX 10 10 0 -1
BITMAP
0000
0000
0000
0000
F800
F800
F800
0000
0000
0000
ENDCHAR
STARTCHAR u2579
ENCODING 9593
SWIDTH 1000 0
DWIDTH 10 0
BBX 10 10 0 -1
BITMAP
1C00
1C00
1C00
1C00
1C00
1C00
0000
0000
0000
0000
ENDCHAR
STARTCHAR u257A
ENCODING 9594
SWIDTH 1000 0
DWIDTH 10 0
BBX 10 10 0 -1
BITMAP
0000
0000
0000
0000
0FC0
0FC0
0FC0
0000
0000
0000
ENDCHAR
STARTCHAR u257B
ENCODING 9595
SWIDTH 1000 0
DWIDTH 10 0
BBX 10 10 0 -1
BITMAP
0000
0000
0000
0000
0000
1C00
1C00
1C00
1C00
1C00
ENDCHAR
STARTCHAR u257C
ENCODING 9596
SWIDTH 1000 0
DWIDTH 10 0
BBX 10 10 0 -1
BITMAP
0000
0000
0000
0000
0FC0
FFC0
0FC0
0000
0000
0000
ENDCHAR
STARTCHAR u257D
ENCODING 9597
SWIDTH 1000 0
DWIDTH 10 0
BBX 10 10 0 -1
BITMAP
0800
0800
0800
0800
0800
1C00
1C00
1C00
1C00
1C00
ENDCHAR
STARTCHAR u257E
ENCODING 9598
SWIDTH 1000 0
DWIDTH 10 0
BBX 10 10 0 -1
BITMAP
0000
0000
0000
0000
F800
FFC0
F800
0000
0000
0000
ENDCHAR
STARTCHAR u257F
ENCODING 9599
SWIDTH 1000 0
DWIDTH 10 0
BBX 10 10 0 -1
BITMAP
1C00
1C00
1C00
1C00
1C00
1C00
0800
0800
0800
0800
ENDCHAR
STARTCHAR u2580
ENCODING 9600
SWIDTH 1000 0
DWIDTH 10 0
BBX 10 10 0 -1
BITMAP
FFC0
FFC0
FFC0
FFC0
FFC0
0000
0000
0000
0000
0000
ENDCHAR
STARTCHAR u2581
ENCODING 9601
SWIDTH 1000 0
DWIDTH 10 0
BBX 10 10 0 -1
BITMAP
0000
0000
0000
0000
0000
0000
0000
0000
0000
FFC0
ENDCHAR
STARTCHAR u2582
ENCODING 9602
SWIDTH 1000 0
DWIDTH 10 0
BBX 10 10 0 -1
BITMAP
0000
0000
0000
0000
0000
0000
0000
0000
FFC0
FFC0
ENDCHAR
STARTCHAR u2583
ENCODING 9603
SWIDTH 1000 0
DWIDTH 10 0
BBX 10 10 0 -1
BITMAP
0000
0000
0000
0000
0000
0000
FFC0
FFC0
FFC0
FFC0
ENDCHAR
STARTCHAR u2584
ENCODING 9604
SWIDTH 1000 0
DWIDTH 10 0
BBX 10 10 0 -1
BITMAP
0000
0000
0000
0000
0000
FFC0
FFC0
FFC0
FFC0
FFC0
ENDCHAR
STARTCHAR u2585
ENCODING 9605
SWIDTH 1000 0
DWIDTH 10 0
BBX 10 10 0 -1
BITMAP
0000
0000
0000
0000
FFC0
FFC0
FFC0
FFC0
FFC0
FFC0
ENDCHAR
STARTCHAR u2586
ENCODING 9606
SWIDTH 1000 0
DWIDTH 10 0
BBX 10 10 0 -1
BITMAP
0000
0000
FFC0
FFC0
FFC0
FFC0
FFC0
FFC0
FFC0
FFC0
ENDCHAR
STARTCHAR u2587
ENCODING 9607
SWIDTH 1000 0
DWIDTH 10 0
BBX 10 10 0 -1
BITMAP
0000
FFC0
FFC0
FFC0
FFC0
FFC0
FFC0
FFC0
FFC0
FFC0
ENDCHAR
STARTCHAR u2588
ENCODING 9608
SWIDTH 1000 0
DWIDTH 10 0
BBX 10 10 0 -1
BITMAP
FFC0
FFC0
FFC0
FFC0
FFC0
FFC0
FFC0
FFC0
FFC0
FFC0
ENDCHAR
STARTCHAR u2589
ENCODING 9609
SWIDTH 1000 0
DWIDTH 10 0
BBX 10 10 0 -1
BITMAP
FF80
FF80
FF80
FF80
FF80
FF80
FF80
FF80
FF80
FF80
ENDCHAR
STARTCHAR u258A
ENCODING 9610
SWIDTH 1000 0
DWIDTH 10 0
BBX 10 10 0 -1
BITMAP
FF00
FF00
FF00
FF00
FF00
FF00
FF00
FF00
FF00
FF00
ENDCHAR
STARTCHAR u258B
ENCODING 9611
SWIDTH 1000 0
DWIDTH 10 0
BBX 10 10 0 -1
BITMAP
FC00
FC00
FC00
FC00
FC00
FC00
FC00
FC00
FC00
FC00
ENDCHAR
STARTCHAR u258C
ENCODING 9612
SWIDTH 1000 0
DWIDTH 10 0
BBX 10 10 0 -1
BITMAP
F800
F800
F800
F800
F800
F800
F800
F800
F800
F800
ENDCHAR
STARTCHAR u258D
ENCODING 9613
SWIDTH 1000 0
DWIDTH 10 0
BBX 10 10 0 -1
BITMAP
F000
F000
F000
F000
F000
F000
F000
F000
F000
F000
ENDCHAR
STARTCHAR u258E
ENCODING 9614
SWIDTH 1000 0
DWIDTH 10 0
BBX 10 10 0 -1
BITMAP
C000
C000
C000
C000
C000
C000
C000
C000
C000
C000
ENDCHAR
STARTCHAR u258F
ENCODING 9615
SWIDTH 1000 0
DWIDTH 10 0
BBX 10 10 0 -1
BITMAP
8000
8000
8000
8000
8000
8000
8000
8000
8000
8000
ENDCHAR
STARTCHAR u2590
ENCODING 9616
SWIDTH 1000 0
DWIDTH 10 0
BBX 10 10 0 -1
BITMAP
07C0
07C0
07C0
07C0
07C0
07C0
07C0
07C0
07C0
07C0
ENDCHAR
STARTCHAR u2591
ENCODING 9617
SWIDTH 1000 0
DWIDTH 10 0
BBX 10 10 0 -1
BITMAP
AA80
0000
AA80
0000
AA80
0000
AA80
0000
AA80
0000
ENDCHAR
STARTCHAR u2592
ENCODING 9618
SWIDTH 1000 0
DWIDTH 10 0
BBX 10 10 0 -1
BITMAP
AA80
5540
AA80
5540
AA80
5540
AA80
5540
AA80
5540
ENDCHAR
STARTCHAR u2593
ENCODING 9619
SWIDTH 1000 0
DWIDTH 10 0
BBX 10 10 0 -1
BITMAP
FFC0
AA80
FFC0
AA80
FFC0
AA80
FFC0
AA80
FFC0
AA80
ENDCHAR
STARTCHAR u2594
ENCODING 9620
SWIDTH 1000 0
DWIDTH 10 0
BBX 10 10 0 -1
BITMAP
FFC0
0000
0000
0000
0000
0000
0000
0000
0000
0000
ENDCHAR
STARTCHAR u2595
ENCODING 9621
SWIDTH 1000 0
DWIDTH 10 0
BBX 10 10 0 -1
BITMAP
0040
0040
0040
0040
0040
0040
0040
0040
0040
0040
ENDCHAR
STARTCHAR u2596
ENCODING 9622
SWIDTH 1000 0
DWIDTH 10 0
BBX 10 10 0 -1
BITMAP
0000
0000
0000
0000
0000
F800
F800
F800
F800
F800
ENDCHAR
STARTCHAR u2597
ENCODING 9623
SWIDTH 1000 0
DWIDTH 10 0
BBX 10 10 0 -1
BITMAP
0000
0000
0000
0000
0000
07C0
07C0
07C0
07C0
07C0
ENDCHAR
STARTCHAR u2598
ENCODING 9624
SWIDTH 1000 0
DWIDTH 10 0
BBX 10 10 0 -1
BITMAP
F800
F800
F800
F800
F800
0000
0000
0000
0000
0000
ENDCHAR
STARTCHAR u2599
ENCODING 9625
SWIDTH 1000 0
DWIDTH 10 0
BBX 10 10 0 -1
BITMAP
F800
F800
F800
F800
F800
FFC0
FFC0
FFC0
FFC0
FFC0
ENDCHAR
STARTCHAR u259A
ENCODING 9626
SWIDTH 1000 0
DWIDTH 10 0
BBX 10 10 0 -1
BITMAP
F800
F800
F800
F800
F800
07C0
07C0
07C0
07C0
07C0
ENDCHAR
STARTCHAR u259B
ENCODING 9627
SWIDTH 1000 0
DWIDTH 10 0
BBX 10 10 0 -1
BITMAP
FFC0
FFC0
FFC0
FFC0
FFC0
F800
F800
F800
F800
F800
ENDCHAR
STARTCHAR u259C
ENCODING 9628
SWIDTH 1000 0
DWIDTH 10 0
BBX 10 10 0 -1
BITMAP
FFC0
FFC0
FFC0
FFC0
FFC0
07C0
07C0
07C0
07C0
07C0
ENDCHAR
STARTCHAR u259D
ENCODING 9629
SWIDTH 1000 0
DWIDTH 10 0
BBX 10 10 0 -1
BITMAP
07C0
07C0
07C0
07C0
07C0
0000
0000
0000
0000
0000
ENDCHAR
STARTCHAR u259E
ENCODING 9630
SWIDTH 1000 0
DWIDTH 10 0
BBX 10 10 0 -1
BITMAP
07C0
07C0
07C0
07C0
07C0
F800
F800
F800
F800
F800
ENDCHAR
STARTCHAR u259F
ENCODING 9631
SWIDTH 1000 0
DWIDTH 10 0
BBX 10 10 0 -1
BITMAP
07C0
07C0
07C0
07C0
07C0
FFC0
FFC0
FFC0
FFC0
FFC0
ENDCHAR
STARTCHAR u25A0
ENCODING 9632
SWIDTH 1000 0
DWIDTH 10 0
BBX 10 10 0 -1
BITMAP
0000
FF80
FF80
FF80
FF80
FF80
FF80
FF80
FF80
FF80
ENDCHAR
STARTCHAR u25A1
ENCODING 9633
SWIDTH 1000 0
DWIDTH 10 0
BBX 10 10 0 -1
BITMAP
0000
FF80
8080
8080
8080
8080
8080
8080
8080
FF80
ENDCHAR
STARTCHAR u25A2
ENCODING 9634
SWIDTH 1000 0
DWIDTH 10 0
BBX 10 10 0 -1
BITMAP
0000
7F00
8080
8080
8080
8080
8080
8080
8080
7F00
ENDCHAR
STARTCHAR u25A3
ENCODING 9635
SWIDTH 1000 0
DWIDTH 10 0
BBX 10 10 0 -1
BITMAP
0000
FF80
8080
8080
9C80
9C80
9C80
8080
8080
FF80
ENDCHAR
STARTCHAR u25A4
ENCODING 9636
SWIDTH 1000 0
DWIDTH 10 0
BBX 10 10 0 -1
BITMAP
0000
FF80
8080
FF80
8080
FF80
8080
FF80
8080
FF80
ENDCHAR
STARTCHAR u25A5
ENCODING 9637
SWIDTH 1000 0
DWIDTH 10 0
BBX 10 10 0 -1
BITMAP
0000
FF80
AA80
AA80
AA80
AA80
AA80
AA80
AA80
FF80
ENDCHAR
STARTCHAR u25A6
ENCODING 9638
SWIDTH 1000 0
DWIDTH 10 0
BBX 10 10 0 -1
BITMAP
0000
FF80
AA80
FF80
AA80
FF80
AA80
FF80
AA80
FF80
ENDCHAR
STARTCHAR u25A7
ENCODING 9639
SWIDTH 1000 0
DWIDTH 10 0
BBX 10 10 0 -1
BITMAP
0000
FF80
C980
A480
9280
C980
A480
9280
C980
FF80
ENDCHAR
STARTCHAR u25A8
ENCODING 9640
SWIDTH 1000 0
DWIDTH 10 0
BBX 10 10 0 -1
BITMAP
0000
FF80
C980
9280
A480
C980
9280
A480
C980
FF80
ENDCHAR
STARTCHAR u25A9
ENCODING 9641
SWIDTH 1000 0
DWIDTH 10 0
BBX 10 10 0 -1
BITMAP
0000
FF80
D580
AA80
D580
AA80
D580
AA80
D580
FF80
ENDCHAR
STARTCHAR u25AA
ENCODING 9642
SWIDTH 1000 0
DWIDTH 10 0
BBX 10 10 0 -1
BITMAP
0000
0000
0000
0000
1C00
1C00
1C00
0000
0000
0000
ENDCHAR
STARTCHAR u25AB
ENCODING 9643
SWIDTH 1000 0
DWIDTH 10 0
BBX 10 10 0 -1
BITMAP
0000
0000
0000
0000
1C00
1400
1C00
0000
0000
0000
ENDCHAR
STARTCHAR u25AC
ENCODING 9644
SWIDTH 1000 0
DWIDTH 10 0
BBX 10 10 0 -1
BITMAP
0000
0000
0000
FF80
FF80
FF80
FF80
FF80
0000
0000
ENDCHAR
STARTCHAR u25AD
ENCODING 9645
SWIDTH 1000 0
DWIDTH 10 0
BBX 10 10 0 -1
BITMAP
0000
0000
0000
FF80
8080
8080
8080
FF80
0000
0000
ENDCHAR
STARTCHAR u25AE
ENCODING 9646
SWIDTH 1000 0
DWIDTH 10 0
BBX 10 10 0 -1
BITMAP
0000
3E00
3E00
3E00
3E00
3E00
3E00
3E00
3E00
3E00
ENDCHAR
STARTCHAR u25AF
ENCODING 9647
SWIDTH 1000 0
DWIDTH 10 0
BBX 10 10 0 -1
BITMAP
0000
3E00
2200
2200
2200
2200
2200
2200
2200
3E00
ENDCHAR
STARTCHAR u25B0
ENCODING 9648
SWIDTH 1000 0
DWIDTH 10 0
BBX 10 10 0 -1
BITMAP
0000
0000
0000
3F80
3F00
7F00
7E00
FE00
0000
0000
ENDCHAR
STARTCHAR u25B1
ENCODING 9649
SWIDTH 1000 0
DWIDTH 10 0
BBX 10 10 0 -1
BITMAP
0000
0000
0000
3F80
2100
4100
4200
FE00
0000
0000
ENDCHAR
STARTCHAR u25B2
ENCODING 9650
SWIDTH 1000 0
DWIDTH 10 0
BBX 10 10 0 -1
BITMAP
0000
0800
1C00
1C00
3E00
3E00
7F00
7F00
FF80
FF80
ENDCHAR
STARTCHAR u25B3
ENCODING 9651
SWIDTH 1000 0
DWIDTH 10 0
BBX 10 10 0 -1
BITMAP
0000
0800
1400
1400
2200
2200
4100
4100
8080
FF80
ENDCHAR
STARTCHAR u25B4
ENCODING 9652
SWIDTH 1000 0
DWIDTH 10 0
BBX 10 10 0 -1
BITMAP
0000
0000
0000
0800
1C00
1C00
3E00
3E00
0000
0000
ENDCHAR
STARTCHAR u25B5
ENCODING 9653
SWIDTH 1000 0
DWIDTH 10 0
BBX 10 10 0 -1
BITMAP
0000
0000
0000
0800
1400
1400
2200
3E00
0000
0000
ENDCHAR
STARTCHAR u25B6
ENCODING 9654
SWIDTH 1000 0
DWIDTH 10 0
BBX 10 10 0 -1
BITMAP
0000
C000
F000
FC00
FF00
FF80
FF00
FC00
F000
C000
ENDCHAR
STARTCHAR u25B7
ENCODING 9655
SWIDTH 1000 0
DWIDTH 10 0
BBX 10 10 0 -1
BITMAP
0000
C000
B000
8C00
8300
8080
8300
8C00
B000
C000
ENDCHAR
STARTCHAR u25B8
ENCODING 9656
SWIDTH 1000 0
DWIDTH 10 0
BBX 10 10 0 -1
BITMAP
0000
0000
0000
3000
3C00
3E00
3C00
3000
0000
0000
ENDCHAR
STARTCHAR u25B9
ENCODING 9657
SWIDTH 1000 0
DWIDTH 10 0
BBX 10 10 0 -1
BITMAP
0000
0000
0000
3000
2C00
2200
2C00
3000
0000
0000
ENDCHAR
STARTCHAR u25BA
ENCODING 9658
SWIDTH 1000 0
DWIDTH 10 0
BBX 10 10 0 -1
BITMAP
0000
0000
0000
E000
FC00
FF80
FC00
E000
0000
0000
ENDCHAR
STARTCHAR u25BB
ENCODING 9659
SWIDTH 1000 0
DWIDTH 10 0
BBX 10 10 0 -1
BITMAP
0000
0000
0000
E000
9C00
8380
9C00
E000
0000
0000
ENDCHAR
STARTCHAR u25BC
ENCODING 9660
SWIDTH 1000 0
DWIDTH 10 0
BBX 10 10 0 -1
BITMAP
0000
FF80
FF80
7F00
7F00
3E00
3E00
1C00
1C00
0800
ENDCHAR
STARTCHAR u25BD
ENCODING 9661
SWIDTH 1000 0
DWIDTH 10 0
BBX 10 10 0 -1
BITMAP
0000
FF80
8080
4100
4100
2200
2200
1400
1400
0800
ENDCHAR
STARTCHAR u25BE
ENCODING 9662
SWIDTH 1000 0
DWIDTH 10 0
BBX 10 10 0 -1
BITMAP
0000
0000
0000
3E00
3E00
1C00
1C00
0800
0000
0000
ENDCHAR
STARTCHAR u25BF
ENCODING 9663
SWIDTH 1000 0
DWIDTH 10 0
BBX 10 10 0 -1
BITMAP
0000
0000
0000
3E00
2200
1400
1400
0800
0000
0000
ENDCHAR
STARTCHAR u25C0
ENCODING 9664
SWIDTH 1000 0
DWIDTH 10 0
BBX 10 10 0 -1
BITMAP
0000
0180
0780
1F80
7F80
FF80
7F80
1F80
0780
0180
ENDCHAR
STARTCHAR u25C1
ENCODING 9665
SWIDTH 1000 0
DWIDTH 10 0
BBX 10 10 0 -1
BITMAP
0000
0180
0680
1880
6080
8080
6080
1880
0680
0180
ENDCHAR
STARTCHAR u25C2
ENCODING 9666
SWIDTH 1000 0
DWIDTH 10 0
BBX 10 10 0 -1
BITMAP
0000
0000
0000
0600
1E00
3E00
1E00
0600
0000
0000
ENDCHAR
STARTCHAR u25C3
ENCODING 9667
SWIDTH 1000 0
DWIDTH 10 0
BBX 10 10 0 -1
BITMAP
0000
0000
0000
0600
1A00
2200
1A00
0600
0000
0000
ENDCHAR
STARTCHAR u25C4
ENCODING 9668
SWIDTH 1000 0
DWIDTH 10 0
BBX 10 10 0 -1
BITMAP
0000
0000
0000
0380
1F80
FF80
1F80
0380
0000
0000
ENDCHAR
STARTCHAR u25C5
ENCODING 9669
SWIDTH 1000 0
DWIDTH 10 0
BBX 10 10 0 -1
BITMAP
0000
0000
0000
0380
1C80
E080
1C80
0380
0000
0000
ENDCHAR
STARTCHAR u25C6
ENCODING 9670
SWIDTH 1000 0
DWIDTH 10 0
BBX 10 10 0 -1
BITMAP
0000
0800
1C00
3E00
7F00
FF80
7F00
3E00
1C00
0800
ENDCHAR
STARTCHAR u25C7
ENCODING 9671
SWIDTH 1000 0
DWIDTH 10 0
BBX 10 10 0 -1
BITMAP
0000
0800
1400
2200
4100
8080
4100
2200
1400
0800
ENDCHAR
STARTCHAR u25C8
ENCODING 9672
SWIDTH 1000 0
DWIDTH 10 0
BBX 10 10 0 -1
BITMAP
0000
0800
1400
2200
4900
9C80
4900
2200
1400
0800
ENDCHAR
STARTCHAR u25C9
ENCODING 9673
SWIDTH 1000 0
DWIDTH 10 0
BBX 10 10 0 -1
BITMAP
0000
3E00
4100
9C80
BE80
BE80
BE80
9C80
4100
3E00
ENDCHAR
STARTCHAR u25CA
ENCODING 9674
SWIDTH 1000 0
DWIDTH 10 0
BBX 10 10 0 -1
BITMAP
0000
0800
1400
1400
2200
4100
2200
1400
1400
0800
ENDCHAR
STARTCHAR u25CB
ENCODING 9675
SWIDTH 1000 0
DWIDTH 10 0
BBX 10 10 0 -1
BITMAP
0000
3E00
4100
8080
8080
8080
8080
8080
4100
3E00
ENDCHAR
STARTCHAR u25CC
ENCODING 9676
SWIDTH 1000 0
DWIDTH 10 0
BBX 10 10 0 -1
BITMAP
0000
1400
4100
0000
8080
0000
8080
0000
4100
1400
ENDCHAR
STARTCHAR u25CD
ENCODING 9677
SWIDTH 1000 0
DWIDTH 10 0
BBX 10 10 0 -1
BITMAP
0000
3E00
6B00
AA80
AA80
AA80
AA80
AA80
6B00
3E00
ENDCHAR
STARTCHAR u25CE
ENCODING 9678
SWIDTH 1000 0
DWIDTH 10 0
BBX 10 10 0 -1
BITMAP
0000
3E00
4100
9C80
A280
A280
A280
9C80
4100
3E00
ENDCHAR
STARTCHAR u25CF
ENCODING 9679
SWIDTH 1000 0
DWIDTH 10 0
BBX 10 10 0 -1
BITMAP
0000
3E00
7F00
FF80
FF80
FF80
FF80
FF80
7F00
3E00
ENDCHAR
STARTCHAR u25D0
ENCODING 9680
SWIDTH 1000 0
DWIDTH 10 0
BBX 10 10 0 -1
BITMAP
0000
3E00
7900
F880
F880
F880
F880
F880
7900
3E00
ENDCHAR
STARTCHAR u25D1
ENCODING 9681
SWIDTH 1000 0
DWIDTH 10 0
BBX 10 10 0 -1
BITMAP
0000
3E00
4F00
8F80
8F80
8F80
8F80
8F80
4F00
3E00
ENDCHAR
STARTCHAR u25D2
ENCODING 9682
SWIDTH 1000 0
DWIDTH 10 0
BBX 10 10 0 -1
BITMAP
0000
3E00
4100
8080
8080
FF80
FF80
FF80
7F00
3E00
ENDCHAR
STARTCHAR u25D3
ENCODING 9683
SWIDTH 1000 0
DWIDTH 10 0
BBX 10 10 0 -1
BITMAP
0000
3E00
7F00
FF80
FF80
FF80
8080
8080
4100
3E00
ENDCHAR
STARTCHAR u25D4
ENCODING 9684
SWIDTH 1000 0
DWIDTH 10 0
BBX 10 10 0 -1
BITMAP
0000
3E00
4F00
8F80
8F80
8F80
8080
8080
4100
3E00
ENDCHAR
STARTCHAR u25D5
ENCODING 9685
SWIDTH 1000 0
DWIDTH 10 0
BBX 10 10 0 -1
BITMAP
0000
3E00
4F00
8F80
8F80
FF80
FF80
FF80
7F00
3E00
ENDCHAR
STARTCHAR u25D6
ENCODING 9686
SWIDTH 1000 0
DWIDTH 10 0
BBX 10 10 0 -1
BITMAP
0000
3800
7800
F800
F800
F800
F800
F800
7800
3800
ENDCHAR
STARTCHAR u25D7
ENCODING 9687
SWIDTH 1000 0
DWIDTH 10 0
BBX 10 10 0 -1
BITMAP
0000
0E00
0F00
0F80
0F80
0F80
0F80
0F80
0F00
0E00
ENDCHAR
STARTCHAR u25D8
ENCODING 9688
SWIDTH 1000 0
DWIDTH 10 0
BBX 10 10 0 -1
BITMAP
0000
FF80
FF80
E380
C180
C180
C180
E380
FF80
FF80
ENDCHAR
STARTCHAR u25D9
ENCODING 9689
SWIDTH 1000 0
DWIDTH 10 0
BBX 10 10 0 -1
BITMAP
0000
FF80
E380
DD80
BE80
BE80
BE80
DD80
E380
FF80
ENDCHAR
STARTCHAR u25DA
ENCODING 9690
SWIDTH 1000 0
DWIDTH 10 0
BBX 10 10 0 -1
BITMAP
0000
FF80
E380
DD80
BE80
BE80
0000
0000
0000
0000
ENDCHAR
STARTCHAR u25DB
ENCODING 9691
SWIDTH 1000 0
DWIDTH 10 0
BBX 10 10 0 -1
BITMAP
0000
0000
0000
0000
0000
BE80
BE80
DD80
E380
FF80
ENDCHAR
STARTCHAR u25DC
ENCODING 9692
SWIDTH 1000 0
DWIDTH 10 0
BBX 10 10 0 -1
BITMAP
0000
3800
4000
8000
8000
8000
0000
0000
0000
0000
ENDCHAR
STARTCHAR u25DD
ENCODING 9693
SWIDTH 1000 0
DWIDTH 10 0
BBX 10 10 0 -1
BITMAP
0000
0E00
0100
0080
0080
0080
0000
0000
0000
0000
ENDCHAR
STARTCHAR u25DE
ENCODING 9694
SWIDTH 1000 0
DWIDTH 10 0
BBX 10 10 0 -1
BITMAP
0000
0000
0000
0000
0000
0080
0080
0080
0100
0E00
ENDCHAR
STARTCHAR u25DF
ENCODING 9695
SWIDTH 1000 0
DWIDTH 10 0
BBX 10 10 0 -1
BITMAP
0000
0000
0000
0000
0000
8000
8000
8000
4000
3800
ENDCHAR
STARTCHAR u25E0
ENCODING 9696
SWIDTH 1000 0
DWIDTH 10 0
BBX 10 10 0 -1
BITMAP
0000
3E00
4100
8080
8080
8080
0000
0000
0000
0000
ENDCHAR
STARTCHAR u25E1
ENCODING 9697
SWIDTH 1000 0
DWIDTH 10 0
BBX 10 10 0 -1
BITMAP
0000
0000
0000
0000
0000
8080
8080
8080
4100
3E00
ENDCHAR
STARTCHAR u25E2
ENCODING 9698
SWIDTH 1000 0
DWIDTH 10 0
BBX 10 10 0 -1
BITMAP
0000
0080
0180
0380
0780
0F80
1F80
3F80
7F80
FF80
ENDCHAR
STARTCHAR u25E3
ENCODING 9699
SWIDTH 1000 0
DWIDTH 10 0
BBX 10 10 0 -1
BITMAP
0000
8000
C000
E000
F000
F800
FC00
FE00
FF00
FF80
ENDCHAR
STARTCHAR u25E4
ENCODING 9700
SWIDTH 1000 0
DWIDTH 10 0
BBX 10 10 0 -1
BITMAP
0000
FF80
FF00
FE00
FC00
F800
F000
E000
C000
8000
ENDCHAR
STARTCHAR u25E5
ENCODING 9701
SWIDTH 1000 0
DWIDTH 10 0
BBX 10 10 0 -1
BITMAP
0000
FF80
7F80
3F80
1F80
0F80
0780
0380
0180
0080
ENDCHAR
STARTCHAR u25E6
ENCODING 9702
SWIDTH 1000 0
DWIDTH 10 0
BBX 10 10 0 -1
BITMAP
0000
0000
0000
1C00
2200
2200
2200
1C00
0000
0000
ENDCHAR
STARTCHAR u25E7
ENCODING 9703
SWIDTH 1000 0
DWIDTH 10 0
BBX 10 10 0 -1
BITMAP
0000
FF80
F880
F880
F880
F880
F880
F880
F880
FF80
ENDCHAR
STARTCHAR u25E8
ENCODING 9704
SWIDTH 1000 0
DWIDTH 10 0
BBX 10 10 0 -1
BITMAP
0000
FF80
8F80
8F80
8F80
8F80
8F80
8F80
8F80
FF80
ENDCHAR
STARTCHAR u25E9
ENCODING 9705
SWIDTH 1000 0
DWIDTH 10 0
BBX 10 10 0 -1
BITMAP
0000
FF80
FF80
FE80
FC80
F880
F080
E080
C080
FF80
ENDCHAR
STARTCHAR u25EA
ENCODING 9706
SWIDTH 1000 0
DWIDTH 10 0
BBX 10 10 0 -1
BITMAP
0000
FF80
8180
8380
8780
8F80
9F80
BF80
FF80
FF80
ENDCHAR
STARTCHAR u25EB
ENCODING 9707
SWIDTH 1000 0
DWIDTH 10 0
BBX 10 10 0 -1
BITMAP
0000
FF80
8880
8880
8880
8880
8880
8880
8880
FF80
ENDCHAR
STARTCHAR u25EC
ENCODING 9708
SWIDTH 1000 0
DWIDTH 10 0
BBX 10 10 0 -1
BITMAP
0000
0800
1400
1400
2200
2200
4900
4100
8080
FF80
ENDCHAR
STARTCHAR u25ED
ENCODING 9709
SWIDTH 1000 0
DWIDTH 10 0
BBX 10 10 0 -1
BITMAP
0000
0800
1C00
1C00
3A00
3A00
7900
7900
F880
FF80
ENDCHAR
STARTCHAR u25EE
ENCODING 9710
SWIDTH 1000 0
DWIDTH 10 0
BBX 10 10 0 -1
BITMAP
0000
0800
1C00
1C00
2E00
2E00
4F00
4F00
8F80
FF80
ENDCHAR
STARTCHAR u25EF
ENCODING 9711
SWIDTH 1000 0
DWIDTH 10 0
BBX 10 10 0 -1
BITMAP
1E00
2100
4080
8040
8040
8040
8040
4080
2100
1E00
ENDCHAR
STARTCHAR u25F0
ENCODING 9712
SWIDTH 1000 0
DWIDTH 10 0
BBX 10 10 0 -1
BITMAP
0000
FF80
8880
8880
8880
F880
8080
8080
8080
FF80
ENDCHAR
STARTCHAR u25F1
ENCODING 9713
SWIDTH 1000 0
DWIDTH 10 0
BBX 10 10 0 -1
BITMAP
0000
FF80
8080
8080
8080
F880
8880
8880
8880
FF80
ENDCHAR
STARTCHAR u25F2
ENCODING 9714
SWIDTH 1000 0
DWIDTH 10 0
BBX 10 10 0 -1
BITMAP
0000
FF80
8080
8080
8080
8F80
8880
8880
8880
FF80
ENDCHAR
STARTCHAR u25F3
ENCODING 9715
SWIDTH 1000 0
DWIDTH 10 0
BBX 10 10 0 -1
BITMAP
0000
FF80
8880
8880
8880
8F80
8080
8080
8080
FF80
ENDCHAR
STARTCHAR u25F4
ENCODING 9716
SWIDTH 1000 0
DWIDTH 10 0
BBX 10 10 0 -1
BITMAP
0000
3E00
4900
8880
8880
F880
8080
8080
4100
3E00
ENDCHAR
STARTCHAR u25F5
ENCODING 9717
SWIDTH 1000 0
DWIDTH 10 0
BBX 10 10 0 -1
BITMAP
0000
3E00
4100
8080
8080
F880
8880
8880
4900
3E00
ENDCHAR
STARTCHAR u25F6
ENCODING 9718
SWIDTH 1000 0
DWIDTH 10 0
BBX 10 10 0 -1
BITMAP
0000
3E00
4100
8080
8080
8F80
8880
8880
4900
3E00
ENDCHAR
STARTCHAR u25F7
ENCODING 9719
SWIDTH 1000 0
DWIDTH 10 0
BBX 10 10 0 -1
BITMAP
0000
3E00
4900
8880
8880
8F80
8080
8080
4100
3E00
ENDCHAR
STARTCHAR u25F8
ENCODING 9720
SWIDTH 1000 0
DWIDTH 10 0
BBX 10 10 0 -1
BITMAP
0000
FF80
8100
8200
8400
8800
9000
A000
C000
8000
ENDCHAR
STARTCHAR u25F9
ENCODING 9721
SWIDTH 1000 0
DWIDTH 10 0
BBX 10 10 0 -1
BITMAP
0000
FF80
4080
2080
1080
0880
0480
0280
0180
0080
ENDCHAR
STARTCHAR u25FA
ENCODING 9722
SWIDTH 1000 0
DWIDTH 10 0
BBX 10 10 0 -1
BITMAP
0000
8000
C000
A000
9000
8800
8400
8200
8100
FF80
ENDCHAR
STARTCHAR u25FB
ENCODING 9723
SWIDTH 1000 0
DWIDTH 10 0
BBX 10 10 0 -1
BITMAP
0000
0000
7F00
4100
4100
4100
4100
4100
7F00
0000
ENDCHAR
STARTCHAR u25FC
ENCODING 9724
SWIDTH 1000 0
DWIDTH 10 0
BBX 10 10 0 -1
BITMAP
0000
0000
7F00
7F00
7F00
7F00
7F00
7F00
7F00
0000
ENDCHAR
STARTCHAR u25FD
ENCODING 9725
SWIDTH 1000 0
DWIDTH 10 0
BBX 10 10 0 -1
BITMAP
0000
0000
0000
3E00
2200
2200
2200
3E00
0000
0000
ENDCHAR
STARTCHAR u25FE
ENCODING 9726
SWIDTH 1000 0
DWIDTH 10 0
BBX 10 10 0 -1
BITMAP
0000
0000
0000
3E00
3E00
3E00
3E00
3E00
0000
0000
ENDCHAR
STARTCHAR u25FF
ENCODING 9727
SWIDTH 1000 0
DWIDTH 10 0
BBX 10 10 0 -1
BITMAP
0000
0080
0180
0280
0480
0880
1080
2080
4080
FF80
ENDCHAR
STARTCHAR u2600
ENCODING 9728
SWIDTH 1000 0
DWIDTH 10 0
BBX 10 10 0 -1
BITMAP
0000
0800
4100
1C00
3E00
BE80
3E00
1C00
4100
0800
ENDCHAR
STARTCHAR u2601
ENCODING 9729
SWIDTH 1000 0
DWIDTH 10 0
BBX 10 10 0 -1
BITMAP
0000
1C00
2200
6300
8080
8080
8480
4900
3600
0000
ENDCHAR
STARTCHAR u2602
ENCODING 9730
SWIDTH 1000 0
DWIDTH 10 0
BBX 10 10 0 -1
BITMAP
0000
0800
3E00
7F00
FF80
0800
0800
0800
2800
1000
ENDCHAR
STARTCHAR u2603
ENCODING 9731
SWIDTH 1000 0
DWIDTH 10 0
BBX 10 10 0 -1
BITMAP
0000
BE80
3E00
7F00
2200
BE80
5100
5100
4100
3E00
ENDCHAR
STARTCHAR u2604
ENCODING 9732
SWIDTH 1000 0
DWIDTH 10 0
BBX 10 10 0 -1
BITMAP
0000
0880
1100
1200
2400
0880
6300
9400
9000
6000
ENDCHAR
STARTCHAR u2605
ENCODING 9733
SWIDTH 1000 0
DWIDTH 10 0
BBX 10 10 0 -1
BITMAP
0000
0800
0800
1C00
FF80
3E00
1C00
3600
2200
4100
ENDCHAR
STARTCHAR u2606
ENCODING 9734
SWIDTH 1000 0
DWIDTH 10 0
BBX 10 10 0 -1
BITMAP
0000
0800
0800
1400
F780
4100
2A00
3600
2200
4100
ENDCHAR
STARTCHAR u2607
ENCODING 9735
SWIDTH 1000 0
DWIDTH 10 0
BBX 10 10 0 -1
BITMAP
0000
0200
0400
0800
1000
2000
1200
0A00
0600
1E00
ENDCHAR
STARTCHAR u2608
ENCODING 9736
SWIDTH 1000 0
DWIDTH 10 0
BBX 10 10 0 -1
BITMAP
0000
7F00
4200
4400
4800
5000
4900
4500
4300
4F00
ENDCHAR
STARTCHAR u2609
ENCODING 9737
SWIDTH 1000 0
DWIDTH 10 0
BBX 10 10 0 -1
BITMAP
0000
0000
1C00
2200
4100
4900
4100
2200
1C00
0000
ENDCHAR
STARTCHAR u260A
ENCODING 9738
SWIDTH 1000 0
DWIDTH 10 0
BBX 10 10 0 -1
BITMAP
0000
3E00
4100
8080
8080
8080
4100
E380
A280
E380
ENDCHAR
STARTCHAR u260B
ENCODING 9739
SWIDTH 1000 0
DWIDTH 10 0
BBX 10 10 0 -1
BITMAP
0000
E380
A280
E380
4100
8080
8080
8080
4100
3E00
ENDCHAR
STARTCHAR u260C
ENCODING 9740
SWIDTH 1000 0
DWIDTH 10 0
BBX 10 10 0 -1
BITMAP
0000
0080
0100
0200
3400
4800
8400
8400
4800
3000
ENDCHAR
STARTCHAR u260D
ENCODING 9741
SWIDTH 1000 0
DWIDTH 10 0
BBX 10 10 0 -1
BITMAP
0000
0300
0480
0480
0700
0800
7000
9000
9000
6000
ENDCHAR
STARTCHAR u260E
ENCODING 9742
SWIDTH 1000 0
DWIDTH 10 0
BBX 10 10 0 -1
BITMAP
0000
3E00
FF80
FF80
DD80
3E00
7F00
E380
E380
FF80
ENDCHAR
STARTCHAR u260F
ENCODING 9743
SWIDTH 1000 0
DWIDTH 10 0
BBX 10 10 0 -1
BITMAP
0000
3E00
C180
9C80
E380
2200
4100
9C80
9480
FF80
ENDCHAR
STARTCHAR u2610
ENCODING 9744
SWIDTH 1000 0
DWIDTH 10 0
BBX 10 10 0 -1
BITMAP
0000
0000
7F00
4100
4100
4100
4100
4100
7F00
0000
ENDCHAR
STARTCHAR u2611
ENCODING 9745
SWIDTH 1000 0
DWIDTH 10 0
BBX 10 10 0 -1
BITMAP
0000
0000
7F00
4100
4300
4500
6900
5100
7F00
0000
ENDCHAR
STARTCHAR u2612
ENCODING 9746
SWIDTH 1000 0
DWIDTH 10 0
BBX 10 10 0 -1
BITMAP
0000
0000
7F00
6300
5500
4900
5500
6300
7F00
0000
ENDCHAR
STARTCHAR u2613
ENCODING 9747
SWIDTH 1000 0
DWIDTH 10 0
BBX 10 10 0 -1
BITMAP
0000
0000
4100
2200
1400
0800
1400
2200
4100
0000
ENDCHAR
STARTCHAR u2614
ENCODING 9748
SWIDTH 1000 0
DWIDTH 10 0
BBX 10 10 0 -1
BITMAP
0000
2200
8880
3E00
7F00
FF80
0800
0800
2800
1000
ENDCHAR
STARTCHAR u2616
ENCODING 9750
SWIDTH 1000 0
DWIDTH 10 0
BBX 10 10 0 -1
BITMAP
0000
0800
1400
2200
4100
4100
4100
4100
4100
7F00
ENDCHAR
STARTCHAR u2617
ENCODING 9751
SWIDTH 1000 0
DWIDTH 10 0
BBX 10 10 0 -1
BITMAP
0000
0800
1C00
3E00
7F00
7F00
7F00
7F00
7F00
7F00
ENDCHAR
STARTCHAR u2618
ENCODING 9752
SWIDTH 1000 0
DWIDTH 10 0
BBX 10 10 0 -1
BITMAP
0000
1400
3E00
1C00
4900
EB80
7F00
EB80
4900
1000
ENDCHAR
STARTCHAR u2619
ENCODING 9753
SWIDTH 1000 0
DWIDTH 10 0
BBX 10 10 0 -1
BITMAP
0000
0080
4C80
9E80
BE80
FD00
FE80
7E80
1C80
0100
ENDCHAR
STARTCHAR u261A
ENCODING 9754
SWIDTH 1000 0
DWIDTH 10 0
BBX 10 10 0 -1
BITMAP
0000
1800
1C00
FE00
FF80
3E80
3E80
1E80
0F80
0000
ENDCHAR
STARTCHAR u261B
ENCODING 9755
SWIDTH 1000 0
DWIDTH 10 0
BBX 10 10 0 -1
BITMAP
0000
0C00
1C00
3F80
FF80
BE00
BE00
BC00
F800
0000
ENDCHAR
STARTCHAR u261C
ENCODING 9756
SWIDTH 1000 0
DWIDTH 10 0
BBX 10 10 0 -1
BITMAP
0000
1800
1400
FA00
8380
6280
2280
1280
0F80
0000
ENDCHAR
STARTCHAR u261D
ENCODING 9757
SWIDTH 1000 0
DWIDTH 10 0
BBX 10 10 0 -1
BITMAP
0000
0600
0A00
1A00
2380
4280
4100
7E00
4400
7C00
ENDCHAR
STARTCHAR u261E
ENCODING 9758
SWIDTH 1000 0
DWIDTH 10 0
BBX 10 10 0 -1
BITMAP
0000
0C00
1400
2F80
E080
A300
A200
A400
F800
0000
ENDCHAR
STARTCHAR u261F
ENCODING 9759
SWIDTH 1000 0
DWIDTH 10 0
BBX 10 10 0 -1
BITMAP
0000
7C00
4400
7E00
4100
4280
2380
1A00
0A00
0600
ENDCHAR
STARTCHAR u2620
ENCODING 9760
SWIDTH 1000 0
DWIDTH 10 0
BBX 10 10 0 -1
BITMAP
0000
3E00
7F00
4900
4900
3E00
1400
C180
3E00
C180
ENDCHAR
STARTCHAR u2621
ENCODING 9761
SWIDTH 1000 0
DWIDTH 10 0
BBX 10 10 0 -1
BITMAP
0000
0E00
3100
C200
0400
0800
1000
2180
4600
3800
ENDCHAR
STARTCHAR u2624
ENCODING 9764
SWIDTH 1000 0
DWIDTH 10 0
BBX 10 10 0 -1
BITMAP
0000
0800
FF80
5D00
3E00
4900
3E00
2A00
1C00
2A00
ENDCHAR
STARTCHAR u2625
ENCODING 9765
SWIDTH 1000 0
DWIDTH 10 0
BBX 10 10 0 -1
BITMAP
0000
0800
1400
1400
4900
7F00
4900
0800
0800
1C00
ENDCHAR
STARTCHAR u2628
ENCODING 9768
SWIDTH 1000 0
DWIDTH 10 0
BBX 10 10 0 -1
BITMAP
0000
0800
1C00
0800
3E00
0800
0800
0800
0800
0800
ENDCHAR
STARTCHAR u2629
ENCODING 9769
SWIDTH 1000 0
DWIDTH 10 0
BBX 10 10 0 -1
BITMAP
0000
1C00
0800
0800
8880
FF80
8880
0800
0800
1C00
ENDCHAR
STARTCHAR u262A
ENCODING 9770
SWIDTH 1000 0
DWIDTH 10 0
BBX 10 10 0 -1
BITMAP
0000
3E00
7100
E000
E100
E380
E100
E000
7100
3E00
ENDCHAR
STARTCHAR u262B
ENCODING 9771
SWIDTH 1000 0
DWIDTH 10 0
BBX 10 10 0 -1
BITMAP
0000
2A00
3600
4900
9C80
AA80
AA80
AA80
5D00
0800
ENDCHAR
STARTCHAR u262C
ENCODING 9772
SWIDTH 1000 0
DWIDTH 10 0
BBX 10 10 0 -1
BITMAP
0000
2A00
4900
9C80
AA80
AA80
9C80
C980
9C80
2A00
ENDCHAR
STARTCHAR u262D
ENCODING 9773
SWIDTH 1000 0
DWIDTH 10 0
BBX 10 10 0 -1
BITMAP
0000
3E00
4100
0880
1080
2880
0500
2200
5D00
8080
ENDCHAR
STARTCHAR u262E
ENCODING 9774
SWIDTH 1000 0
DWIDTH 10 0
BBX 10 10 0 -1
BITMAP
0000
3E00
4900
8880
8880
8880
9C80
AA80
4900
3E00
ENDCHAR
STARTCHAR u262F
ENCODING 9775
SWIDTH 1000 0
DWIDTH 10 0
BBX 10 10 0 -1
BITMAP
0000
3E00
7D00
EC80
FC80
F880
F080
E480
6100
3E00
ENDCHAR
STARTCHAR u2630
ENCODING 9776
SWIDTH 1000 0
DWIDTH 10 0
BBX 10 10 0 -1
BITMAP
0000
0000
FF80
0000
0000
FF80
0000
0000
FF80
0000
ENDCHAR
STARTCHAR u2631
ENCODING 9777
SWIDTH 1000 0
DWIDTH 10 0
BBX 10 10 0 -1
BITMAP
0000
0000
F780
0000
0000
FF80
0000
0000
FF80
0000
ENDCHAR
STARTCHAR u2632
ENCODING 9778
SWIDTH 1000 0
DWIDTH 10 0
BBX 10 10 0 -1
BITMAP
0000
0000
FF80
0000
0000
F780
0000
0000
FF80
0000
ENDCHAR
STARTCHAR u2633
ENCODING 9779
SWIDTH 1000 0
DWIDTH 10 0
BBX 10 10 0 -1
BITMAP
0000
0000
F780
0000
0000
F780
0000
0000
FF80
0000
ENDCHAR
STARTCHAR u2634
ENCODING 9780
SWIDTH 1000 0
DWIDTH 10 0
BBX 10 10 0 -1
BITMAP
0000
0000
FF80
0000
0000
FF80
0000
0000
F780
0000
ENDCHAR
STARTCHAR u2635
ENCODING 9781
SWIDTH 1000 0
DWIDTH 10 0
BBX 10 10 0 -1
BITMAP
0000
0000
F780
0000
0000
FF80
0000
0000
F780
0000
ENDCHAR
STARTCHAR u2636
ENCODING 9782
SWIDTH 1000 0
DWIDTH 10 0
BBX 10 10 0 -1
BITMAP
0000
0000
FF80
0000
0000
F780
0000
0000
F780
0000
ENDCHAR
STARTCHAR u2637
ENCODING 9783
SWIDTH 1000 0
DWIDTH 10 0
BBX 10 10 0 -1
BITMAP
0000
0000
F780
0000
0000
F780
0000
0000
F780
0000
ENDCHAR
STARTCHAR u2638
ENCODING 9784
SWIDTH 1000 0
DWIDTH 10 0
BBX 10 10 0 -1
BITMAP
0000
0800
5D00
2A00
5D00
F780
5D00
2A00
5D00
0800
ENDCHAR
STARTCHAR u2639
ENCODING 9785
SWIDTH 1000 0
DWIDTH 10 0
BBX 10 10 0 -1
BITMAP
0000
3E00
4100
9480
9480
8080
9C80
A280
4100
3E00
ENDCHAR
STARTCHAR u263A
ENCODING 9786
SWIDTH 1000 0
DWIDTH 10 0
BBX 10 10 0 -1
BITMAP
0000
3E00
4100
9480
9480
8080
A280
9C80
4100
3E00
ENDCHAR
STARTCHAR u263B
ENCODING 9787
SWIDTH 1000 0
DWIDTH 10 0
BBX 10 10 0 -1
BITMAP
0000
3E00
7F00
EB80
EB80
FF80
DD80
E380
7F00
3E00
ENDCHAR
STARTCHAR u263C
ENCODING 9788
SWIDTH 1000 0
DWIDTH 10 0
BBX 10 10 0 -1
BITMAP
0000
0800
4100
1C00
2200
A280
2200
1C00
4100
0800
ENDCHAR
STARTCHAR u263D
ENCODING 9789
SWIDTH 1000 0
DWIDTH 10 0
BBX 10 10 0 -1
BITMAP
0000
7C00
1200
0900
0900
0900
0900
0900
1200
7C00
ENDCHAR
STARTCHAR u263E
ENCODING 9790
SWIDTH 1000 0
DWIDTH 10 0
BBX 10 10 0 -1
BITMAP
0000
1F00
2400
4800
4800
4800
4800
4800
2400
1F00
ENDCHAR
STARTCHAR u263F
ENCODING 9791
SWIDTH 1000 0
DWIDTH 10 0
BBX 10 10 0 -1
BITMAP
0000
2200
1C00
2200
2200
2200
1C00
0800
7F00
0800
ENDCHAR
STARTCHAR u2640
ENCODING 9792
SWIDTH 1000 0
DWIDTH 10 0
BBX 10 10 0 -1
BITMAP
0000
1C00
2200
2200
2200
1C00
0800
7F00
0800
0800
ENDCHAR
STARTCHAR u2641
ENCODING 9793
SWIDTH 1000 0
DWIDTH 10 0
BBX 10 10 0 -1
BITMAP
0000
0800
0800
7F00
0800
1C00
2200
2200
2200
1C00
ENDCHAR
STARTCHAR u2642
ENCODING 9794
SWIDTH 1000 0
DWIDTH 10 0
BBX 10 10 0 -1
BITMAP
0000
0F80
0180
0280
0480
7880
8800
8800
8800
7000
ENDCHAR
STARTCHAR u2643
ENCODING 9795
SWIDTH 1000 0
DWIDTH 10 0
BBX 10 10 0 -1
BITMAP
0000
0100
0100
3900
4500
0500
0500
0900
7F00
0100
ENDCHAR
STARTCHAR u2644
ENCODING 9796
SWIDTH 1000 0
DWIDTH 10 0
BBX 10 10 0 -1
BITMAP
0000
1000
3800
1000
1600
1900
1100
1100
1200
1200
ENDCHAR
STARTCHAR u2645
ENCODING 9797
SWIDTH 1000 0
DWIDTH 10 0
BBX 10 10 0 -1
BITMAP
0000
6B00
2A00
2A00
3E00
2A00
6B00
0800
1400
0800
ENDCHAR
STARTCHAR u2646
ENCODING 9798
SWIDTH 1000 0
DWIDTH 10 0
BBX 10 10 0 -1
BITMAP
0000
0800
5D00
EB80
4900
4900
3E00
0800
1C00
0800
ENDCHAR
STARTCHAR u2647
ENCODING 9799
SWIDTH 1000 0
DWIDTH 10 0
BBX 10 10 0 -1
BITMAP
0000
3C00
2200
2200
2200
3C00
2000
2000
2000
3E00
ENDCHAR
STARTCHAR u2648
ENCODING 9800
SWIDTH 1000 0
DWIDTH 10 0
BBX 10 10 0 -1
BITMAP
0000
6300
9480
9480
1400
1400
0800
0800
0800
0800
ENDCHAR
STARTCHAR u2649
ENCODING 9801
SWIDTH 1000 0
DWIDTH 10 0
BBX 10 10 0 -1
BITMAP
0000
C180
2200
2200
2200
1C00
2200
2200
2200
1C00
ENDCHAR
STARTCHAR u264A
ENCODING 9802
SWIDTH 1000 0
DWIDTH 10 0
BBX 10 10 0 -1
BITMAP
0000
4100
3E00
1400
1400
1400
1400
1400
3E00
4100
ENDCHAR
STARTCHAR u264B
ENCODING 9803
SWIDTH 1000 0
DWIDTH 10 0
BBX 10 10 0 -1
BITMAP
0000
7C00
9300
9080
6000
0000
0300
8480
6480
1F00
ENDCHAR
STARTCHAR u264C
ENCODING 9804
SWIDTH 1000 0
DWIDTH 10 0
BBX 10 10 0 -1
BITMAP
0000
1E00
2100
2100
1100
7200
9200
9200
6280
0100
ENDCHAR
STARTCHAR u264D
ENCODING 9805
SWIDTH 1000 0
DWIDTH 10 0
BBX 10 10 0 -1
BITMAP
0000
6C00
9200
9200
9300
9280
9280
9280
0100
0680
ENDCHAR
STARTCHAR u264E
ENCODING 9806
SWIDTH 1000 0
DWIDTH 10 0
BBX 10 10 0 -1
BITMAP
0000
1C00
2200
2200
2200
2200
1400
7700
0000
7F00
ENDCHAR
STARTCHAR u264F
ENCODING 9807
SWIDTH 1000 0
DWIDTH 10 0
BBX 10 10 0 -1
BITMAP
0000
6C00
9200
9200
9200
9200
9200
9200
0280
0180
ENDCHAR
STARTCHAR u2650
ENCODING 9808
SWIDTH 1000 0
DWIDTH 10 0
BBX 10 10 0 -1
BITMAP
0000
0780
0180
0280
4480
2800
1000
2800
4400
8000
ENDCHAR
STARTCHAR u2651
ENCODING 9809
SWIDTH 1000 0
DWIDTH 10 0
BBX 10 10 0 -1
BITMAP
0000
B800
4400
4400
4400
4700
4480
4480
0700
1800
ENDCHAR
STARTCHAR u2652
ENCODING 9810
SWIDTH 1000 0
DWIDTH 10 0
BBX 10 10 0 -1
BITMAP
0000
0000
2200
5500
9980
0000
2200
5500
9980
0000
ENDCHAR
STARTCHAR u2653
ENCODING 9811
SWIDTH 1000 0
DWIDTH 10 0
BBX 10 10 0 -1
BITMAP
0000
8080
4100
2200
2200
FF80
2200
2200
4100
8080
ENDCHAR
STARTCHAR u2654
ENCODING 9812
SWIDTH 1000 0
DWIDTH 10 0
BBX 10 10 0 -1
BITMAP
0000
0800
1C00
6B00
9480
8880
8880
7F00
4100
7F00
ENDCHAR
STARTCHAR u2655
ENCODING 9813
SWIDTH 1000 0
DWIDTH 10 0
BBX 10 10 0 -1
BITMAP
0000
0800
4900
2A00
9C80
6300
2200
3E00
2200
3E00
ENDCHAR
STARTCHAR u2656
ENCODING 9814
SWIDTH 1000 0
DWIDTH 10 0
BBX 10 10 0 -1
BITMAP
0000
4900
7F00
4100
7F00
2200
2200
7F00
8080
FF80
ENDCHAR
STARTCHAR u2657
ENCODING 9815
SWIDTH 1000 0
DWIDTH 10 0
BBX 10 10 0 -1
BITMAP
0000
0800
1400
2A00
5D00
4900
2200
3E00
4100
7F00
ENDCHAR
STARTCHAR u2658
ENCODING 9816
SWIDTH 1000 0
DWIDTH 10 0
BBX 10 10 0 -1
BITMAP
0000
0600
1900
2500
4100
5D00
6900
1E00
2100
3F00
ENDCHAR
STARTCHAR u2659
ENCODING 9817
SWIDTH 1000 0
DWIDTH 10 0
BBX 10 10 0 -1
BITMAP
0000
1C00
2200
2200
2200
1C00
2200
2200
4100
7F00
ENDCHAR
STARTCHAR u265A
ENCODING 9818
SWIDTH 1000 0
DWIDTH 10 0
BBX 10 10 0 -1
BITMAP
0000
0800
1C00
6B00
F780
FF80
F780
7700
4100
7F00
ENDCHAR
STARTCHAR u265B
ENCODING 9819
SWIDTH 1000 0
DWIDTH 10 0
BBX 10 10 0 -1
BITMAP
0000
0800
4900
2A00
9C80
7F00
3E00
3E00
2200
3E00
ENDCHAR
STARTCHAR u265C
ENCODING 9820
SWIDTH 1000 0
DWIDTH 10 0
BBX 10 10 0 -1
BITMAP
0000
4900
7F00
4100
7F00
3E00
3E00
7F00
8080
FF80
ENDCHAR
STARTCHAR u265D
ENCODING 9821
SWIDTH 1000 0
DWIDTH 10 0
BBX 10 10 0 -1
BITMAP
0000
0800
1C00
3600
6300
7700
3E00
3E00
4100
7F00
ENDCHAR
STARTCHAR u265E
ENCODING 9822
SWIDTH 1000 0
DWIDTH 10 0
BBX 10 10 0 -1
BITMAP
0000
0600
1F00
3B00
7F00
6700
0F00
1E00
2100
3F00
ENDCHAR
STARTCHAR u265F
ENCODING 9823
SWIDTH 1000 0
DWIDTH 10 0
BBX 10 10 0 -1
BITMAP
0000
1C00
3E00
3E00
3E00
1C00
2200
3E00
3E00
7F00
ENDCHAR
STARTCHAR u2660
ENCODING 9824
SWIDTH 1000 0
DWIDTH 10 0
BBX 10 10 0 -1
BITMAP
0000
0800
1C00
3E00
7F00
FF80
FF80
6B00
0800
3E00
ENDCHAR
STARTCHAR u2661
ENCODING 9825
SWIDTH 1000 0
DWIDTH 10 0
BBX 10 10 0 -1
BITMAP
0000
6300
9480
8880
8080
8080
4100
2200
1400
0800
ENDCHAR
STARTCHAR u2662
ENCODING 9826
SWIDTH 1000 0
DWIDTH 10 0
BBX 10 10 0 -1
BITMAP
0000
0800
1400
2200
4100
8080
4100
2200
1400
0800
ENDCHAR
STARTCHAR u2663
ENCODING 9827
SWIDTH 1000 0
DWIDTH 10 0
BBX 10 10 0 -1
BITMAP
0000
1C00
3E00
1C00
6B00
FF80
FF80
6B00
0800
3E00
ENDCHAR
STARTCHAR u2664
ENCODING 9828
SWIDTH 1000 0
DWIDTH 10 0
BBX 10 10 0 -1
BITMAP
0000
0800
1400
2200
4100
8080
9480
6B00
0800
3E00
ENDCHAR
STARTCHAR u2665
ENCODING 9829
SWIDTH 1000 0
DWIDTH 10 0
BBX 10 10 0 -1
BITMAP
0000
6300
F780
FF80
FF80
FF80
7F00
3E00
1C00
0800
ENDCHAR
STARTCHAR u2666
ENCODING 9830
SWIDTH 1000 0
DWIDTH 10 0
BBX 10 10 0 -1
BITMAP
0000
0800
1C00
3E00
7F00
FF80
7F00
3E00
1C00
0800
ENDCHAR
STARTCHAR u2667
ENCODING 9831
SWIDTH 1000 0
DWIDTH 10 0
BBX 10 10 0 -1
BITMAP
0000
1C00
2200
2200
5500
8080
9480
6B00
0800
3E00
ENDCHAR
STARTCHAR u2668
ENCODING 9832
SWIDTH 1000 0
DWIDTH 10 0
BBX 10 10 0 -1
BITMAP
0000
2480
4900
4900
4900
2480
2480
4900
8080
7F00
ENDCHAR
STARTCHAR u2669
ENCODING 9833
SWIDTH 1000 0
DWIDTH 10 0
BBX 10 10 0 -1
BITMAP
0000
0800
0800
0800
0800
0800
0800
1800
3800
3000
ENDCHAR
STARTCHAR u266A
ENCODING 9834
SWIDTH 1000 0
DWIDTH 10 0
BBX 10 10 0 -1
BITMAP
0000
0800
0C00
0A00
0A00
0A00
0800
1800
3800
3000
ENDCHAR
STARTCHAR u266B
ENCODING 9835
SWIDTH 1000 0
DWIDTH 10 0
BBX 10 10 0 -1
BITMAP
0000
0780
3880
2080
2080
2080
2180
6380
E300
C000
ENDCHAR
STARTCHAR u266C
ENCODING 9836
SWIDTH 1000 0
DWIDTH 10 0
BBX 10 10 0 -1
BITMAP
0000
0780
3880
2780
3880
2080
2180
6380
E300
C000
ENDCHAR
STARTCHAR u266D
ENCODING 9837
SWIDTH 1000 0
DWIDTH 10 0
BBX 10 10 0 -1
BITMAP
0000
2000
2000
2000
2C00
3200
2200
2400
2800
3000
ENDCHAR
STARTCHAR u266E
ENCODING 9838
SWIDTH 1000 0
DWIDTH 10 0
BBX 10 10 0 -1
BITMAP
0000
1000
1000
1600
1A00
1200
1200
1600
1A00
0200
ENDCHAR
STARTCHAR u266F
ENCODING 9839
SWIDTH 1000 0
DWIDTH 10 0
BBX 10 10 0 -1
BITMAP
0000
0200
1380
1E00
7200
1200
1380
1E00
7200
1000
ENDCHAR
STARTCHAR u2680
ENCODING 9856
SWIDTH 1000 0
DWIDTH 10 0
BBX 10 10 0 -1
BITMAP
0000
7F00
8080
8080
8080
8880
8080
8080
8080
7F00
ENDCHAR
STARTCHAR u2681
ENCODING 9857
SWIDTH 1000 0
DWIDTH 10 0
BBX 10 10 0 -1
BITMAP
0000
7F00
8080
A080
8080
8080
8080
8280
8080
7F00
ENDCHAR
STARTCHAR u2682
ENCODING 9858
SWIDTH 1000 0
DWIDTH 10 0
BBX 10 10 0 -1
BITMAP
0000
7F00
8080
A080
8080
8880
8080
8280
8080
7F00
ENDCHAR
STARTCHAR u2683
ENCODING 9859
SWIDTH 1000 0
DWIDTH 10 0
BBX 10 10 0 -1
BITMAP
0000
7F00
8080
A280
8080
8080
8080
A280
8080
7F00
ENDCHAR
STARTCHAR u2684
ENCODING 9860
SWIDTH 1000 0
DWIDTH 10 0
BBX 10 10 0 -1
BITMAP
0000
7F00
8080
A280
8080
8880
8080
A280
8080
7F00
ENDCHAR
STARTCHAR u2685
ENCODING 9861
SWIDTH 1000 0
DWIDTH 10 0
BBX 10 10 0 -1
BITMAP
0000
7F00
8080
A280
8080
A280
8080
A280
8080
7F00
ENDCHAR
STARTCHAR u2686
ENCODING 9862
SWIDTH 1000 0
DWIDTH 10 0
BBX 10 10 0 -1
BITMAP
0000
3E00
4100
8080
8080
8280
8080
8080
4100
3E00
ENDCHAR
STARTCHAR u2687
ENCODING 9863
SWIDTH 1000 0
DWIDTH 10 0
BBX 10 10 0 -1
BITMAP
0000
3E00
4100
8080
8080
A280
8080
8080
4100
3E00
ENDCHAR
STARTCHAR u2688
ENCODING 9864
SWIDTH 1000 0
DWIDTH 10 0
BBX 10 10 0 -1
BITMAP
0000
3E00
7F00
FF80
FF80
FD80
FF80
FF80
7F00
3E00
ENDCHAR
STARTCHAR u2689
ENCODING 9865
SWIDTH 1000 0
DWIDTH 10 0
BBX 10 10 0 -1
BITMAP
0000
3E00
7F00
FF80
FF80
DD80
FF80
FF80
7F00
3E00
ENDCHAR
STARTCHAR u268A
ENCODING 9866
SWIDTH 1000 0
DWIDTH 10 0
BBX 10 10 0 -1
BITMAP
0000
0000
0000
0000
0000
FF80
0000
0000
0000
0000
ENDCHAR
STARTCHAR u268B
ENCODING 9867
SWIDTH 1000 0
DWIDTH 10 0
BBX 10 10 0 -1
BITMAP
0000
0000
0000
0000
0000
F780
0000
0000
0000
0000
ENDCHAR
STARTCHAR u268C
ENCODING 9868
SWIDTH 1000 0
DWIDTH 10 0
BBX 10 10 0 -1
BITMAP
0000
0000
0000
FF80
0000
0000
FF80
0000
0000
0000
ENDCHAR
STARTCHAR u268D
ENCODING 9869
SWIDTH 1000 0
DWIDTH 10 0
BBX 10 10 0 -1
BITMAP
0000
0000
0000
F780
0000
0000
FF80
0000
0000
0000
ENDCHAR
STARTCHAR u268E
ENCODING 9870
SWIDTH 1000 0
DWIDTH 10 0
BBX 10 10 0 -1
BITMAP
0000
0000
0000
FF80
0000
0000
F780
0000
0000
0000
ENDCHAR
STARTCHAR u268F
ENCODING 9871
SWIDTH 1000 0
DWIDTH 10 0
BBX 10 10 0 -1
BITMAP
0000
0000
0000
F780
0000
0000
F780
0000
0000
0000
ENDCHAR
STARTCHAR u2690
ENCODING 9872
SWIDTH 1000 0
DWIDTH 10 0
BBX 10 10 0 -1
BITMAP
0000
7800
4780
4080
4080
4080
7880
4780
4000
4000
ENDCHAR
STARTCHAR u2691
ENCODING 9873
SWIDTH 1000 0
DWIDTH 10 0
BBX 10 10 0 -1
BITMAP
0000
7800
7F80
7F80
7F80
7F80
7F80
4780
4000
4000
ENDCHAR
STARTCHAR u2692
ENCODING 9874
SWIDTH 1000 0
DWIDTH 10 0
BBX 10 10 0 -1
BITMAP
0000
A280
7700
E380
5580
0880
1400
2200
4100
8080
ENDCHAR
STARTCHAR u2693
ENCODING 9875
SWIDTH 1000 0
DWIDTH 10 0
BBX 10 10 0 -1
BITMAP
0000
0800
1400
0800
3E00
0800
0800
9C80
7F00
1C00
ENDCHAR
STARTCHAR u2694
ENCODING 9876
SWIDTH 1000 0
DWIDTH 10 0
BBX 10 10 0 -1
BITMAP
0000
8080
4100
2200
1400
0800
9480
E380
6300
B680
ENDCHAR
STARTCHAR u2695
ENCODING 9877
SWIDTH 1000 0
DWIDTH 10 0
BBX 10 10 0 -1
BITMAP
0000
0800
3F00
4800
3E00
0900
1E00
2800
1C00
0800
ENDCHAR
STARTCHAR u2698
ENCODING 9880
SWIDTH 1000 0
DWIDTH 10 0
BBX 10 10 0 -1
BITMAP
0000
1C00
2200
2200
1C00
0800
C980
6B00
1C00
0800
ENDCHAR
STARTCHAR u2699
ENCODING 9881
SWIDTH 1000 0
DWIDTH 10 0
BBX 10 10 0 -1
BITMAP
0000
8880
5D00
2200
4100
C980
4100
2200
5D00
8880
ENDCHAR
STARTCHAR u269A
ENCODING 9882
SWIDTH 1000 0
DWIDTH 10 0
BBX 10 10 0 -1
BITMAP
0000
0800
1400
C980
7700
3E00
1C00
0800
0800
0800
ENDCHAR
STARTCHAR u26AA
ENCODING 9898
SWIDTH 1000 0
DWIDTH 10 0
BBX 10 10 0 -1
BITMAP
0000
3E00
4100
8080
8080
8080
8080
8080
4100
3E00
ENDCHAR
STARTCHAR u26AB
ENCODING 9899
SWIDTH 1000 0
DWIDTH 10 0
BBX 10 10 0 -1
BITMAP
0000
3E00
7F00
FF80
FF80
FF80
FF80
FF80
7F00
3E00
ENDCHAR
STARTCHAR u26AC
ENCODING 9900
SWIDTH 1000 0
DWIDTH 10 0
BBX 10 10 0 -1
BITMAP
0000
0000
0000
1C00
2200
2200
2200
1C00
0000
0000
ENDCHAR
STARTCHAR u26B2
ENCODING 9906
SWIDTH 1000 0
DWIDTH 10 0
BBX 10 10 0 -1
BITMAP
0000
1C00
2200
4100
4100
4100
2200
1C00
0800
0800
ENDCHAR
STARTCHAR u26B3
ENCODING 9907
SWIDTH 1000 0
DWIDTH 10 0
BBX 10 10 0 -1
BITMAP
0000
1C00
2200
4100
0100
0200
0C00
0800
7F00
0800
ENDCHAR
STARTCHAR u26B4
ENCODING 9908
SWIDTH 1000 0
DWIDTH 10 0
BBX 10 10 0 -1
BITMAP
0000
0800
1400
2200
4100
2200
1400
0800
7F00
0800
ENDCHAR
STARTCHAR u26B5
ENCODING 9909
SWIDTH 1000 0
DWIDTH 10 0
BBX 10 10 0 -1
BITMAP
0000
0800
2A00
1C00
7F00
1C00
2A00
0800
7F00
0800
ENDCHAR
STARTCHAR u26B8
ENCODING 9912
SWIDTH 1000 0
DWIDTH 10 0
BBX 10 10 0 -1
BITMAP
0000
1E00
3800
3000
3000
3800
1E00
0800
7F00
0800
ENDCHAR
STARTCHAR u26BC
ENCODING 9916
SWIDTH 1000 0
DWIDTH 10 0
BBX 10 10 0 -1
BITMAP
0000
7F00
4100
4100
4900
4900
4900
7F00
0800
0F00
ENDCHAR
STARTCHAR u26BF
ENCODING 9919
SWIDTH 1000 0
DWIDTH 10 0
BBX 10 10 0 -1
BITMAP
0000
FF80
9C80
A280
9C80
8880
8880
8E80
8880
FF80
ENDCHAR
STARTCHAR u26C4
ENCODING 9924
SWIDTH 1000 0
DWIDTH 10 0
BBX 10 10 0 -1
BITMAP
0000
3E00
3E00
7F00
2200
3E00
5100
5100
4100
3E00
ENDCHAR
STARTCHAR u26C5
ENCODING 9925
SWIDTH 1000 0
DWIDTH 10 0
BBX 10 10 0 -1
BITMAP
0000
0800
4100
1C00
2300
AC80
7080
8080
8880
7700
ENDCHAR
STARTCHAR u26C6
ENCODING 9926
SWIDTH 1000 0
DWIDTH 10 0
BBX 10 10 0 -1
BITMAP
0000
0E00
1F00
7F80
FF80
FF80
7F00
0000
4900
9200
ENDCHAR
STARTCHAR u26C7
ENCODING 9927
SWIDTH 1000 0
DWIDTH 10 0
BBX 10 10 0 -1
BITMAP
0000
BE80
3E00
7F00
3E00
BE80
4100
6F00
6F00
3E00
ENDCHAR
STARTCHAR u26C8
ENCODING 9928
SWIDTH 1000 0
DWIDTH 10 0
BBX 10 10 0 -1
BITMAP
0000
0E00
1B00
7780
E180
FB80
7700
0000
4900
9200
ENDCHAR
STARTCHAR u26C9
ENCODING 9929
SWIDTH 1000 0
DWIDTH 10 0
BBX 10 10 0 -1
BITMAP
0000
7F00
4100
4100
4100
4100
4100
2200
1400
0800
ENDCHAR
STARTCHAR u26CA
ENCODING 9930
SWIDTH 1000 0
DWIDTH 10 0
BBX 10 10 0 -1
BITMAP
0000
7F00
7F00
7F00
7F00
7F00
7F00
3E00
1C00
0800
ENDCHAR
STARTCHAR u26CB
ENCODING 9931
SWIDTH 1000 0
DWIDTH 10 0
BBX 10 10 0 -1
BITMAP
0000
FF80
8880
9480
A280
C180
A280
9480
8880
FF80
ENDCHAR
STARTCHAR u26CC
ENCODING 9932
SWIDTH 1000 0
DWIDTH 10 0
BBX 10 10 0 -1
BITMAP
0000
8080
4100
2200
1000
0800
0400
2200
4100
8080
ENDCHAR
STARTCHAR u26CE
ENCODING 9934
SWIDTH 1000 0
DWIDTH 10 0
BBX 10 10 0 -1
BITMAP
0000
2200
2200
3200
6A80
A700
2200
2200
2200
1C00
ENDCHAR
STARTCHAR u26CF
ENCODING 9935
SWIDTH 1000 0
DWIDTH 10 0
BBX 10 10 0 -1
BITMAP
0000
0600
5800
3000
7000
4800
8400
8200
0100
0080
ENDCHAR
STARTCHAR u26D2
ENCODING 9938
SWIDTH 1000 0
DWIDTH 10 0
BBX 10 10 0 -1
BITMAP
0000
3E00
4100
A280
9080
8880
8480
A280
4100
3E00
ENDCHAR
STARTCHAR u26D3
ENCODING 9939
SWIDTH 1000 0
DWIDTH 10 0
BBX 10 10 0 -1
BITMAP
0000
5200
7700
2500
2500
7700
5200
5200
7700
2500
ENDCHAR
STARTCHAR u26D4
ENCODING 9940
SWIDTH 1000 0
DWIDTH 10 0
BBX 10 10 0 -1
BITMAP
0000
3E00
7F00
FF80
FF80
8080
FF80
FF80
7F00
3E00
ENDCHAR
STARTCHAR u26D8
ENCODING 9944
SWIDTH 1000 0
DWIDTH 10 0
BBX 10 10 0 -1
BITMAP
0000
0F00
0F00
0F00
1F00
3F00
7F00
7F00
7F00
7F00
ENDCHAR
STARTCHAR u26D9
ENCODING 9945
SWIDTH 1000 0
DWIDTH 10 0
BBX 10 10 0 -1
BITMAP
0000
0900
0900
0900
1100
2900
4100
4900
4100
4900
ENDCHAR
STARTCHAR u26DA
ENCODING 9946
SWIDTH 1000 0
DWIDTH 10 0
BBX 10 10 0 -1
BITMAP
0000
E380
C180
8080
0000
0000
0000
8080
C180
E380
ENDCHAR
STARTCHAR u26DB
ENCODING 9947
SWIDTH 1000 0
DWIDTH 10 0
BBX 10 10 0 -1
BITMAP
0000
FF80
8080
4100
4100
2200
2200
1400
1400
0800
ENDCHAR
STARTCHAR u26DC
ENCODING 9948
SWIDTH 1000 0
DWIDTH 10 0
BBX 10 10 0 -1
BITMAP
0000
1280
1080
1280
2080
4280
8080
9280
9080
9280
ENDCHAR
STARTCHAR u26DD
ENCODING 9949
SWIDTH 1000 0
DWIDTH 10 0
BBX 10 10 0 -1
BITMAP
0000
FF80
C180
A280
9480
8880
9480
A280
C180
FF80
ENDCHAR
STARTCHAR u26DE
ENCODING 9950
SWIDTH 1000 0
DWIDTH 10 0
BBX 10 10 0 -1
BITMAP
0000
FF80
C180
A080
9080
8880
8480
8280
C180
FF80
ENDCHAR
STARTCHAR u26E0
ENCODING 9952
SWIDTH 1000 0
DWIDTH 10 0
BBX 10 10 0 -1
BITMAP
0000
FF80
7080
3280
1080
0280
0080
0280
0080
0280
ENDCHAR
STARTCHAR u26E1
ENCODING 9953
SWIDTH 1000 0
DWIDTH 10 0
BBX 10 10 0 -1
BITMAP
0000
8000
C000
E000
E000
C000
9400
B200
F100
FF80
ENDCHAR
STARTCHAR u26E2
ENCODING 9954
SWIDTH 1000 0
DWIDTH 10 0
BBX 10 10 0 -1
BITMAP
0000
0800
1C00
2A00
0800
1C00
2200
2A00
2200
1C00
ENDCHAR
STARTCHAR u26E3
ENCODING 9955
SWIDTH 1000 0
DWIDTH 10 0
BBX 10 10 0 -1
BITMAP
0000
0800
4900
1C00
2200
4100
4100
4100
2200
1C00
ENDCHAR
STARTCHAR u26E4
ENCODING 9956
SWIDTH 1000 0
DWIDTH 10 0
BBX 10 10 0 -1
BITMAP
0000
0800
0800
1400
FF80
5500
2A00
3600
2200
4100
ENDCHAR
STARTCHAR u26E5
ENCODING 9957
SWIDTH 1000 0
DWIDTH 10 0
BBX 10 10 0 -1
BITMAP
0000
0800
0800
1400
FB80
5500
2A00
3600
2200
4100
ENDCHAR
STARTCHAR u26E6
ENCODING 9958
SWIDTH 1000 0
DWIDTH 10 0
BBX 10 10 0 -1
BITMAP
0000
0800
0800
1400
EF80
5500
2A00
3600
2200
4100
ENDCHAR
STARTCHAR u26E7
ENCODING 9959
SWIDTH 1000 0
DWIDTH 10 0
BBX 10 10 0 -1
BITMAP
0000
4100
2200
3600
2A00
5500
FF80
1400
0800
0800
ENDCHAR
STARTCHAR u26E8
ENCODING 9960
SWIDTH 1000 0
DWIDTH 10 0
BBX 10 10 0 -1
BITMAP
0000
7F00
4100
4900
5D00
4900
4900
4100
2200
1C00
ENDCHAR
STARTCHAR u26E9
ENCODING 9961
SWIDTH 1000 0
DWIDTH 10 0
BBX 10 10 0 -1
BITMAP
0000
8080
FF80
7F00
4900
FF80
4100
4100
4100
4100
ENDCHAR
STARTCHAR u26EA
ENCODING 9962
SWIDTH 1000 0
DWIDTH 10 0
BBX 10 10 0 -1
BITMAP
0000
0800
1C00
0800
1400
2200
6B00
AA80
AA80
FF80
ENDCHAR
STARTCHAR u26EB
ENCODING 9963
SWIDTH 1000 0
DWIDTH 10 0
BBX 10 10 0 -1
BITMAP
0000
DD80
B680
8080
A280
A280
8080
9C80
9C80
FF80
ENDCHAR
STARTCHAR u26EC
ENCODING 9964
SWIDTH 1000 0
DWIDTH 10 0
BBX 10 10 0 -1
BITMAP
0000
0000
0C00
0C00
0000
0000
0000
6180
6180
0000
ENDCHAR
STARTCHAR u26ED
ENCODING 9965
SWIDTH 1000 0
DWIDTH 10 0
BBX 10 10 0 -1
BITMAP
0000
0800
4900
3E00
2200
E380
2200
3E00
4900
0800
ENDCHAR
STARTCHAR u26EE
ENCODING 9966
SWIDTH 1000 0
DWIDTH 10 0
BBX 10 10 0 -1
BITMAP
0000
0800
4900
3E00
2280
E380
A200
3E00
4900
0800
ENDCHAR
STARTCHAR u26EF
ENCODING 9967
SWIDTH 1000 0
DWIDTH 10 0
BBX 10 10 0 -1
BITMAP
0000
0800
4900
3E00
2200
EB80
2200
3E00
4900
0800
ENDCHAR
STARTCHAR u26F1
ENCODING 9969
SWIDTH 1000 0
DWIDTH 10 0
BBX 10 10 0 -1
BITMAP
0000
3000
1D00
0E00
0700
0B00
1180
2080
4000
FF00
ENDCHAR
STARTCHAR u26F2
ENCODING 9970
SWIDTH 1000 0
DWIDTH 10 0
BBX 10 10 0 -1
BITMAP
0000
6300
9480
5500
0000
9C80
3E00
1C00
1C00
7F00
ENDCHAR
STARTCHAR u26F3
ENCODING 9971
SWIDTH 1000 0
DWIDTH 10 0
BBX 10 10 0 -1
BITMAP
0000
0E00
0F00
0800
0800
0800
6B00
EB80
F780
7F00
ENDCHAR
STARTCHAR u26F5
ENCODING 9973
SWIDTH 1000 0
DWIDTH 10 0
BBX 10 10 0 -1
BITMAP
0000
0600
3500
5500
9480
F780
0400
FF80
7F80
3F00
ENDCHAR
STARTCHAR u26F6
ENCODING 9974
SWIDTH 1000 0
DWIDTH 10 0
BBX 10 10 0 -1
BITMAP
0000
6300
8080
8080
0000
0000
0000
8080
8080
6300
ENDCHAR
STARTCHAR u26F8
ENCODING 9976
SWIDTH 1000 0
DWIDTH 10 0
BBX 10 10 0 -1
BITMAP
0000
0780
0780
0780
7F80
FF80
FF80
7F80
2200
FF80
ENDCHAR
STARTCHAR u26FC
ENCODING 9980
SWIDTH 1000 0
DWIDTH 10 0
BBX 10 10 0 -1
BITMAP
0000
0000
0800
0800
3E00
0000
4100
4100
F780
0000
ENDCHAR
STARTCHAR u26FD
ENCODING 9981
SWIDTH 1000 0
DWIDTH 10 0
BBX 10 10 0 -1
BITMAP
0000
3800
7C00
4600
4500
7C80
7E80
7D00
7C00
FE00
ENDCHAR
STARTCHAR u26FF
ENCODING 9983
SWIDTH 1000 0
DWIDTH 10 0
BBX 10 10 0 -1
BITMAP
0000
7800
4780
7880
7F80
4780
7880
4780
4000
4000
ENDCHAR
STARTCHAR u2708
ENCODING 9992
SWIDTH 1000 0
DWIDTH 10 0
BBX 10 10 0 -1
BITMAP
0000
1000
1C00
9800
CC00
FF80
CC00
9800
1C00
1000
ENDCHAR
STARTCHAR u2709
ENCODING 9993
SWIDTH 1000 0
DWIDTH 10 0
BBX 10 10 0 -1
BITMAP
0000
0000
FF80
C180
A280
9480
8880
8080
FF80
0000
ENDCHAR
STARTCHAR u2766
ENCODING 10086
SWIDTH 1000 0
DWIDTH 10 0
BBX 10 10 0 -1
BITMAP
0000
7780
8800
3600
7F00
7F00
7E00
3C00
3900
1E00
ENDCHAR
STARTCHAR u2767
ENCODING 10087
SWIDTH 1000 0
DWIDTH 10 0
BBX 10 10 0 -1
BITMAP
0000
8000
9900
BC80
BE80
5F80
BF80
BF00
9C00
4000
ENDCHAR
STARTCHAR u2776
ENCODING 10102
SWIDTH 1000 0
DWIDTH 10 0
BBX 10 10 0 -1
BITMAP
0000
3E00
7F00
F780
E780
F780
F780
E380
7F00
3E00
ENDCHAR
STARTCHAR u2777
ENCODING 10103
SWIDTH 1000 0
DWIDTH 10 0
BBX 10 10 0 -1
BITMAP
0000
3E00
7F00
E780
FB80
F780
EF80
E380
7F00
3E00
ENDCHAR
STARTCHAR u2778
ENCODING 10104
SWIDTH 1000 0
DWIDTH 10 0
BBX 10 10 0 -1
BITMAP
0000
3E00
7F00
E780
FB80
F780
FB80
E780
7F00
3E00
ENDCHAR
STARTCHAR u2779
ENCODING 10105
SWIDTH 1000 0
DWIDTH 10 0
BBX 10 10 0 -1
BITMAP
0000
3E00
7F00
F380
EB80
EB80
E180
FB80
7F00
3E00
ENDCHAR
STARTCHAR u277A
ENCODING 10106
SWIDTH 1000 0
DWIDTH 10 0
BBX 10 10 0 -1
BITMAP
0000
3E00
7F00
E380
EF80
E780
FB80
E780
7F00
3E00
ENDCHAR
STARTCHAR u277B
ENCODING 10107
SWIDTH 1000 0
DWIDTH 10 0
BBX 10 10 0 -1
BITMAP
0000
3E00
7F00
F380
EF80
E380
EB80
E380
7F00
3E00
ENDCHAR
STARTCHAR u277C
ENCODING 10108
SWIDTH 1000 0
DWIDTH 10 0
BBX 10 10 0 -1
BITMAP
0000
3E00
7F00
E380
FB80
F780
F780
F780
7F00
3E00
ENDCHAR
STARTCHAR u277D
ENCODING 10109
SWIDTH 1000 0
DWIDTH 10 0
BBX 10 10 0 -1
BITMAP
0000
3E00
7F00
E380
EB80
E380
EB80
E380
7F00
3E00
ENDCHAR
STARTCHAR u277E
ENCODING 10110
SWIDTH 1000 0
DWIDTH 10 0
BBX 10 10 0 -1
BITMAP
0000
3E00
7F00
E380
EB80
E380
FB80
E780
7F00
3E00
ENDCHAR
STARTCHAR u277F
ENCODING 10111
SWIDTH 1000 0
DWIDTH 10 0
BBX 10 10 0 -1
BITMAP
0000
3E00
7F00
D980
D580
D580
D580
D380
7F00
3E00
ENDCHAR
STARTCHAR u2460
ENCODING 10112
SWIDTH 1000 0
DWIDTH 10 0
BBX 10 10 0 -1
BITMAP
0000
3E00
4100
8880
9880
8880
8880
9C80
4100
3E00
ENDCHAR
STARTCHAR u2461
ENCODING 10113
SWIDTH 1000 0
DWIDTH 10 0
BBX 10 10 0 -1
BITMAP
0000
3E00
4100
9880
8480
8880
9080
9C80
4100
3E00
ENDCHAR
STARTCHAR u2462
ENCODING 10114
SWIDTH 1000 0
DWIDTH 10 0
BBX 10 10 0 -1
BITMAP
0000
3E00
4100
9880
8480
8880
8480
9880
4100
3E00
ENDCHAR
STARTCHAR u2463
ENCODING 10115
SWIDTH 1000 0
DWIDTH 10 0
BBX 10 10 0 -1
BITMAP
0000
3E00
4100
8C80
9480
9480
9E80
8480
4100
3E00
ENDCHAR
STARTCHAR u2464
ENCODING 10116
SWIDTH 1000 0
DWIDTH 10 0
BBX 10 10 0 -1
BITMAP
0000
3E00
4100
9C80
9080
9880
8480
9880
4100
3E00
ENDCHAR
STARTCHAR u2465
ENCODING 10117
SWIDTH 1000 0
DWIDTH 10 0
BBX 10 10 0 -1
BITMAP
0000
3E00
4100
8C80
9080
9C80
9480
9C80
4100
3E00
ENDCHAR
STARTCHAR u2466
ENCODING 10118
SWIDTH 1000 0
DWIDTH 10 0
BBX 10 10 0 -1
BITMAP
0000
3E00
4100
9C80
8480
8880
8880
8880
4100
3E00
ENDCHAR
STARTCHAR u2467
ENCODING 10119
SWIDTH 1000 0
DWIDTH 10 0
BBX 10 10 0 -1
BITMAP
0000
3E00
4100
9C80
9480
9C80
9480
9C80
4100
3E00
ENDCHAR
STARTCHAR u2468
ENCODING 10120
SWIDTH 1000 0
DWIDTH 10 0
BBX 10 10 0 -1
BITMAP
0000
3E00
4100
9C80
9480
9C80
8480
9880
4100
3E00
ENDCHAR
STARTCHAR u2469
ENCODING 10121
SWIDTH 1000 0
DWIDTH 10 0
BBX 10 10 0 -1
BITMAP
0000
3E00
4100
A680
AA80
AA80
AA80
AC80
4100
3E00
ENDCHAR
STARTCHAR u2776
ENCODING 10122
SWIDTH 1000 0
DWIDTH 10 0
BBX 10 10 0 -1
BITMAP
0000
3E00
7F00
F780
E780
F780
F780
E380
7F00
3E00
ENDCHAR
STARTCHAR u2777
ENCODING 10123
SWIDTH 1000 0
DWIDTH 10 0
BBX 10 10 0 -1
BITMAP
0000
3E00
7F00
E780
FB80
F780
EF80
E380
7F00
3E00
ENDCHAR
STARTCHAR u2778
ENCODING 10124
SWIDTH 1000 0
DWIDTH 10 0
BBX 10 10 0 -1
BITMAP
0000
3E00
7F00
E780
FB80
F780
FB80
E780
7F00
3E00
ENDCHAR
STARTCHAR u2779
ENCODING 10125
SWIDTH 1000 0
DWIDTH 10 0
BBX 10 10 0 -1
BITMAP
0000
3E00
7F00
F380
EB80
EB80
E180
FB80
7F00
3E00
ENDCHAR
STARTCHAR u277A
ENCODING 10126
SWIDTH 1000 0
DWIDTH 10 0
BBX 10 10 0 -1
BITMAP
0000
3E00
7F00
E380
EF80
E780
FB80
E780
7F00
3E00
ENDCHAR
STARTCHAR u277B
ENCODING 10127
SWIDTH 1000 0
DWIDTH 10 0
BBX 10 10 0 -1
BITMAP
0000
3E00
7F00
F380
EF80
E380
EB80
E380
7F00
3E00
ENDCHAR
STARTCHAR u277C
ENCODING 10128
SWIDTH 1000 0
DWIDTH 10 0
BBX 10 10 0 -1
BITMAP
0000
3E00
7F00
E380
FB80
F780
F780
F780
7F00
3E00
ENDCHAR
STARTCHAR u277D
ENCODING 10129
SWIDTH 1000 0
DWIDTH 10 0
BBX 10 10 0 -1
BITMAP
0000
3E00
7F00
E380
EB80
E380
EB80
E380
7F00
3E00
ENDCHAR
STARTCHAR u277E
ENCODING 10130
SWIDTH 1000 0
DWIDTH 10 0
BBX 10 10 0 -1
BITMAP
0000
3E00
7F00
E380
EB80
E380
FB80
E780
7F00
3E00
ENDCHAR
STARTCHAR u277F
ENCODING 10131
SWIDTH 1000 0
DWIDTH 10 0
BBX 10 10 0 -1
BITMAP
0000
3E00
7F00
D980
D580
D580
D580
D380
7F00
3E00
ENDCHAR
STARTCHAR u2800
ENCODING 10240
SWIDTH 500 0
DWIDTH 5 0
BBX 5 10 0 -1
BITMAP
00
00
00
00
00
00
00
00
00
00
ENDCHAR
STARTCHAR u2801
ENCODING 10241
SWIDTH 500 0
DWIDTH 5 0
BBX 5 10 0 -1
BITMAP
00
00
40
00
00
00
00
00
00
00
ENDCHAR
STARTCHAR u2802
ENCODING 10242
SWIDTH 500 0
DWIDTH 5 0
BBX 5 10 0 -1
BITMAP
00
00
00
00
40
00
00
00
00
00
ENDCHAR
STARTCHAR u2803
ENCODING 10243
SWIDTH 500 0
DWIDTH 5 0
BBX 5 10 0 -1
BITMAP
00
00
40
00
40
00
00
00
00
00
ENDCHAR
STARTCHAR u2804
ENCODING 10244
SWIDTH 500 0
DWIDTH 5 0
BBX 5 10 0 -1
BITMAP
00
00
00
00
00
00
40
00
00
00
ENDCHAR
STARTCHAR u2805
ENCODING 10245
SWIDTH 500 0
DWIDTH 5 0
BBX 5 10 0 -1
BITMAP
00
00
40
00
00
00
40
00
00
00
ENDCHAR
STARTCHAR u2806
ENCODING 10246
SWIDTH 500 0
DWIDTH 5 0
BBX 5 10 0 -1
BITMAP
00
00
00
00
40
00
40
00
00
00
ENDCHAR
STARTCHAR u2807
ENCODING 10247
SWIDTH 500 0
DWIDTH 5 0
BBX 5 10 0 -1
BITMAP
00
00
40
00
40
00
40
00
00
00
ENDCHAR
STARTCHAR u2808
ENCODING 10248
SWIDTH 500 0
DWIDTH 5 0
BBX 5 10 0 -1
BITMAP
00
00
10
00
00
00
00
00
00
00
ENDCHAR
STARTCHAR u2809
ENCODING 10249
SWIDTH 500 0
DWIDTH 5 0
BBX 5 10 0 -1
BITMAP
00
00
50
00
00
00
00
00
00
00
ENDCHAR
STARTCHAR u280A
ENCODING 10250
SWIDTH 500 0
DWIDTH 5 0
BBX 5 10 0 -1
BITMAP
00
00
10
00
40
00
00
00
00
00
ENDCHAR
STARTCHAR u280B
ENCODING 10251
SWIDTH 500 0
DWIDTH 5 0
BBX 5 10 0 -1
BITMAP
00
00
50
00
40
00
00
00
00
00
ENDCHAR
STARTCHAR u280C
ENCODING 10252
SWIDTH 500 0
DWIDTH 5 0
BBX 5 10 0 -1
BITMAP
00
00
10
00
00
00
40
00
00
00
ENDCHAR
STARTCHAR u280D
ENCODING 10253
SWIDTH 500 0
DWIDTH 5 0
BBX 5 10 0 -1
BITMAP
00
00
50
00
00
00
40
00
00
00
ENDCHAR
STARTCHAR u280E
ENCODING 10254
SWIDTH 500 0
DWIDTH 5 0
BBX 5 10 0 -1
BITMAP
00
00
10
00
40
00
40
00
00
00
ENDCHAR
STARTCHAR u280F
ENCODING 10255
SWIDTH 500 0
DWIDTH 5 0
BBX 5 10 0 -1
BITMAP
00
00
50
00
40
00
40
00
00
00
ENDCHAR
STARTCHAR u2810
ENCODING 10256
SWIDTH 500 0
DWIDTH 5 0
BBX 5 10 0 -1
BITMAP
00
00
00
00
10
00
00
00
00
00
ENDCHAR
STARTCHAR u2811
ENCODING 10257
SWIDTH 500 0
DWIDTH 5 0
BBX 5 10 0 -1
BITMAP
00
00
40
00
10
00
00
00
00
00
ENDCHAR
STARTCHAR u2812
ENCODING 10258
SWIDTH 500 0
DWIDTH 5 0
BBX 5 10 0 -1
BITMAP
00
00
00
00
50
00
00
00
00
00
ENDCHAR
STARTCHAR u2813
ENCODING 10259
SWIDTH 500 0
DWIDTH 5 0
BBX 5 10 0 -1
BITMAP
00
00
40
00
50
00
00
00
00
00
ENDCHAR
STARTCHAR u2814
ENCODING 10260
SWIDTH 500 0
DWIDTH 5 0
BBX 5 10 0 -1
BITMAP
00
00
00
00
10
00
40
00
00
00
ENDCHAR
STARTCHAR u2815
ENCODING 10261
SWIDTH 500 0
DWIDTH 5 0
BBX 5 10 0 -1
BITMAP
00
00
40
00
10
00
40
00
00
00
ENDCHAR
STARTCHAR u2816
ENCODING 10262
SWIDTH 500 0
DWIDTH 5 0
BBX 5 10 0 -1
BITMAP
00
00
00
00
50
00
40
00
00
00
ENDCHAR
STARTCHAR u2817
ENCODING 10263
SWIDTH 500 0
DWIDTH 5 0
BBX 5 10 0 -1
BITMAP
00
00
40
00
50
00
40
00
00
00
ENDCHAR
STARTCHAR u2818
ENCODING 10264
SWIDTH 500 0
DWIDTH 5 0
BBX 5 10 0 -1
BITMAP
00
00
10
00
10
00
00
00
00
00
ENDCHAR
STARTCHAR u2819
ENCODING 10265
SWIDTH 500 0
DWIDTH 5 0
BBX 5 10 0 -1
BITMAP
00
00
50
00
10
00
00
00
00
00
ENDCHAR
STARTCHAR u281A
ENCODING 10266
SWIDTH 500 0
DWIDTH 5 0
BBX 5 10 0 -1
BITMAP
00
00
10
00
50
00
00
00
00
00
ENDCHAR
STARTCHAR u281B
ENCODING 10267
SWIDTH 500 0
DWIDTH 5 0
BBX 5 10 0 -1
BITMAP
00
00
50
00
50
00
00
00
00
00
ENDCHAR
STARTCHAR u281C
ENCODING 10268
SWIDTH 500 0
DWIDTH 5 0
BBX 5 10 0 -1
BITMAP
00
00
10
00
10
00
40
00
00
00
ENDCHAR
STARTCHAR u281D
ENCODING 10269
SWIDTH 500 0
DWIDTH 5 0
BBX 5 10 0 -1
BITMAP
00
00
50
00
10
00
40
00
00
00
ENDCHAR
STARTCHAR u281E
ENCODING 10270
SWIDTH 500 0
DWIDTH 5 0
BBX 5 10 0 -1
BITMAP
00
00
10
00
50
00
40
00
00
00
ENDCHAR
STARTCHAR u281F
ENCODING 10271
SWIDTH 500 0
DWIDTH 5 0
BBX 5 10 0 -1
BITMAP
00
00
50
00
50
00
40
00
00
00
ENDCHAR
STARTCHAR u2820
ENCODING 10272
SWIDTH 500 0
DWIDTH 5 0
BBX 5 10 0 -1
BITMAP
00
00
00
00
00
00
10
00
00
00
ENDCHAR
STARTCHAR u2821
ENCODING 10273
SWIDTH 500 0
DWIDTH 5 0
BBX 5 10 0 -1
BITMAP
00
00
40
00
00
00
10
00
00
00
ENDCHAR
STARTCHAR u2822
ENCODING 10274
SWIDTH 500 0
DWIDTH 5 0
BBX 5 10 0 -1
BITMAP
00
00
00
00
40
00
10
00
00
00
ENDCHAR
STARTCHAR u2823
ENCODING 10275
SWIDTH 500 0
DWIDTH 5 0
BBX 5 10 0 -1
BITMAP
00
00
40
00
40
00
10
00
00
00
ENDCHAR
STARTCHAR u2824
ENCODING 10276
SWIDTH 500 0
DWIDTH 5 0
BBX 5 10 0 -1
BITMAP
00
00
00
00
00
00
50
00
00
00
ENDCHAR
STARTCHAR u2825
ENCODING 10277
SWIDTH 500 0
DWIDTH 5 0
BBX 5 10 0 -1
BITMAP
00
00
40
00
00
00
50
00
00
00
ENDCHAR
STARTCHAR u2826
ENCODING 10278
SWIDTH 500 0
DWIDTH 5 0
BBX 5 10 0 -1
BITMAP
00
00
00
00
40
00
50
00
00
00
ENDCHAR
STARTCHAR u2827
ENCODING 10279
SWIDTH 500 0
DWIDTH 5 0
BBX 5 10 0 -1
BITMAP
00
00
40
00
40
00
50
00
00
00
ENDCHAR
STARTCHAR u2828
ENCODING 10280
SWIDTH 500 0
DWIDTH 5 0
BBX 5 10 0 -1
BITMAP
00
00
10
00
00
00
10
00
00
00
ENDCHAR
STARTCHAR u2829
ENCODING 10281
SWIDTH 500 0
DWIDTH 5 0
BBX 5 10 0 -1
BITMAP
00
00
50
00
00
00
10
00
00
00
ENDCHAR
STARTCHAR u282A
ENCODING 10282
SWIDTH 500 0
DWIDTH 5 0
BBX 5 10 0 -1
BITMAP
00
00
10
00
40
00
10
00
00
00
ENDCHAR
STARTCHAR u282B
ENCODING 10283
SWIDTH 500 0
DWIDTH 5 0
BBX 5 10 0 -1
BITMAP
00
00
50
00
40
00
10
00
00
00
ENDCHAR
STARTCHAR u282C
ENCODING 10284
SWIDTH 500 0
DWIDTH 5 0
BBX 5 10 0 -1
BITMAP
00
00
10
00
00
00
50
00
00
00
ENDCHAR
STARTCHAR u282D
ENCODING 10285
SWIDTH 500 0
DWIDTH 5 0
BBX 5 10 0 -1
BITMAP
00
00
50
00
00
00
50
00
00
00
ENDCHAR
STARTCHAR u282E
ENCODING 10286
SWIDTH 500 0
DWIDTH 5 0
BBX 5 10 0 -1
BITMAP
00
00
10
00
40
00
50
00
00
00
ENDCHAR
STARTCHAR u282F
ENCODING 10287
SWIDTH 500 0
DWIDTH 5 0
BBX 5 10 0 -1
BITMAP
00
00
50
00
40
00
50
00
00
00
ENDCHAR
STARTCHAR u2830
ENCODING 10288
SWIDTH 500 0
DWIDTH 5 0
BBX 5 10 0 -1
BITMAP
00
00
00
00
10
00
10
00
00
00
ENDCHAR
STARTCHAR u2831
ENCODING 10289
SWIDTH 500 0
DWIDTH 5 0
BBX 5 10 0 -1
BITMAP
00
00
40
00
10
00
10
00
00
00
ENDCHAR
STARTCHAR u2832
ENCODING 10290
SWIDTH 500 0
DWIDTH 5 0
BBX 5 10 0 -1
BITMAP
00
00
00
00
50
00
10
00
00
00
ENDCHAR
STARTCHAR u2833
ENCODING 10291
SWIDTH 500 0
DWIDTH 5 0
BBX 5 10 0 -1
BITMAP
00
00
40
00
50
00
10
00
00
00
ENDCHAR
STARTCHAR u2834
ENCODING 10292
SWIDTH 500 0
DWIDTH 5 0
BBX 5 10 0 -1
BITMAP
00
00
00
00
10
00
50
00
00
00
ENDCHAR
STARTCHAR u2835
ENCODING 10293
SWIDTH 500 0
DWIDTH 5 0
BBX 5 10 0 -1
BITMAP
00
00
40
00
10
00
50
00
00
00
ENDCHAR
STARTCHAR u2836
ENCODING 10294
SWIDTH 500 0
DWIDTH 5 0
BBX 5 10 0 -1
BITMAP
00
00
00
00
50
00
50
00
00
00
ENDCHAR
STARTCHAR u2837
ENCODING 10295
SWIDTH 500 0
DWIDTH 5 0
BBX 5 10 0 -1
BITMAP
00
00
40
00
50
00
50
00
00
00
ENDCHAR
STARTCHAR u2838
ENCODING 10296
SWIDTH 500 0
DWIDTH 5 0
BBX 5 10 0 -1
BITMAP
00
00
10
00
10
00
10
00
00
00
ENDCHAR
STARTCHAR u2839
ENCODING 10297
SWIDTH 500 0
DWIDTH 5 0
BBX 5 10 0 -1
BITMAP
00
00
50
00
10
00
10
00
00
00
ENDCHAR
STARTCHAR u283A
ENCODING 10298
SWIDTH 500 0
DWIDTH 5 0
BBX 5 10 0 -1
BITMAP
00
00
10
00
50
00
10
00
00
00
ENDCHAR
STARTCHAR u283B
ENCODING 10299
SWIDTH 500 0
DWIDTH 5 0
BBX 5 10 0 -1
BITMAP
00
00
50
00
50
00
10
00
00
00
ENDCHAR
STARTCHAR u283C
ENCODING 10300
SWIDTH 500 0
DWIDTH 5 0
BBX 5 10 0 -1
BITMAP
00
00
10
00
10
00
50
00
00
00
ENDCHAR
STARTCHAR u283D
ENCODING 10301
SWIDTH 500 0
DWIDTH 5 0
BBX 5 10 0 -1
BITMAP
00
00
50
00
10
00
50
00
00
00
ENDCHAR
STARTCHAR u283E
ENCODING 10302
SWIDTH 500 0
DWIDTH 5 0
BBX 5 10 0 -1
BITMAP
00
00
10
00
50
00
50
00
00
00
ENDCHAR
STARTCHAR u283F
ENCODING 10303
SWIDTH 500 0
DWIDTH 5 0
BBX 5 10 0 -1
BITMAP
00
00
50
00
50
00
50
00
00
00
ENDCHAR
STARTCHAR u2840
ENCODING 10304
SWIDTH 500 0
DWIDTH 5 0
BBX 5 10 0 -1
BITMAP
00
00
00
00
00
00
00
00
40
00
ENDCHAR
STARTCHAR u2841
ENCODING 10305
SWIDTH 500 0
DWIDTH 5 0
BBX 5 10 0 -1
BITMAP
00
00
40
00
00
00
00
00
40
00
ENDCHAR
STARTCHAR u2842
ENCODING 10306
SWIDTH 500 0
DWIDTH 5 0
BBX 5 10 0 -1
BITMAP
00
00
00
00
40
00
00
00
40
00
ENDCHAR
STARTCHAR u2843
ENCODING 10307
SWIDTH 500 0
DWIDTH 5 0
BBX 5 10 0 -1
BITMAP
00
00
40
00
40
00
00
00
40
00
ENDCHAR
STARTCHAR u2844
ENCODING 10308
SWIDTH 500 0
DWIDTH 5 0
BBX 5 10 0 -1
BITMAP
00
00
00
00
00
00
40
00
40
00
ENDCHAR
STARTCHAR u2845
ENCODING 10309
SWIDTH 500 0
DWIDTH 5 0
BBX 5 10 0 -1
BITMAP
00
00
40
00
00
00
40
00
40
00
ENDCHAR
STARTCHAR u2846
ENCODING 10310
SWIDTH 500 0
DWIDTH 5 0
BBX 5 10 0 -1
BITMAP
00
00
00
00
40
00
40
00
40
00
ENDCHAR
STARTCHAR u2847
ENCODING 10311
SWIDTH 500 0
DWIDTH 5 0
BBX 5 10 0 -1
BITMAP
00
00
40
00
40
00
40
00
40
00
ENDCHAR
STARTCHAR u2848
ENCODING 10312
SWIDTH 500 0
DWIDTH 5 0
BBX 5 10 0 -1
BITMAP
00
00
10
00
00
00
00
00
40
00
ENDCHAR
STARTCHAR u2849
ENCODING 10313
SWIDTH 500 0
DWIDTH 5 0
BBX 5 10 0 -1
BITMAP
00
00
50
00
00
00
00
00
40
00
ENDCHAR
STARTCHAR u284A
ENCODING 10314
SWIDTH 500 0
DWIDTH 5 0
BBX 5 10 0 -1
BITMAP
00
00
10
00
40
00
00
00
40
00
ENDCHAR
STARTCHAR u284B
ENCODING 10315
SWIDTH 500 0
DWIDTH 5 0
BBX 5 10 0 -1
BITMAP
00
00
50
00
40
00
00
00
40
00
ENDCHAR
STARTCHAR u284C
ENCODING 10316
SWIDTH 500 0
DWIDTH 5 0
BBX 5 10 0 -1
BITMAP
00
00
10
00
00
00
40
00
40
00
ENDCHAR
STARTCHAR u284D
ENCODING 10317
SWIDTH 500 0
DWIDTH 5 0
BBX 5 10 0 -1
BITMAP
00
00
50
00
00
00
40
00
40
00
ENDCHAR
STARTCHAR u284E
ENCODING 10318
SWIDTH 500 0
DWIDTH 5 0
BBX 5 10 0 -1
BITMAP
00
00
10
00
40
00
40
00
40
00
ENDCHAR
STARTCHAR u284F
ENCODING 10319
SWIDTH 500 0
DWIDTH 5 0
BBX 5 10 0 -1
BITMAP
00
00
50
00
40
00
40
00
40
00
ENDCHAR
STARTCHAR u2850
ENCODING 10320
SWIDTH 500 0
DWIDTH 5 0
BBX 5 10 0 -1
BITMAP
00
00
00
00
10
00
00
00
40
00
ENDCHAR
STARTCHAR u2851
ENCODING 10321
SWIDTH 500 0
DWIDTH 5 0
BBX 5 10 0 -1
BITMAP
00
00
40
00
10
00
00
00
40
00
ENDCHAR
STARTCHAR u2852
ENCODING 10322
SWIDTH 500 0
DWIDTH 5 0
BBX 5 10 0 -1
BITMAP
00
00
00
00
50
00
00
00
40
00
ENDCHAR
STARTCHAR u2853
ENCODING 10323
SWIDTH 500 0
DWIDTH 5 0
BBX 5 10 0 -1
BITMAP
00
00
40
00
50
00
00
00
40
00
ENDCHAR
STARTCHAR u2854
ENCODING 10324
SWIDTH 500 0
DWIDTH 5 0
BBX 5 10 0 -1
BITMAP
00
00
00
00
10
00
40
00
40
00
ENDCHAR
STARTCHAR u2855
ENCODING 10325
SWIDTH 500 0
DWIDTH 5 0
BBX 5 10 0 -1
BITMAP
00
00
40
00
10
00
40
00
40
00
ENDCHAR
STARTCHAR u2856
ENCODING 10326
SWIDTH 500 0
DWIDTH 5 0
BBX 5 10 0 -1
BITMAP
00
00
00
00
50
00
40
00
40
00
ENDCHAR
STARTCHAR u2857
ENCODING 10327
SWIDTH 500 0
DWIDTH 5 0
BBX 5 10 0 -1
BITMAP
00
00
40
00
50
00
40
00
40
00
ENDCHAR
STARTCHAR u2858
ENCODING 10328
SWIDTH 500 0
DWIDTH 5 0
BBX 5 10 0 -1
BITMAP
00
00
10
00
10
00
00
00
40
00
ENDCHAR
STARTCHAR u2859
ENCODING 10329
SWIDTH 500 0
DWIDTH 5 0
BBX 5 10 0 -1
BITMAP
00
00
50
00
10
00
00
00
40
00
ENDCHAR
STARTCHAR u285A
ENCODING 10330
SWIDTH 500 0
DWIDTH 5 0
BBX 5 10 0 -1
BITMAP
00
00
10
00
50
00
00
00
40
00
ENDCHAR
STARTCHAR u285B
ENCODING 10331
SWIDTH 500 0
DWIDTH 5 0
BBX 5 10 0 -1
BITMAP
00
00
50
00
50
00
00
00
40
00
ENDCHAR
STARTCHAR u285C
ENCODING 10332
SWIDTH 500 0
DWIDTH 5 0
BBX 5 10 0 -1
BITMAP
00
00
10
00
10
00
40
00
40
00
ENDCHAR
STARTCHAR u285D
ENCODING 10333
SWIDTH 500 0
DWIDTH 5 0
BBX 5 10 0 -1
BITMAP
00
00
50
00
10
00
40
00
40
00
ENDCHAR
STARTCHAR u285E
ENCODING 10334
SWIDTH 500 0
DWIDTH 5 0
BBX 5 10 0 -1
BITMAP
00
00
10
00
50
00
40
00
40
00
ENDCHAR
STARTCHAR u285F
ENCODING 10335
SWIDTH 500 0
DWIDTH 5 0
BBX 5 10 0 -1
BITMAP
00
00
50
00
50
00
40
00
40
00
ENDCHAR
STARTCHAR u2860
ENCODING 10336
SWIDTH 500 0
DWIDTH 5 0
BBX 5 10 0 -1
BITMAP
00
00
00
00
00
00
10
00
40
00
ENDCHAR
STARTCHAR u2861
ENCODING 10337
SWIDTH 500 0
DWIDTH 5 0
BBX 5 10 0 -1
BITMAP
00
00
40
00
00
00
10
00
40
00
ENDCHAR
STARTCHAR u2862
ENCODING 10338
SWIDTH 500 0
DWIDTH 5 0
BBX 5 10 0 -1
BITMAP
00
00
00
00
40
00
10
00
40
00
ENDCHAR
STARTCHAR u2863
ENCODING 10339
SWIDTH 500 0
DWIDTH 5 0
BBX 5 10 0 -1
BITMAP
00
00
40
00
40
00
10
00
40
00
ENDCHAR
STARTCHAR u2864
ENCODING 10340
SWIDTH 500 0
DWIDTH 5 0
BBX 5 10 0 -1
BITMAP
00
00
00
00
00
00
50
00
40
00
ENDCHAR
STARTCHAR u2865
ENCODING 10341
SWIDTH 500 0
DWIDTH 5 0
BBX 5 10 0 -1
BITMAP
00
00
40
00
00
00
50
00
40
00
ENDCHAR
STARTCHAR u2866
ENCODING 10342
SWIDTH 500 0
DWIDTH 5 0
BBX 5 10 0 -1
BITMAP
00
00
00
00
40
00
50
00
40
00
ENDCHAR
STARTCHAR u2867
ENCODING 10343
SWIDTH 500 0
DWIDTH 5 0
BBX 5 10 0 -1
BITMAP
00
00
40
00
40
00
50
00
40
00
ENDCHAR
STARTCHAR u2868
ENCODING 10344
SWIDTH 500 0
DWIDTH 5 0
BBX 5 10 0 -1
BITMAP
00
00
10
00
00
00
10
00
40
00
ENDCHAR
STARTCHAR u2869
ENCODING 10345
SWIDTH 500 0
DWIDTH 5 0
BBX 5 10 0 -1
BITMAP
00
00
50
00
00
00
10
00
40
00
ENDCHAR
STARTCHAR u286A
ENCODING 10346
SWIDTH 500 0
DWIDTH 5 0
BBX 5 10 0 -1
BITMAP
00
00
10
00
40
00
10
00
40
00
ENDCHAR
STARTCHAR u286B
ENCODING 10347
SWIDTH 500 0
DWIDTH 5 0
BBX 5 10 0 -1
BITMAP
00
00
50
00
40
00
10
00
40
00
ENDCHAR
STARTCHAR u286C
ENCODING 10348
SWIDTH 500 0
DWIDTH 5 0
BBX 5 10 0 -1
BITMAP
00
00
10
00
00
00
50
00
40
00
ENDCHAR
STARTCHAR u286D
ENCODING 10349
SWIDTH 500 0
DWIDTH 5 0
BBX 5 10 0 -1
BITMAP
00
00
50
00
00
00
50
00
40
00
ENDCHAR
STARTCHAR u286E
ENCODING 10350
SWIDTH 500 0
DWIDTH 5 0
BBX 5 10 0 -1
BITMAP
00
00
10
00
40
00
50
00
40
00
ENDCHAR
STARTCHAR u286F
ENCODING 10351
SWIDTH 500 0
DWIDTH 5 0
BBX 5 10 0 -1
BITMAP
00
00
50
00
40
00
50
00
40
00
ENDCHAR
STARTCHAR u2870
ENCODING 10352
SWIDTH 500 0
DWIDTH 5 0
BBX 5 10 0 -1
BITMAP
00
00
00
00
10
00
10
00
40
00
ENDCHAR
STARTCHAR u2871
ENCODING 10353
SWIDTH 500 0
DWIDTH 5 0
BBX 5 10 0 -1
BITMAP
00
00
40
00
10
00
10
00
40
00
ENDCHAR
STARTCHAR u2872
ENCODING 10354
SWIDTH 500 0
DWIDTH 5 0
BBX 5 10 0 -1
BITMAP
00
00
00
00
50
00
10
00
40
00
ENDCHAR
STARTCHAR u2873
ENCODING 10355
SWIDTH 500 0
DWIDTH 5 0
BBX 5 10 0 -1
BITMAP
00
00
40
00
50
00
10
00
40
00
ENDCHAR
STARTCHAR u2874
ENCODING 10356
SWIDTH 500 0
DWIDTH 5 0
BBX 5 10 0 -1
BITMAP
00
00
00
00
10
00
50
00
40
00
ENDCHAR
STARTCHAR u2875
ENCODING 10357
SWIDTH 500 0
DWIDTH 5 0
BBX 5 10 0 -1
BITMAP
00
00
40
00
10
00
50
00
40
00
ENDCHAR
STARTCHAR u2876
ENCODING 10358
SWIDTH 500 0
DWIDTH 5 0
BBX 5 10 0 -1
BITMAP
00
00
00
00
50
00
50
00
40
00
ENDCHAR
STARTCHAR u2877
ENCODING 10359
SWIDTH 500 0
DWIDTH 5 0
BBX 5 10 0 -1
BITMAP
00
00
40
00
50
00
50
00
40
00
ENDCHAR
STARTCHAR u2878
ENCODING 10360
SWIDTH 500 0
DWIDTH 5 0
BBX 5 10 0 -1
BITMAP
00
00
10
00
10
00
10
00
40
00
ENDCHAR
STARTCHAR u2879
ENCODING 10361
SWIDTH 500 0
DWIDTH 5 0
BBX 5 10 0 -1
BITMAP
00
00
50
00
10
00
10
00
40
00
ENDCHAR
STARTCHAR u287A
ENCODING 10362
SWIDTH 500 0
DWIDTH 5 0
BBX 5 10 0 -1
BITMAP
00
00
10
00
50
00
10
00
40
00
ENDCHAR
STARTCHAR u287B
ENCODING 10363
SWIDTH 500 0
DWIDTH 5 0
BBX 5 10 0 -1
BITMAP
00
00
50
00
50
00
10
00
40
00
ENDCHAR
STARTCHAR u287C
ENCODING 10364
SWIDTH 500 0
DWIDTH 5 0
BBX 5 10 0 -1
BITMAP
00
00
10
00
10
00
50
00
40
00
ENDCHAR
STARTCHAR u287D
ENCODING 10365
SWIDTH 500 0
DWIDTH 5 0
BBX 5 10 0 -1
BITMAP
00
00
50
00
10
00
50
00
40
00
ENDCHAR
STARTCHAR u287E
ENCODING 10366
SWIDTH 500 0
DWIDTH 5 0
BBX 5 10 0 -1
BITMAP
00
00
10
00
50
00
50
00
40
00
ENDCHAR
STARTCHAR u287F
ENCODING 10367
SWIDTH 500 0
DWIDTH 5 0
BBX 5 10 0 -1
BITMAP
00
00
50
00
50
00
50
00
40
00
ENDCHAR
STARTCHAR u2880
ENCODING 10368
SWIDTH 500 0
DWIDTH 5 0
BBX 5 10 0 -1
BITMAP
00
00
00
00
00
00
00
00
10
00
ENDCHAR
STARTCHAR u2881
ENCODING 10369
SWIDTH 500 0
DWIDTH 5 0
BBX 5 10 0 -1
BITMAP
00
00
40
00
00
00
00
00
10
00
ENDCHAR
STARTCHAR u2882
ENCODING 10370
SWIDTH 500 0
DWIDTH 5 0
BBX 5 10 0 -1
BITMAP
00
00
00
00
40
00
00
00
10
00
ENDCHAR
STARTCHAR u2883
ENCODING 10371
SWIDTH 500 0
DWIDTH 5 0
BBX 5 10 0 -1
BITMAP
00
00
40
00
40
00
00
00
10
00
ENDCHAR
STARTCHAR u2884
ENCODING 10372
SWIDTH 500 0
DWIDTH 5 0
BBX 5 10 0 -1
BITMAP
00
00
00
00
00
00
40
00
10
00
ENDCHAR
STARTCHAR u2885
ENCODING 10373
SWIDTH 500 0
DWIDTH 5 0
BBX 5 10 0 -1
BITMAP
00
00
40
00
00
00
40
00
10
00
ENDCHAR
STARTCHAR u2886
ENCODING 10374
SWIDTH 500 0
DWIDTH 5 0
BBX 5 10 0 -1
BITMAP
00
00
00
00
40
00
40
00
10
00
ENDCHAR
STARTCHAR u2887
ENCODING 10375
SWIDTH 500 0
DWIDTH 5 0
BBX 5 10 0 -1
BITMAP
00
00
40
00
40
00
40
00
10
00
ENDCHAR
STARTCHAR u2888
ENCODING 10376
SWIDTH 500 0
DWIDTH 5 0
BBX 5 10 0 -1
BITMAP
00
00
10
00
00
00
00
00
10
00
ENDCHAR
STARTCHAR u2889
ENCODING 10377
SWIDTH 500 0
DWIDTH 5 0
BBX 5 10 0 -1
BITMAP
00
00
50
00
00
00
00
00
10
00
ENDCHAR
STARTCHAR u288A
ENCODING 10378
SWIDTH 500 0
DWIDTH 5 0
BBX 5 10 0 -1
BITMAP
00
00
10
00
40
00
00
00
10
00
ENDCHAR
STARTCHAR u288B
ENCODING 10379
SWIDTH 500 0
DWIDTH 5 0
BBX 5 10 0 -1
BITMAP
00
00
50
00
40
00
00
00
10
00
ENDCHAR
STARTCHAR u288C
ENCODING 10380
SWIDTH 500 0
DWIDTH 5 0
BBX 5 10 0 -1
BITMAP
00
00
10
00
00
00
40
00
10
00
ENDCHAR
STARTCHAR u288D
ENCODING 10381
SWIDTH 500 0
DWIDTH 5 0
BBX 5 10 0 -1
BITMAP
00
00
50
00
00
00
40
00
10
00
ENDCHAR
STARTCHAR u288E
ENCODING 10382
SWIDTH 500 0
DWIDTH 5 0
BBX 5 10 0 -1
BITMAP
00
00
10
00
40
00
40
00
10
00
ENDCHAR
STARTCHAR u288F
ENCODING 10383
SWIDTH 500 0
DWIDTH 5 0
BBX 5 10 0 -1
BITMAP
00
00
50
00
40
00
40
00
10
00
ENDCHAR
STARTCHAR u2890
ENCODING 10384
SWIDTH 500 0
DWIDTH 5 0
BBX 5 10 0 -1
BITMAP
00
00
00
00
10
00
00
00
10
00
ENDCHAR
STARTCHAR u2891
ENCODING 10385
SWIDTH 500 0
DWIDTH 5 0
BBX 5 10 0 -1
BITMAP
00
00
40
00
10
00
00
00
10
00
ENDCHAR
STARTCHAR u2892
ENCODING 10386
SWIDTH 500 0
DWIDTH 5 0
BBX 5 10 0 -1
BITMAP
00
00
00
00
50
00
00
00
10
00
ENDCHAR
STARTCHAR u2893
ENCODING 10387
SWIDTH 500 0
DWIDTH 5 0
BBX 5 10 0 -1
BITMAP
00
00
40
00
50
00
00
00
10
00
ENDCHAR
STARTCHAR u2894
ENCODING 10388
SWIDTH 500 0
DWIDTH 5 0
BBX 5 10 0 -1
BITMAP
00
00
00
00
10
00
40
00
10
00
ENDCHAR
STARTCHAR u2895
ENCODING 10389
SWIDTH 500 0
DWIDTH 5 0
BBX 5 10 0 -1
BITMAP
00
00
40
00
10
00
40
00
10
00
ENDCHAR
STARTCHAR u2896
ENCODING 10390
SWIDTH 500 0
DWIDTH 5 0
BBX 5 10 0 -1
BITMAP
00
00
00
00
50
00
40
00
10
00
ENDCHAR
STARTCHAR u2897
ENCODING 10391
SWIDTH 500 0
DWIDTH 5 0
BBX 5 10 0 -1
BITMAP
00
00
40
00
50
00
40
00
10
00
ENDCHAR
STARTCHAR u2898
ENCODING 10392
SWIDTH 500 0
DWIDTH 5 0
BBX 5 10 0 -1
BITMAP
00
00
10
00
10
00
00
00
10
00
ENDCHAR
STARTCHAR u2899
ENCODING 10393
SWIDTH 500 0
DWIDTH 5 0
BBX 5 10 0 -1
BITMAP
00
00
50
00
10
00
00
00
10
00
ENDCHAR
STARTCHAR u289A
ENCODING 10394
SWIDTH 500 0
DWIDTH 5 0
BBX 5 10 0 -1
BITMAP
00
00
10
00
50
00
00
00
10
00
ENDCHAR
STARTCHAR u289B
ENCODING 10395
SWIDTH 500 0
DWIDTH 5 0
BBX 5 10 0 -1
BITMAP
00
00
50
00
50
00
00
00
10
00
ENDCHAR
STARTCHAR u289C
ENCODING 10396
SWIDTH 500 0
DWIDTH 5 0
BBX 5 10 0 -1
BITMAP
00
00
10
00
10
00
40
00
10
00
ENDCHAR
STARTCHAR u289D
ENCODING 10397
SWIDTH 500 0
DWIDTH 5 0
BBX 5 10 0 -1
BITMAP
00
00
50
00
10
00
40
00
10
00
ENDCHAR
STARTCHAR u289E
ENCODING 10398
SWIDTH 500 0
DWIDTH 5 0
BBX 5 10 0 -1
BITMAP
00
00
10
00
50
00
40
00
10
00
ENDCHAR
STARTCHAR u289F
ENCODING 10399
SWIDTH 500 0
DWIDTH 5 0
BBX 5 10 0 -1
BITMAP
00
00
50
00
50
00
40
00
10
00
ENDCHAR
STARTCHAR u28A0
ENCODING 10400
SWIDTH 500 0
DWIDTH 5 0
BBX 5 10 0 -1
BITMAP
00
00
00
00
00
00
10
00
10
00
ENDCHAR
STARTCHAR u28A1
ENCODING 10401
SWIDTH 500 0
DWIDTH 5 0
BBX 5 10 0 -1
BITMAP
00
00
40
00
00
00
10
00
10
00
ENDCHAR
STARTCHAR u28A2
ENCODING 10402
SWIDTH 500 0
DWIDTH 5 0
BBX 5 10 0 -1
BITMAP
00
00
00
00
40
00
10
00
10
00
ENDCHAR
STARTCHAR u28A3
ENCODING 10403
SWIDTH 500 0
DWIDTH 5 0
BBX 5 10 0 -1
BITMAP
00
00
40
00
40
00
10
00
10
00
ENDCHAR
STARTCHAR u28A4
ENCODING 10404
SWIDTH 500 0
DWIDTH 5 0
BBX 5 10 0 -1
BITMAP
00
00
00
00
00
00
50
00
10
00
ENDCHAR
STARTCHAR u28A5
ENCODING 10405
SWIDTH 500 0
DWIDTH 5 0
BBX 5 10 0 -1
BITMAP
00
00
40
00
00
00
50
00
10
00
ENDCHAR
STARTCHAR u28A6
ENCODING 10406
SWIDTH 500 0
DWIDTH 5 0
BBX 5 10 0 -1
BITMAP
00
00
00
00
40
00
50
00
10
00
ENDCHAR
STARTCHAR u28A7
ENCODING 10407
SWIDTH 500 0
DWIDTH 5 0
BBX 5 10 0 -1
BITMAP
00
00
40
00
40
00
50
00
10
00
ENDCHAR
STARTCHAR u28A8
ENCODING 10408
SWIDTH 500 0
DWIDTH 5 0
BBX 5 10 0 -1
BITMAP
00
00
10
00
00
00
10
00
10
00
ENDCHAR
STARTCHAR u28A9
ENCODING 10409
SWIDTH 500 0
DWIDTH 5 0
BBX 5 10 0 -1
BITMAP
00
00
50
00
00
00
10
00
10
00
ENDCHAR
STARTCHAR u28AA
ENCODING 10410
SWIDTH 500 0
DWIDTH 5 0
BBX 5 10 0 -1
BITMAP
00
00
10
00
40
00
10
00
10
00
ENDCHAR
STARTCHAR u28AB
ENCODING 10411
SWIDTH 500 0
DWIDTH 5 0
BBX 5 10 0 -1
BITMAP
00
00
50
00
40
00
10
00
10
00
ENDCHAR
STARTCHAR u28AC
ENCODING 10412
SWIDTH 500 0
DWIDTH 5 0
BBX 5 10 0 -1
BITMAP
00
00
10
00
00
00
50
00
10
00
ENDCHAR
STARTCHAR u28AD
ENCODING 10413
SWIDTH 500 0
DWIDTH 5 0
BBX 5 10 0 -1
BITMAP
00
00
50
00
00
00
50
00
10
00
ENDCHAR
STARTCHAR u28AE
ENCODING 10414
SWIDTH 500 0
DWIDTH 5 0
BBX 5 10 0 -1
BITMAP
00
00
10
00
40
00
50
00
10
00
ENDCHAR
STARTCHAR u28AF
ENCODING 10415
SWIDTH 500 0
DWIDTH 5 0
BBX 5 10 0 -1
BITMAP
00
00
50
00
40
00
50
00
10
00
ENDCHAR
STARTCHAR u28B0
ENCODING 10416
SWIDTH 500 0
DWIDTH 5 0
BBX 5 10 0 -1
BITMAP
00
00
00
00
10
00
10
00
10
00
ENDCHAR
STARTCHAR u28B1
ENCODING 10417
SWIDTH 500 0
DWIDTH 5 0
BBX 5 10 0 -1
BITMAP
00
00
40
00
10
00
10
00
10
00
ENDCHAR
STARTCHAR u28B2
ENCODING 10418
SWIDTH 500 0
DWIDTH 5 0
BBX 5 10 0 -1
BITMAP
00
00
00
00
50
00
10
00
10
00
ENDCHAR
STARTCHAR u28B3
ENCODING 10419
SWIDTH 500 0
DWIDTH 5 0
BBX 5 10 0 -1
BITMAP
00
00
40
00
50
00
10
00
10
00
ENDCHAR
STARTCHAR u28B4
ENCODING 10420
SWIDTH 500 0
DWIDTH 5 0
BBX 5 10 0 -1
BITMAP
00
00
00
00
10
00
50
00
10
00
ENDCHAR
STARTCHAR u28B5
ENCODING 10421
SWIDTH 500 0
DWIDTH 5 0
BBX 5 10 0 -1
BITMAP
00
00
40
00
10
00
50
00
10
00
ENDCHAR
STARTCHAR u28B6
ENCODING 10422
SWIDTH 500 0
DWIDTH 5 0
BBX 5 10 0 -1
BITMAP
00
00
00
00
50
00
50
00
10
00
ENDCHAR
STARTCHAR u28B7
ENCODING 10423
SWIDTH 500 0
DWIDTH 5 0
BBX 5 10 0 -1
BITMAP
00
00
40
00
50
00
50
00
10
00
ENDCHAR
STARTCHAR u28B8
ENCODING 10424
SWIDTH 500 0
DWIDTH 5 0
BBX 5 10 0 -1
BITMAP
00
00
10
00
10
00
10
00
10
00
ENDCHAR
STARTCHAR u28B9
ENCODING 10425
SWIDTH 500 0
DWIDTH 5 0
BBX 5 10 0 -1
BITMAP
00
00
50
00
10
00
10
00
10
00
ENDCHAR
STARTCHAR u28BA
ENCODING 10426
SWIDTH 500 0
DWIDTH 5 0
BBX 5 10 0 -1
BITMAP
00
00
10
00
50
00
10
00
10
00
ENDCHAR
STARTCHAR u28BB
ENCODING 10427
SWIDTH 500 0
DWIDTH 5 0
BBX 5 10 0 -1
BITMAP
00
00
50
00
50
00
10
00
10
00
ENDCHAR
STARTCHAR u28BC
ENCODING 10428
SWIDTH 500 0
DWIDTH 5 0
BBX 5 10 0 -1
BITMAP
00
00
10
00
10
00
50
00
10
00
ENDCHAR
STARTCHAR u28BD
ENCODING 10429
SWIDTH 500 0
DWIDTH 5 0
BBX 5 10 0 -1
BITMAP
00
00
50
00
10
00
50
00
10
00
ENDCHAR
STARTCHAR u28BE
ENCODING 10430
SWIDTH 500 0
DWIDTH 5 0
BBX 5 10 0 -1
BITMAP
00
00
10
00
50
00
50
00
10
00
ENDCHAR
STARTCHAR u28BF
ENCODING 10431
SWIDTH 500 0
DWIDTH 5 0
BBX 5 10 0 -1
BITMAP
00
00
50
00
50
00
50
00
10
00
ENDCHAR
STARTCHAR u28C0
ENCODING 10432
SWIDTH 500 0
DWIDTH 5 0
BBX 5 10 0 -1
BITMAP
00
00
00
00
00
00
00
00
50
00
ENDCHAR
STARTCHAR u28C1
ENCODING 10433
SWIDTH 500 0
DWIDTH 5 0
BBX 5 10 0 -1
BITMAP
00
00
40
00
00
00
00
00
50
00
ENDCHAR
STARTCHAR u28C2
ENCODING 10434
SWIDTH 500 0
DWIDTH 5 0
BBX 5 10 0 -1
BITMAP
00
00
00
00
40
00
00
00
50
00
ENDCHAR
STARTCHAR u28C3
ENCODING 10435
SWIDTH 500 0
DWIDTH 5 0
BBX 5 10 0 -1
BITMAP
00
00
40
00
40
00
00
00
50
00
ENDCHAR
STARTCHAR u28C4
ENCODING 10436
SWIDTH 500 0
DWIDTH 5 0
BBX 5 10 0 -1
BITMAP
00
00
00
00
00
00
40
00
50
00
ENDCHAR
STARTCHAR u28C5
ENCODING 10437
SWIDTH 500 0
DWIDTH 5 0
BBX 5 10 0 -1
BITMAP
00
00
40
00
00
00
40
00
50
00
ENDCHAR
STARTCHAR u28C6
ENCODING 10438
SWIDTH 500 0
DWIDTH 5 0
BBX 5 10 0 -1
BITMAP
00
00
00
00
40
00
40
00
50
00
ENDCHAR
STARTCHAR u28C7
ENCODING 10439
SWIDTH 500 0
DWIDTH 5 0
BBX 5 10 0 -1
BITMAP
00
00
40
00
40
00
40
00
50
00
ENDCHAR
STARTCHAR u28C8
ENCODING 10440
SWIDTH 500 0
DWIDTH 5 0
BBX 5 10 0 -1
BITMAP
00
00
10
00
00
00
00
00
50
00
ENDCHAR
STARTCHAR u28C9
ENCODING 10441
SWIDTH 500 0
DWIDTH 5 0
BBX 5 10 0 -1
BITMAP
00
00
50
00
00
00
00
00
50
00
ENDCHAR
STARTCHAR u28CA
ENCODING 10442
SWIDTH 500 0
DWIDTH 5 0
BBX 5 10 0 -1
BITMAP
00
00
10
00
40
00
00
00
50
00
ENDCHAR
STARTCHAR u28CB
ENCODING 10443
SWIDTH 500 0
DWIDTH 5 0
BBX 5 10 0 -1
BITMAP
00
00
50
00
40
00
00
00
50
00
ENDCHAR
STARTCHAR u28CC
ENCODING 10444
SWIDTH 500 0
DWIDTH 5 0
BBX 5 10 0 -1
BITMAP
00
00
10
00
00
00
40
00
50
00
ENDCHAR
STARTCHAR u28CD
ENCODING 10445
SWIDTH 500 0
DWIDTH 5 0
BBX 5 10 0 -1
BITMAP
00
00
50
00
00
00
40
00
50
00
ENDCHAR
STARTCHAR u28CE
ENCODING 10446
SWIDTH 500 0
DWIDTH 5 0
BBX 5 10 0 -1
BITMAP
00
00
10
00
40
00
40
00
50
00
ENDCHAR
STARTCHAR u28CF
ENCODING 10447
SWIDTH 500 0
DWIDTH 5 0
BBX 5 10 0 -1
BITMAP
00
00
50
00
40
00
40
00
50
00
ENDCHAR
STARTCHAR u28D0
ENCODING 10448
SWIDTH 500 0
DWIDTH 5 0
BBX 5 10 0 -1
BITMAP
00
00
00
00
10
00
00
00
50
00
ENDCHAR
STARTCHAR u28D1
ENCODING 10449
SWIDTH 500 0
DWIDTH 5 0
BBX 5 10 0 -1
BITMAP
00
00
40
00
10
00
00
00
50
00
ENDCHAR
STARTCHAR u28D2
ENCODING 10450
SWIDTH 500 0
DWIDTH 5 0
BBX 5 10 0 -1
BITMAP
00
00
00
00
50
00
00
00
50
00
ENDCHAR
STARTCHAR u28D3
ENCODING 10451
SWIDTH 500 0
DWIDTH 5 0
BBX 5 10 0 -1
BITMAP
00
00
40
00
50
00
00
00
50
00
ENDCHAR
STARTCHAR u28D4
ENCODING 10452
SWIDTH 500 0
DWIDTH 5 0
BBX 5 10 0 -1
BITMAP
00
00
00
00
10
00
40
00
50
00
ENDCHAR
STARTCHAR u28D5
ENCODING 10453
SWIDTH 500 0
DWIDTH 5 0
BBX 5 10 0 -1
BITMAP
00
00
40
00
10
00
40
00
50
00
ENDCHAR
STARTCHAR u28D6
ENCODING 10454
SWIDTH 500 0
DWIDTH 5 0
BBX 5 10 0 -1
BITMAP
00
00
00
00
50
00
40
00
50
00
ENDCHAR
ENDFONT
